<?xml version="1.0" standalone="no"?>
<!DOCTYPE svg PUBLIC "-//W3C//DTD SVG 20010904//EN"
 "http://www.w3.org/TR/2001/REC-SVG-20010904/DTD/svg10.dtd">
<svg version="1.0" xmlns="http://www.w3.org/2000/svg"
 width="900.000000pt" height="900.000000pt" viewBox="0 0 900.000000 900.000000"
 preserveAspectRatio="xMidYMid meet">
<metadata>
Created by potrace 1.10, written by Peter Selinger 2001-2011
</metadata>
<g transform="translate(0.000000,900.000000) scale(0.100000,-0.100000)"
fill="#000000" stroke="none">
<path d="M4455 8588 c-10 -28 -25 -199 -25 -289 0 -53 -4 -141 -9 -195 -6 -55
-11 -133 -13 -174 l-3 -75 85 -12 c107 -15 411 -35 419 -28 11 11 19 140 10
150 -6 6 -74 17 -152 25 l-142 16 0 59 c1 33 7 161 14 284 12 213 12 226 -5
238 -24 17 -173 18 -179 1z"/>
<path d="M3914 8564 c-5 -2 -53 -10 -105 -17 -89 -12 -94 -14 -97 -37 -2 -25
-19 -121 -48 -272 -7 -43 -20 -113 -28 -155 -8 -43 -20 -105 -26 -138 -33
-178 -31 -213 11 -200 10 4 46 9 80 13 l62 7 12 45 c7 25 16 57 19 71 5 25 12
28 98 42 169 29 163 29 187 -3 11 -16 21 -33 21 -37 0 -4 11 -21 24 -37 l23
-30 84 18 c46 10 87 20 91 23 8 4 -73 164 -284 558 -26 50 -53 102 -59 118 -6
15 -15 27 -19 27 -5 0 -14 2 -22 4 -7 3 -18 2 -24 0z m20 -344 c27 -54 46
-105 43 -113 -6 -16 -125 -29 -141 -16 -5 5 -2 43 8 91 9 46 16 95 16 111 0
51 25 27 74 -73z"/>
<path d="M3141 8384 c-24 -13 -50 -24 -57 -24 -25 0 -36 -38 -21 -68 8 -15 22
-47 32 -72 9 -25 24 -61 32 -80 8 -19 21 -48 28 -65 6 -16 20 -47 29 -68 20
-47 20 -57 1 -57 -8 0 -15 5 -15 10 0 6 -4 10 -10 10 -5 0 -53 33 -107 73 -54
40 -118 87 -143 103 -25 17 -67 46 -93 64 -47 34 -48 34 -80 18 -18 -9 -58
-27 -90 -39 l-59 -23 6 -37 c3 -21 12 -50 20 -66 8 -15 21 -44 30 -63 8 -19
29 -65 45 -103 17 -37 31 -69 31 -72 0 -5 19 -49 114 -257 14 -31 30 -68 36
-83 12 -31 24 -31 75 0 22 14 50 29 63 35 34 15 36 33 7 97 -44 97 -52 116
-70 163 -9 25 -23 59 -30 75 -26 59 -28 75 -8 75 11 0 28 -8 39 -17 59 -54
361 -263 379 -263 8 0 23 4 33 9 9 5 44 20 77 34 66 27 75 42 52 91 -26 53
-55 122 -93 214 -29 69 -60 143 -88 207 -10 22 -24 54 -30 70 -7 17 -20 46
-28 65 -9 19 -19 43 -22 53 -7 23 -32 21 -85 -9z"/>
<path d="M5608 8340 c-49 -27 -86 -77 -104 -142 -28 -104 18 -188 147 -270
104 -67 128 -132 60 -168 -60 -31 -164 25 -177 97 -3 18 -11 36 -18 41 -18 15
-148 23 -163 11 -37 -31 2 -146 72 -214 49 -47 70 -60 158 -99 55 -24 175 -22
225 4 96 50 151 159 129 256 -9 38 -24 60 -77 113 -36 36 -89 85 -117 109 -60
48 -67 76 -30 110 29 27 46 28 97 1 42 -22 72 -57 90 -104 9 -23 14 -26 38
-20 15 4 51 10 79 14 29 4 56 10 59 14 4 3 -2 29 -12 57 -24 67 -90 132 -174
173 -56 27 -78 32 -155 34 -75 3 -96 0 -127 -17z"/>
<path d="M6211 8069 c-35 -57 -36 -76 -6 -93 11 -6 36 -23 56 -38 20 -16 42
-28 48 -28 5 0 15 -9 21 -20 9 -17 4 -30 -30 -81 -22 -33 -40 -62 -40 -65 0
-2 -20 -33 -44 -68 -24 -35 -45 -68 -47 -72 -2 -5 -29 -47 -60 -94 -82 -124
-82 -118 3 -174 78 -52 89 -52 118 -3 13 23 80 130 113 181 6 11 31 49 55 84
23 35 42 65 42 67 0 8 61 95 71 101 6 3 24 -3 40 -15 15 -11 31 -21 34 -21 3
0 24 -13 47 -30 22 -16 47 -30 55 -30 15 0 52 38 53 54 0 5 6 17 14 25 7 9 17
26 20 38 6 19 -3 27 -64 65 -39 24 -82 50 -95 58 -42 27 -215 135 -233 145 -9
6 -36 23 -59 38 -60 38 -75 35 -112 -24z"/>
<path d="M2260 7923 c-84 -29 -400 -252 -400 -282 0 -22 438 -601 455 -601 8
0 15 4 15 8 0 5 27 28 60 52 33 24 60 50 60 57 0 7 -31 55 -70 107 -38 51 -70
100 -70 110 0 9 11 22 25 28 14 6 25 15 25 20 0 14 57 9 70 -7 7 -8 16 -15 21
-15 4 0 27 -12 51 -27 65 -42 80 -51 115 -69 l33 -16 75 58 c42 32 78 61 81
65 5 9 -30 31 -211 128 -61 32 -62 35 -57 117 4 58 1 84 -13 117 -23 53 -90
124 -134 143 -33 14 -101 18 -131 7z m75 -210 c37 -41 34 -90 -7 -130 -58 -53
-105 -84 -121 -77 -20 7 -87 109 -87 132 0 17 69 76 110 94 36 16 79 8 105
-19z"/>
<path d="M4145 7700 c-120 -7 -205 -22 -300 -54 -55 -18 -68 -24 -135 -56 -74
-36 -155 -87 -210 -132 -32 -26 -41 -28 -122 -28 -77 0 -96 -4 -153 -31 -116
-55 -211 -137 -288 -252 -15 -22 -67 -65 -129 -106 -277 -186 -527 -432 -741
-729 -37 -51 -67 -95 -67 -97 0 -2 -13 -23 -29 -47 -50 -75 -150 -265 -196
-373 -7 -16 -20 -46 -28 -65 -15 -34 -32 -78 -61 -157 -60 -165 -128 -471
-143 -643 -10 -121 -10 -485 0 -615 4 -55 15 -134 23 -175 48 -241 64 -307
101 -415 14 -38 27 -79 30 -90 2 -11 11 -33 18 -50 7 -16 28 -66 47 -110 71
-172 149 -311 304 -546 35 -53 64 -101 64 -108 0 -7 -17 -27 -37 -46 -33 -30
-36 -37 -25 -52 7 -10 15 -26 18 -35 4 -10 13 -18 22 -18 14 0 63 33 94 63 20
20 159 121 199 145 l35 21 48 -50 c44 -47 136 -99 175 -99 40 0 94 -24 136
-60 46 -40 136 -90 161 -90 28 0 80 -36 144 -100 48 -48 81 -71 125 -88 33
-13 72 -30 87 -38 14 -8 32 -14 40 -14 7 0 26 -10 42 -23 l28 -23 -48 -57
c-50 -58 -72 -103 -93 -192 -18 -75 -30 -82 -83 -54 -127 69 -185 134 -223
252 -11 31 -24 56 -30 54 -5 -2 -11 -38 -13 -80 -5 -146 41 -197 302 -326 101
-50 189 -91 196 -91 7 0 24 -6 38 -14 42 -22 160 -65 242 -89 132 -39 261 -71
370 -92 47 -9 113 -23 147 -31 34 -8 84 -14 112 -14 38 0 56 -6 80 -25 45 -39
106 -135 136 -217 70 -192 124 -252 287 -318 50 -20 58 -28 73 -66 9 -24 19
-79 21 -121 8 -122 9 -123 52 -123 20 1 64 6 97 13 l60 13 3 39 c2 22 -1 81
-6 130 -5 50 -7 97 -4 106 2 9 30 36 62 59 89 65 130 136 130 228 0 80 -47
201 -112 291 -10 13 -18 27 -18 32 0 11 74 49 95 49 17 0 287 89 350 115 52
22 206 94 225 105 8 5 38 21 65 35 28 14 57 30 65 35 8 5 50 30 93 56 42 25
77 51 77 58 0 13 -26 51 -62 90 -10 11 -18 25 -18 32 0 6 37 42 83 79 139 113
333 308 447 450 36 44 67 82 70 85 18 18 192 265 203 290 4 8 16 29 26 45 39
60 128 232 166 320 29 69 88 231 105 290 5 17 19 62 30 100 12 39 25 88 29
110 4 22 13 58 19 80 31 113 62 406 62 576 0 115 -23 381 -40 474 -29 157 -43
214 -86 365 -51 175 -170 454 -253 590 -11 19 -24 42 -28 50 -10 21 -150 227
-186 275 -205 265 -565 593 -762 695 -95 49 -151 91 -166 125 -43 96 -171 235
-252 274 -118 55 -192 63 -295 31 -35 -11 -74 -20 -86 -20 -12 0 -52 22 -90
50 -74 54 -161 97 -246 123 -30 9 -80 23 -110 32 -64 19 -389 28 -585 15z
m353 -70 c210 -28 259 -38 337 -68 61 -22 154 -70 213 -110 l53 -35 -6 -61
c-6 -58 -5 -63 22 -91 33 -34 146 -183 156 -205 4 -8 11 -22 15 -30 26 -46 35
-69 53 -134 23 -89 25 -223 3 -320 -47 -208 -118 -341 -241 -456 -96 -90 -151
-103 -120 -29 60 141 113 435 103 558 -9 94 -30 224 -41 241 -4 7 -11 26 -16
44 -27 106 -90 212 -187 317 -54 57 -92 89 -115 96 -31 9 -35 9 -29 -6 3 -8
25 -34 48 -56 90 -86 170 -220 206 -345 9 -30 24 -82 34 -115 14 -47 18 -98
18 -237 0 -174 -6 -208 -36 -208 -27 0 -319 325 -357 398 -6 12 -16 22 -21 22
-18 0 -10 -41 20 -102 17 -33 30 -64 30 -69 0 -5 -24 -9 -54 -9 -42 0 -58 5
-79 24 -69 64 -153 242 -172 363 -4 24 -12 46 -17 49 -14 9 -38 -24 -38 -51 0
-12 -20 -68 -45 -125 -25 -57 -45 -114 -45 -127 0 -13 -5 -33 -10 -44 -13 -23
-40 -241 -40 -320 0 -39 -5 -61 -15 -69 -14 -11 -24 -5 -70 42 -29 31 -66 75
-81 99 -16 24 -39 54 -53 67 l-24 23 6 -23 c3 -13 11 -41 17 -63 23 -80 23
-85 7 -85 -36 0 -166 170 -203 265 -16 42 -19 76 -19 215 0 172 10 227 56 326
20 44 24 64 12 64 -30 -1 -73 -80 -127 -239 -29 -83 -44 -113 -80 -151 -24
-25 -56 -66 -71 -91 -16 -24 -40 -62 -54 -84 -29 -46 -91 -182 -91 -201 0 -7
-6 -28 -14 -46 -22 -52 -47 -203 -46 -271 3 -107 -1 -111 -52 -39 -70 98 -98
198 -98 345 0 85 -3 118 -12 115 -26 -9 -61 -201 -52 -289 4 -34 2 -59 -4 -63
-14 -8 -69 78 -83 128 -15 53 -5 210 17 267 30 81 78 194 101 234 12 22 34 62
49 90 90 166 196 287 362 411 64 49 126 94 137 100 60 32 105 53 145 69 25 9
60 23 78 31 18 8 41 14 51 14 10 0 34 6 52 14 19 7 97 19 174 26 77 6 142 14
144 16 8 7 124 4 199 -6z m959 -220 c142 -49 249 -180 336 -415 69 -186 88
-228 126 -280 50 -67 124 -183 140 -220 30 -69 53 -180 47 -230 -10 -79 -55
-183 -76 -170 -4 2 -10 37 -13 77 -6 73 -12 97 -50 193 -26 67 -108 239 -117
245 -4 3 -11 16 -15 29 -5 16 -10 20 -15 12 -7 -12 9 -72 36 -139 8 -18 14
-41 14 -51 0 -10 7 -36 17 -57 12 -29 16 -70 16 -164 0 -126 -8 -158 -53 -230
-64 -100 -70 -119 -70 -210 0 -53 6 -103 14 -122 24 -58 37 -101 53 -173 24
-111 0 -195 -90 -305 -15 -19 -81 -70 -90 -70 -12 0 -7 43 6 59 51 62 66 266
33 443 -10 51 -20 103 -22 116 -3 13 -9 20 -14 17 -6 -4 -10 -67 -10 -147 0
-189 -22 -273 -99 -380 -50 -69 -138 -126 -248 -158 -66 -20 -73 -13 -73 80 0
57 -4 80 -12 80 -25 0 -50 -64 -55 -142 -5 -65 -9 -78 -23 -78 -42 0 -110 136
-110 221 0 38 25 149 40 178 5 9 17 34 27 56 33 72 101 162 164 217 148 129
189 177 233 272 31 66 56 198 56 296 0 135 -53 429 -98 540 -5 14 -18 52 -27
85 -23 80 -46 136 -62 156 -7 8 -13 19 -13 23 0 10 -100 144 -143 191 -67 72
-46 125 61 157 76 22 107 22 179 -2z m-2099 -69 c11 -6 -3 -26 -55 -77 -147
-148 -316 -404 -378 -574 -21 -59 -45 -175 -45 -222 0 -90 39 -192 111 -288
14 -19 32 -58 39 -86 11 -42 11 -55 -1 -80 -18 -35 -36 -34 -94 5 -54 36 -89
91 -104 164 -7 34 -17 73 -23 87 -10 24 -11 24 -18 5 -4 -11 -14 -42 -22 -70
-18 -64 -38 -68 -60 -13 -34 89 -41 143 -28 230 6 44 18 94 25 112 7 17 16 38
19 46 4 8 15 29 26 45 11 17 23 37 27 45 3 8 18 31 32 50 41 56 75 119 141
265 76 166 235 326 355 356 17 4 32 7 35 8 3 0 11 -3 18 -8z m969 -538 c14
-32 36 -75 49 -95 36 -57 32 -75 -18 -85 -28 -6 -44 -15 -46 -26 -3 -15 5 -17
62 -17 78 0 100 -9 191 -76 75 -56 202 -124 232 -124 10 -1 29 -7 43 -15 14
-8 35 -14 47 -15 12 0 34 -10 48 -23 29 -25 29 -28 -11 -217 -7 -36 -15 -83
-16 -105 -3 -39 -2 -40 32 -43 25 -2 57 9 114 38 70 35 116 49 116 35 0 -14
-30 -117 -39 -134 -15 -28 3 -37 34 -17 37 24 70 83 88 155 21 83 38 101 94
101 32 0 43 4 43 15 0 16 -19 19 -82 16 -45 -3 -50 14 -16 59 26 36 47 38 75
8 38 -42 53 -85 53 -151 0 -100 -51 -194 -147 -272 -72 -59 -131 -85 -191 -85
-56 0 -57 -1 -107 -65 -52 -66 -192 -204 -263 -258 -59 -45 -181 -120 -242
-148 -35 -16 -73 -32 -159 -64 -57 -21 -194 -22 -241 -2 -19 8 -55 23 -80 33
-167 65 -317 159 -401 253 -61 67 -126 188 -149 276 -5 17 -13 44 -19 60 -5
17 -17 57 -25 90 -8 33 -22 87 -30 121 -23 88 -21 221 5 305 18 58 28 75 63
102 50 40 94 61 165 81 78 23 95 20 122 -16 47 -63 105 -122 168 -169 71 -54
87 -59 96 -29 9 27 35 25 68 -6 25 -23 74 -44 104 -44 29 0 43 32 43 98 0 68
13 182 32 282 5 30 14 78 18 105 8 51 34 125 45 125 3 0 17 -26 32 -57z m-694
-88 c8 -27 20 -69 28 -93 16 -53 7 -62 -62 -62 -37 0 -56 -7 -102 -40 -49 -35
-77 -48 -77 -36 0 43 174 307 191 289 3 -5 13 -30 22 -58z m1050 -171 c63 -32
93 -74 52 -74 -22 0 -125 63 -125 77 0 18 35 16 73 -3z m-1517 -561 c5 -17 28
-64 65 -135 11 -21 18 -72 22 -157 8 -147 29 -225 93 -343 8 -14 48 -61 89
-105 41 -43 75 -81 75 -85 0 -23 -78 0 -130 38 -8 6 -23 14 -32 17 -30 10 -2
-42 49 -95 28 -28 42 -51 38 -58 -10 -17 -140 -4 -180 18 -38 21 -115 93 -115
107 0 6 -5 16 -11 22 -27 27 -49 119 -50 204 -1 93 -13 133 -25 84 -4 -16 -13
-40 -20 -54 -29 -56 -14 -216 27 -293 7 -14 5 -18 -9 -18 -28 0 -87 68 -123
140 -31 61 -33 72 -32 167 0 129 24 194 137 368 22 33 50 85 64 115 37 82 56
100 68 63z m1558 -692 c3 -5 6 -41 7 -80 2 -87 -17 -120 -103 -182 -57 -42
-65 -59 -27 -59 41 0 176 89 207 137 16 23 27 32 35 26 94 -70 97 -74 97 -114
0 -66 -68 -169 -153 -230 -50 -36 -48 -37 -192 100 -63 58 -135 117 -162 131
-62 33 -65 52 -13 79 23 12 85 54 138 94 148 111 156 115 166 98z m1731 -91
c3 -5 -7 -12 -22 -15 -127 -27 -351 -226 -608 -540 -22 -27 -51 -62 -66 -79
-81 -98 -118 -190 -103 -251 4 -15 26 -39 52 -57 89 -61 193 -176 246 -271 65
-118 79 -206 52 -327 -8 -36 -20 -96 -26 -135 -22 -136 -27 -157 -41 -166 -8
-5 -39 -8 -69 -7 -48 3 -55 6 -58 26 -5 31 -23 27 -47 -11 -19 -30 -36 -39
-99 -52 -40 -8 -15 -25 37 -25 40 0 47 -13 20 -42 -10 -11 -30 -18 -54 -18
-21 0 -40 -4 -43 -9 -7 -10 17 -21 45 -21 16 0 20 -6 17 -27 -2 -23 -8 -29
-35 -31 -37 -4 -38 -5 -21 -31 15 -25 -4 -51 -39 -51 -26 0 -126 44 -155 69
-35 28 -23 72 37 138 58 64 75 97 75 141 0 43 -14 58 -42 45 -13 -6 -73 -14
-134 -17 -88 -4 -115 -2 -132 10 -20 14 -22 13 -37 -16 -21 -40 -7 -65 84
-153 56 -53 71 -74 71 -97 0 -85 -181 -153 -268 -100 -41 25 -39 53 3 60 47 8
30 25 -31 30 -45 4 -59 9 -64 25 -10 26 -4 35 25 35 13 0 31 3 40 6 25 10 -2
24 -45 24 -36 0 -76 31 -65 50 4 6 31 10 61 10 52 0 71 11 38 24 -9 3 -39 6
-67 6 -29 0 -77 7 -107 15 -60 16 -196 20 -204 6 -7 -11 28 -21 75 -21 19 0
59 -7 88 -16 48 -14 52 -17 49 -42 -3 -23 -8 -27 -38 -30 -129 -9 -160 -32
-44 -32 77 0 104 -12 104 -45 0 -29 -9 -35 -67 -43 -26 -4 -48 -13 -51 -20 -3
-10 15 -12 77 -11 l82 2 47 -44 c54 -52 108 -79 156 -79 43 0 139 31 197 64
l47 25 43 -24 c54 -30 57 -32 92 -45 44 -16 46 -39 5 -74 -51 -45 -119 -66
-208 -66 -94 0 -181 22 -241 60 -31 20 -59 30 -85 30 -111 0 -324 122 -411
235 -84 110 -123 233 -130 420 -4 100 -2 134 15 200 47 181 79 234 249 402 51
50 93 100 93 110 0 32 -71 128 -200 272 -72 80 -169 166 -177 157 -3 -2 20
-40 51 -84 30 -44 69 -106 85 -137 46 -86 40 -135 -12 -95 -14 11 -30 20 -36
20 -15 0 -14 -17 2 -27 14 -9 67 -76 67 -86 0 -3 -15 -11 -34 -17 -46 -15 -50
-33 -15 -59 39 -29 37 -55 -11 -121 -22 -30 -45 -65 -52 -77 -23 -47 -60 -21
-102 71 -14 30 -17 51 -11 90 10 72 9 81 -13 129 -40 85 -59 142 -97 287 -42
161 -77 270 -105 328 -16 33 -18 47 -10 62 15 28 31 25 108 -16 113 -62 154
-99 367 -330 114 -125 174 -185 263 -267 70 -64 83 -67 187 -42 41 10 119 15
248 15 l187 0 48 48 c47 46 253 266 289 308 75 87 298 314 343 349 89 69 159
103 212 104 26 1 50 -3 53 -9z m-2421 -196 c9 -4 44 -63 78 -132 l62 -125 -45
-40 c-98 -86 -118 -97 -180 -97 -54 0 -60 2 -101 43 -76 77 -90 210 -29 281
23 26 89 58 136 67 57 9 62 10 79 3z m2196 -80 c0 -20 -7 -57 -15 -83 -8 -25
-21 -74 -30 -108 -8 -35 -22 -91 -30 -125 -30 -121 -61 -212 -91 -270 -9 -16
-14 -57 -14 -108 0 -66 -4 -89 -21 -116 -11 -19 -23 -34 -25 -34 -13 0 -44 22
-44 31 0 6 -20 37 -45 69 -25 32 -45 63 -45 69 0 6 9 16 20 23 11 7 20 18 20
25 0 6 -9 15 -20 18 -27 9 -25 36 5 81 29 43 32 59 8 49 -10 -4 -31 -10 -47
-13 -28 -5 -29 -4 -21 34 10 54 56 144 112 217 90 119 247 276 276 277 4 0 7
-16 7 -36z m-805 -39 c51 -12 156 -69 181 -98 22 -27 31 -47 19 -47 -7 0 -46
22 -65 36 -30 23 -129 74 -142 74 -8 0 -20 6 -26 12 -7 7 -30 18 -50 25 l-37
12 45 -4 c25 -2 59 -6 75 -10z m-1907 -22 c-10 -2 -26 -2 -35 0 -10 3 -2 5 17
5 19 0 27 -2 18 -5z m-58 -23 c0 -6 -8 -13 -17 -17 -65 -24 -197 -144 -288
-263 -27 -36 -52 -67 -55 -70 -3 -3 -31 -36 -62 -75 -61 -75 -240 -254 -407
-406 -185 -167 -301 -328 -345 -478 -21 -70 -21 -229 -1 -278 8 -19 15 -42 15
-49 0 -20 -19 -17 -27 4 -3 9 -11 24 -18 32 -6 8 -17 39 -23 68 -34 152 6 307
121 480 49 73 122 149 435 455 95 93 199 204 232 247 115 151 255 286 355 342
34 19 85 24 85 8z m-80 -492 c0 -28 -6 -77 -14 -107 -46 -181 -76 -371 -77
-487 0 -49 -4 -107 -8 -129 -7 -40 -7 -40 -21 35 -18 107 -8 370 20 469 23 85
37 131 56 181 7 19 15 47 18 63 10 45 26 30 26 -25z m-511 -605 c79 -19 232
-253 165 -253 -15 0 -71 23 -127 52 -38 19 -144 48 -182 49 -22 0 -51 4 -65 8
l-25 7 25 9 c41 15 205 8 239 -10 76 -39 67 -9 -25 83 -51 50 -68 72 -52 68
12 -4 34 -10 47 -13z m3282 -83 c12 0 146 -280 176 -369 47 -139 56 -195 56
-346 0 -142 -1 -153 -25 -199 -21 -40 -27 -45 -32 -30 -3 11 -1 35 4 54 20 71
3 331 -28 410 -5 14 -17 50 -27 80 -15 50 -57 160 -90 235 -37 87 -65 175 -64
201 1 15 4 13 12 -8 6 -16 14 -28 18 -28z m-1781 -127 c0 -155 29 -251 116
-383 46 -70 145 -170 210 -212 39 -25 188 -98 201 -98 3 0 26 -16 50 -36 45
-37 88 -106 79 -129 -2 -7 -26 -20 -53 -30 -99 -34 -150 -64 -217 -127 l-40
-38 -197 0 c-109 0 -200 4 -203 9 -3 5 1 22 9 37 35 67 -1 146 -88 198 l-46
26 2 60 c2 72 -8 84 -132 168 -121 82 -207 127 -271 140 -30 6 -128 13 -218
16 -155 4 -165 5 -202 30 -56 37 -140 145 -137 175 1 13 9 27 17 31 130 65
570 132 761 116 46 -4 98 -14 117 -23 l34 -16 90 96 c49 54 96 97 104 97 11 0
14 -21 14 -107z m1545 -223 c6 -10 -21 -59 -40 -72 -18 -13 -55 -9 -61 7 -11
27 5 63 29 68 41 8 66 7 72 -3z m-2686 -115 c35 -34 35 -55 -1 -55 -11 0 -34
-8 -51 -17 -80 -44 -140 -123 -167 -219 -16 -55 -17 -74 -8 -120 6 -30 8 -57
5 -60 -3 -4 -21 3 -39 14 -83 51 -134 143 -125 222 16 133 128 251 257 271 64
10 90 2 129 -36z m2604 -1 c8 -9 -34 -54 -50 -54 -16 0 -16 15 -3 41 10 18 40
26 53 13z m-2449 -129 c35 -11 96 -15 212 -15 200 0 197 1 429 -143 49 -30 95
-70 95 -82 0 -22 -35 -27 -81 -10 -24 9 -56 20 -70 24 -25 8 -32 12 -97 44
-19 9 -40 17 -48 17 -8 0 -26 7 -40 16 -18 13 -28 14 -36 6 -8 -8 -5 -14 13
-22 13 -5 32 -14 42 -20 32 -19 52 -29 137 -71 227 -111 232 -114 288 -157 45
-36 59 -81 25 -84 -37 -3 -79 3 -113 16 -19 8 -53 20 -75 29 -22 8 -60 23 -85
32 -25 9 -63 24 -85 32 -49 19 -101 41 -138 59 -27 13 -47 11 -47 -4 0 -4 9
-12 20 -17 196 -98 373 -175 401 -175 5 0 31 -10 59 -22 39 -17 50 -27 50 -44
0 -50 -108 -53 -255 -7 -47 15 -69 22 -155 53 -19 6 -51 15 -70 19 -19 4 -45
13 -57 19 -27 15 -63 16 -63 2 0 -6 10 -15 23 -20 12 -6 29 -14 37 -19 34 -19
125 -54 185 -71 17 -5 59 -17 96 -28 106 -30 115 -46 45 -75 -43 -18 -49 -18
-133 -2 -48 9 -115 24 -148 32 -152 37 -179 44 -237 59 -140 36 -198 72 -330
205 l-98 98 0 85 c0 101 17 141 88 211 44 43 47 45 106 45 34 0 83 -7 110 -15z
m2601 -35 c40 -20 95 -68 95 -82 0 -4 -7 -8 -15 -8 -8 0 -15 3 -15 8 0 4 -10
12 -23 18 -12 5 -40 20 -62 32 -22 11 -48 23 -58 26 -10 3 -15 10 -12 16 10
16 47 12 90 -10z m-857 -514 c47 -29 95 -83 124 -139 18 -34 22 -59 23 -133 0
-84 -2 -94 -30 -140 -33 -53 -109 -103 -157 -104 -37 0 -41 11 -23 62 26 75
15 206 -22 249 -7 8 -13 20 -13 26 0 18 -87 96 -131 117 -55 27 -58 41 -17 62
78 41 182 41 246 0z m-209 -142 c28 -25 51 -51 51 -57 0 -6 6 -18 13 -26 8 -9
20 -41 27 -72 19 -85 0 -148 -65 -214 -27 -28 -62 -58 -77 -66 -254 -132 -374
-175 -518 -185 -79 -6 -98 -4 -108 9 -11 13 -2 20 65 54 112 55 150 81 129 89
-9 4 -24 0 -34 -8 -9 -9 -28 -18 -42 -21 -14 -3 -56 -16 -95 -30 -126 -45
-173 -53 -203 -37 -35 21 -38 36 -9 63 27 24 164 97 183 97 6 0 17 7 24 15 7
8 21 15 31 15 10 0 23 9 29 19 14 28 13 32 -7 23 -17 -9 -66 -30 -128 -57 -16
-7 -73 -33 -125 -58 -103 -49 -144 -60 -190 -51 -34 7 -48 37 -28 61 7 9 38
32 68 52 64 41 51 34 260 148 55 29 90 55 90 64 0 13 -25 11 -57 -5 -15 -8
-35 -17 -43 -21 -8 -3 -69 -34 -135 -70 -194 -104 -203 -108 -219 -102 -31 12
-15 43 61 116 89 84 233 182 343 233 108 50 190 61 383 54 106 -5 167 -3 177
3 8 6 34 11 56 11 36 0 49 -7 93 -46z m-1249 -89 c36 -8 94 -15 130 -15 101
-1 103 -6 21 -95 -77 -83 -101 -121 -110 -175 -5 -29 -12 -37 -41 -47 -58 -20
-174 -16 -217 7 -43 23 -73 65 -73 101 0 70 73 175 151 219 41 23 55 23 139 5z
m2240 -114 c0 -16 -99 -99 -143 -119 -93 -45 -123 -53 -194 -53 -78 -1 -111 9
-77 22 10 4 33 8 49 8 60 2 286 98 328 140 13 13 37 15 37 2z m-1034 -374
c119 -52 275 -218 344 -366 26 -57 28 -166 3 -210 -25 -43 -43 -40 -43 7 0 48
-33 134 -72 189 -44 61 -54 39 -18 -41 24 -54 30 -82 30 -135 0 -59 -3 -70
-31 -104 -24 -29 -37 -37 -64 -37 -53 0 -66 20 -58 90 6 65 -12 129 -51 183
-29 40 -39 19 -25 -57 13 -75 5 -148 -17 -167 -12 -9 -23 -9 -54 1 -72 24
-113 77 -165 210 -39 98 -89 182 -156 262 -17 20 -29 43 -26 51 3 8 29 19 59
25 68 13 117 32 198 75 71 38 103 44 146 24z"/>
<path d="M4415 6353 c-25 -6 -55 -32 -55 -48 0 -7 10 -15 21 -18 21 -6 21 -7
-10 -45 -31 -40 -39 -66 -23 -76 5 -3 19 8 31 25 23 30 57 50 76 42 7 -2 9
-40 7 -102 -4 -89 -2 -102 20 -142 28 -50 78 -81 120 -72 74 15 127 126 114
237 -7 59 -4 62 39 46 26 -10 39 -34 59 -110 6 -25 15 -45 20 -45 18 0 47 72
40 99 -24 98 -223 208 -346 191 -39 -6 -49 -4 -54 9 -6 16 -21 18 -59 9z"/>
<path d="M3571 6297 c-18 -6 -55 -32 -82 -59 -38 -38 -49 -57 -55 -94 -7 -50
8 -98 29 -91 6 2 14 25 17 51 7 54 39 92 86 102 l31 6 -1 -89 c-1 -79 2 -94
28 -146 59 -115 131 -128 190 -33 22 34 27 169 8 188 -20 20 -15 47 7 41 35
-9 30 13 -14 63 -61 70 -148 92 -244 61z"/>
<path d="M3984 5735 c-10 -25 4 -45 31 -45 17 0 25 5 25 18 0 36 -45 57 -56
27z"/>
<path d="M4044 5471 c-10 -10 -3 -39 12 -45 31 -12 111 -6 124 9 24 29 6 40
-64 40 -37 0 -70 -2 -72 -4z"/>
<path d="M5577 4143 c-3 -4 -7 -55 -8 -113 -4 -100 -3 -105 16 -105 34 0 45
54 27 139 -14 70 -25 96 -35 79z"/>
<path d="M5033 4124 c-9 -23 5 -129 22 -170 24 -57 40 -38 37 42 -3 96 -40
176 -59 128z"/>
<path d="M4778 3893 c-50 -4 -61 -19 -33 -43 8 -7 15 -29 15 -49 0 -35 24 -94
51 -127 7 -9 31 -25 52 -36 33 -16 54 -19 116 -16 42 3 82 6 90 9 9 3 22 -15
36 -51 43 -103 81 -93 79 22 -3 109 -53 206 -133 258 -42 26 -58 30 -137 34
-49 2 -110 2 -136 -1z m96 -59 c3 -9 6 -26 6 -39 0 -29 43 -65 77 -65 15 0 37
12 53 30 42 45 57 38 52 -23 -4 -43 -85 -75 -147 -59 -57 16 -120 133 -88 165
12 13 41 7 47 -9z"/>
<path d="M5675 3891 c-102 -25 -173 -145 -162 -274 6 -74 24 -117 48 -117 24
0 30 13 38 74 l6 51 65 -3 c53 -2 72 2 105 20 54 32 92 91 98 153 2 28 8 60
11 71 6 17 3 23 -16 27 -30 9 -155 7 -193 -2z m133 -53 c28 -28 2 -115 -43
-144 -37 -24 -118 -24 -145 1 -19 17 -27 64 -13 78 3 4 16 -5 29 -18 49 -53
124 -20 124 55 0 32 4 40 18 40 10 0 23 -5 30 -12z"/>
<path d="M6850 7586 c-87 -19 -166 -64 -225 -128 -97 -104 -143 -243 -115
-348 43 -166 160 -279 334 -325 67 -18 71 -18 140 0 93 24 136 47 206 111 66
62 112 143 130 232 31 151 -65 339 -213 417 -41 22 -173 58 -197 54 -3 0 -30
-6 -60 -13z m200 -216 c116 -92 108 -232 -21 -343 -54 -47 -74 -55 -137 -56
-57 -1 -104 22 -147 72 -33 38 -35 45 -35 115 0 68 3 78 36 128 63 94 123 127
217 119 35 -3 59 -13 87 -35z"/>
<path d="M1596 7392 c-80 -91 -215 -239 -248 -273 -16 -15 -28 -33 -28 -39 0
-13 38 -49 311 -291 132 -118 252 -219 260 -219 4 0 41 37 80 83 40 45 78 87
83 93 18 18 132 147 160 180 32 39 32 45 4 68 -13 10 -37 32 -54 48 -17 16
-37 26 -45 23 -8 -3 -59 -57 -114 -120 -55 -63 -104 -115 -110 -115 -12 0 -85
71 -85 82 0 4 36 49 80 99 44 51 80 95 80 99 0 3 -25 30 -55 59 -38 37 -59 50
-69 44 -18 -10 -146 -155 -146 -165 0 -23 -50 -4 -85 32 l-38 39 65 73 c36 40
76 85 89 99 13 14 33 36 43 48 l20 22 -53 49 c-29 28 -61 50 -70 50 -9 -1 -43
-31 -75 -68z"/>
<path d="M7560 6975 c-14 -8 -32 -18 -40 -22 -24 -12 -523 -344 -542 -360 -16
-14 -16 -17 0 -42 9 -16 28 -47 42 -69 14 -23 32 -42 41 -42 9 0 67 34 129 75
62 41 114 75 115 75 2 0 27 16 56 35 62 42 82 35 56 -20 -21 -44 -37 -80 -77
-180 -18 -44 -38 -93 -45 -110 -7 -16 -19 -46 -28 -65 -30 -71 -30 -95 -2
-148 37 -72 46 -77 86 -52 19 11 43 24 54 30 11 6 34 19 50 29 17 11 47 29 67
40 21 11 57 33 80 48 57 36 79 50 103 63 11 6 34 19 50 30 17 11 39 24 50 30
11 6 34 19 50 30 17 11 37 23 45 27 8 4 27 15 42 26 l27 20 -36 66 c-56 103
-58 105 -102 75 -20 -13 -45 -29 -56 -34 -11 -6 -33 -19 -50 -30 -16 -11 -37
-23 -45 -27 -8 -4 -43 -26 -78 -50 -35 -24 -67 -43 -73 -43 -13 0 -11 28 5 58
13 25 23 48 59 132 8 19 22 51 30 70 32 75 51 116 64 142 7 14 13 33 13 41 0
16 -98 167 -109 167 -3 0 -17 -7 -31 -15z"/>
<path d="M1186 6908 c-3 -7 -15 -26 -26 -43 -11 -16 -24 -39 -29 -50 -5 -11
-21 -37 -35 -58 -14 -21 -26 -39 -26 -41 0 -2 -34 -61 -75 -131 -41 -69 -75
-130 -75 -134 0 -5 -7 -14 -15 -21 -27 -22 -17 -47 28 -70 23 -12 53 -28 66
-35 31 -17 55 -6 70 32 13 34 48 93 64 110 10 10 17 9 37 -2 14 -8 34 -19 45
-25 11 -6 34 -19 50 -30 17 -11 39 -24 50 -30 11 -6 34 -19 50 -30 17 -11 37
-23 45 -27 8 -3 33 -18 55 -32 61 -39 69 -44 130 -76 l56 -30 20 25 c11 14 24
34 30 45 5 11 18 35 29 52 22 37 17 60 -14 74 -11 5 -34 18 -51 29 -16 11 -39
24 -50 30 -11 6 -33 19 -50 30 -16 11 -39 24 -50 30 -11 5 -27 14 -35 20 -35
23 -171 100 -178 100 -12 1 -52 38 -52 49 0 6 20 45 45 87 25 41 45 79 45 83
0 9 -56 51 -68 51 -5 0 -15 7 -22 15 -15 18 -56 20 -64 3z"/>
<path d="M788 6163 c-20 -51 -38 -101 -48 -138 -5 -16 -14 -46 -21 -65 -6 -19
-17 -51 -24 -70 -7 -19 -18 -51 -24 -70 -32 -90 -32 -89 -2 -105 32 -16 101
-42 146 -55 17 -4 55 -18 85 -30 30 -12 69 -25 85 -30 17 -5 55 -18 85 -30 30
-12 69 -25 85 -30 17 -5 55 -18 85 -30 103 -41 120 -44 136 -23 8 10 16 29 20
43 3 14 11 41 18 60 25 66 38 105 46 135 10 37 29 90 45 130 7 17 15 44 19 61
6 27 3 35 -21 51 -35 24 -107 48 -121 39 -5 -3 -12 -16 -15 -28 -3 -13 -15
-48 -27 -78 -12 -30 -28 -75 -35 -100 -8 -25 -20 -54 -28 -63 -12 -17 -16 -17
-47 -4 -19 8 -47 20 -62 26 -27 10 -38 43 -19 55 5 3 11 18 14 33 6 34 33 111
47 135 14 24 14 24 -22 45 -49 28 -117 48 -128 37 -9 -9 -36 -78 -50 -129 -4
-16 -15 -47 -24 -68 -15 -33 -19 -37 -44 -31 -60 15 -92 45 -72 69 6 8 16 29
20 47 5 18 18 58 30 88 36 90 37 108 4 121 -16 6 -42 17 -57 25 -46 23 -62 18
-79 -23z"/>
<path d="M8035 6170 c-16 -4 -46 -14 -65 -20 -19 -7 -51 -18 -70 -25 -19 -7
-51 -18 -70 -24 -19 -7 -48 -16 -65 -21 -28 -8 -43 -13 -135 -45 -19 -7 -88
-30 -153 -50 -66 -21 -121 -44 -124 -51 -4 -12 8 -52 47 -154 12 -30 25 -68
30 -85 5 -16 18 -55 30 -85 12 -30 28 -77 36 -103 8 -26 22 -51 29 -54 17 -6
113 25 134 44 12 10 12 17 1 40 -7 15 -16 42 -21 58 -9 35 -35 111 -48 140
-25 54 -21 66 22 86 73 33 100 23 117 -43 31 -120 68 -184 92 -160 7 7 23 12
35 12 33 0 83 27 83 45 0 8 -6 29 -14 47 -27 62 -56 167 -50 182 6 15 104 50
113 40 6 -6 30 -69 41 -109 13 -46 31 -96 51 -143 21 -48 20 -47 107 -14 51
20 52 7 -3 197 -47 164 -59 200 -86 263 -10 23 -22 42 -26 41 -5 -1 -21 -5
-38 -9z"/>
<path d="M1670 2837 c-24 -18 -82 -59 -127 -92 -46 -33 -111 -79 -145 -103
-185 -126 -278 -195 -278 -206 0 -24 86 -141 104 -141 10 0 40 16 68 35 61 43
530 389 542 400 12 12 -84 140 -103 139 -9 0 -36 -15 -61 -32z"/>
<path d="M7189 2857 c-83 -31 -174 -112 -217 -195 -69 -132 -41 -278 65 -343
26 -17 50 -21 108 -21 84 0 99 7 216 94 42 31 88 60 103 64 94 23 126 -73 49
-149 -36 -37 -97 -59 -148 -55 -27 3 -32 -2 -57 -54 -42 -88 -44 -102 -13
-116 50 -23 176 -9 216 25 8 7 20 13 25 13 5 0 37 28 71 63 146 149 164 336
42 440 -44 39 -102 53 -166 41 -46 -8 -76 -24 -171 -89 -100 -68 -113 -75
-144 -75 -33 0 -68 31 -68 60 0 27 42 93 73 113 13 9 46 17 73 19 48 3 49 4
76 58 16 30 28 60 28 67 0 13 -57 41 -100 49 -14 2 -41 -2 -61 -9z"/>
<path d="M1769 2437 c-326 -341 -359 -377 -359 -388 0 -17 100 -129 115 -129
7 0 80 70 161 155 81 86 151 152 155 148 4 -4 2 -33 -6 -63 -13 -51 -21 -88
-62 -285 -8 -38 -18 -89 -24 -113 -7 -32 -6 -48 3 -61 16 -22 93 -88 121 -103
23 -12 14 -20 227 211 222 239 290 317 290 328 0 13 -119 113 -134 113 -7 0
-33 -24 -57 -52 -24 -29 -71 -81 -104 -116 -33 -35 -61 -68 -63 -73 -2 -5 -10
-9 -18 -9 -18 0 -18 46 0 130 24 106 45 212 51 265 l6 50 -69 73 c-38 39 -73
72 -78 72 -5 0 -75 -69 -155 -153z"/>
<path d="M6699 2328 c-45 -40 -105 -93 -133 -117 -28 -24 -75 -66 -105 -93
l-53 -48 17 -28 c10 -15 25 -34 34 -43 9 -9 34 -37 56 -64 65 -78 169 -200
176 -205 3 -3 38 -43 78 -89 39 -45 87 -99 106 -119 l34 -37 33 31 c18 16 80
73 138 125 57 51 134 122 170 156 l65 62 -57 57 -57 58 -77 -70 c-43 -38 -95
-86 -117 -106 -21 -21 -46 -38 -55 -38 -15 0 -82 69 -82 84 0 8 48 54 118 115
49 43 61 58 56 74 -7 23 -87 107 -100 107 -5 0 -37 -26 -70 -58 -83 -77 -113
-102 -122 -102 -11 0 -68 62 -75 82 -4 12 11 31 50 65 115 100 163 146 163
156 0 14 -68 95 -90 107 -16 9 -32 -1 -101 -62z"/>
<path d="M2449 1988 c-24 -40 -49 -84 -57 -98 -7 -14 -22 -38 -32 -55 -11 -16
-24 -39 -30 -50 -6 -11 -19 -33 -30 -50 -11 -16 -23 -37 -27 -45 -4 -8 -33
-59 -65 -113 -32 -54 -58 -102 -58 -107 0 -4 -7 -13 -15 -20 -20 -16 -19 -44
1 -61 42 -36 277 -156 349 -179 171 -55 382 68 455 264 44 116 11 251 -85 349
-37 37 -164 131 -198 146 -5 2 -38 23 -75 47 -37 24 -72 44 -78 44 -7 0 -31
-33 -55 -72z m192 -209 c28 -18 64 -50 80 -72 24 -33 29 -50 29 -99 0 -63 -14
-99 -62 -161 -60 -75 -128 -86 -233 -37 -35 16 -67 35 -70 40 -6 10 16 60 63
140 11 19 33 58 48 85 15 28 32 59 38 70 23 41 41 65 48 65 4 0 31 -14 59 -31z"/>
<path d="M6193 1932 c-69 -40 -77 -61 -45 -103 11 -13 50 -75 88 -137 38 -62
77 -125 86 -140 10 -15 22 -36 28 -47 6 -11 18 -32 28 -47 9 -14 42 -67 72
-117 63 -103 76 -109 144 -63 22 15 49 31 59 35 27 10 21 37 -31 119 -9 14
-51 81 -92 148 -41 67 -82 132 -90 145 -8 14 -46 74 -83 135 -45 72 -74 110
-85 109 -9 0 -45 -17 -79 -37z"/>
<path d="M5770 1704 c-36 -14 -76 -29 -90 -34 -14 -5 -50 -18 -80 -30 -30 -12
-66 -25 -80 -30 -61 -20 -100 -41 -100 -55 0 -8 7 -31 16 -52 9 -21 23 -53 30
-70 8 -18 20 -48 28 -65 7 -18 28 -69 46 -113 17 -44 37 -93 45 -110 7 -16 20
-50 30 -75 10 -25 23 -58 30 -75 8 -16 22 -52 33 -80 23 -56 40 -64 86 -42 17
8 51 23 76 33 25 10 46 19 48 20 5 3 -22 81 -50 144 -43 96 -43 107 -6 130 54
33 69 27 162 -68 119 -122 116 -121 207 -78 122 57 120 53 52 113 -32 28 -80
72 -108 97 -27 25 -53 46 -57 46 -12 0 -10 60 1 60 6 0 18 25 27 55 15 48 16
61 4 111 -16 66 -54 122 -112 164 -36 26 -49 30 -107 29 -45 0 -87 -8 -131
-25z m137 -181 c31 -35 31 -92 1 -120 -26 -23 -100 -57 -147 -68 -30 -6 -31
-5 -65 67 -34 69 -35 74 -18 90 24 23 119 56 167 57 31 1 44 -5 62 -26z"/>
<path d="M3140 1675 c0 -8 -6 -29 -14 -47 -7 -18 -21 -60 -31 -93 -9 -33 -23
-76 -30 -95 -7 -19 -20 -62 -30 -95 -10 -33 -24 -77 -31 -98 -21 -57 -18 -180
6 -226 59 -117 212 -196 359 -188 42 2 94 10 115 18 50 18 122 87 134 130 10
33 22 69 47 139 7 19 27 82 45 140 18 58 38 121 46 140 24 63 22 83 -11 99
-16 8 -46 18 -65 22 -19 5 -48 11 -64 15 -33 8 -56 -14 -56 -53 0 -12 -6 -37
-14 -55 -12 -30 -20 -55 -46 -158 -36 -140 -64 -211 -94 -237 -49 -42 -147
-24 -191 35 -25 33 -25 108 -1 179 9 26 30 91 46 143 16 52 37 115 44 140 26
79 24 106 -6 113 -13 3 -48 14 -78 26 -65 25 -80 26 -80 6z"/>
<path d="M4060 1466 c-105 -22 -161 -69 -184 -159 -29 -112 22 -202 151 -262
40 -19 77 -35 82 -35 21 0 108 -45 129 -67 38 -41 28 -73 -31 -94 -30 -11 -46
-11 -84 -1 -56 15 -101 46 -113 78 -9 23 -14 24 -94 24 -100 0 -111 -8 -94
-66 37 -124 178 -204 358 -203 177 1 280 89 280 242 0 49 -5 66 -26 94 -48 63
-56 69 -187 126 -21 9 -44 17 -53 17 -43 0 -124 62 -124 95 0 42 38 60 116 57
31 -2 84 -44 114 -90 l15 -23 68 17 c78 20 91 34 76 87 -19 70 -115 137 -234
163 -70 15 -91 15 -165 0z"/>
</g>
</svg>
