<?xml version="1.0" standalone="no"?>
<!DOCTYPE svg PUBLIC "-//W3C//DTD SVG 20010904//EN"
 "http://www.w3.org/TR/2001/REC-SVG-20010904/DTD/svg10.dtd">
<svg version="1.0" xmlns="http://www.w3.org/2000/svg"
 width="900.000000pt" height="900.000000pt" viewBox="0 0 900.000000 900.000000"
 preserveAspectRatio="xMidYMid meet">
<metadata>
Created by potrace 1.10, written by Peter Selinger 2001-2011
</metadata>
<g transform="translate(0.000000,900.000000) scale(0.100000,-0.100000)"
fill="#000000" stroke="none">
<path d="M4310 8531 c-52 -5 -140 -11 -195 -15 -190 -14 -429 -88 -580 -179
-51 -31 -112 -72 -167 -113 l-60 -44 -99 0 c-110 0 -169 -17 -284 -83 -79 -46
-199 -162 -267 -259 -35 -51 -65 -77 -170 -147 -321 -216 -628 -510 -874 -836
-63 -82 -154 -213 -154 -220 0 -2 -13 -23 -29 -47 -88 -133 -238 -440 -317
-650 -8 -21 -20 -55 -28 -75 -18 -47 -73 -230 -79 -263 -3 -14 -16 -70 -30
-125 -65 -266 -87 -468 -87 -814 0 -294 6 -377 46 -621 31 -195 95 -446 149
-590 84 -223 198 -469 281 -607 63 -105 84 -137 140 -223 35 -52 79 -117 98
-145 19 -27 35 -57 36 -66 0 -9 -17 -32 -39 -52 -54 -49 -55 -53 -30 -95 36
-59 44 -62 79 -29 46 42 274 213 322 241 l46 27 64 -63 c38 -38 83 -72 113
-84 64 -28 155 -54 186 -54 15 0 45 -19 79 -51 60 -56 107 -82 220 -124 66
-24 84 -36 150 -106 73 -76 127 -111 212 -139 21 -6 40 -16 43 -21 4 -5 13 -9
21 -9 27 0 144 -63 144 -78 0 -8 -22 -38 -49 -67 -70 -77 -80 -101 -130 -291
-6 -23 -18 -45 -27 -48 -20 -8 -103 35 -186 96 -95 70 -128 124 -176 293 l-9
30 -14 -25 c-9 -16 -14 -55 -14 -110 0 -92 19 -145 73 -204 33 -34 121 -94
182 -123 25 -11 110 -52 190 -91 193 -92 332 -148 500 -201 36 -12 81 -26 100
-33 19 -6 51 -15 70 -19 19 -5 73 -17 120 -28 47 -11 132 -30 190 -41 58 -11
121 -25 140 -30 20 -5 86 -17 148 -25 62 -9 121 -19 132 -23 22 -8 104 -115
144 -186 27 -49 49 -101 67 -166 37 -123 140 -240 269 -303 l85 -42 155 0
c171 0 175 1 275 75 105 79 143 139 151 241 11 136 -18 233 -113 379 -24 36
-43 70 -43 76 0 15 51 35 195 77 148 44 183 56 345 117 122 47 412 190 523
259 18 11 44 26 57 33 104 58 117 75 82 114 -33 36 -92 111 -92 117 0 3 62 57
138 120 226 189 493 473 683 727 208 278 353 537 488 875 21 51 95 280 116
355 9 36 23 85 30 110 34 118 66 293 87 465 17 145 17 627 0 765 -23 192 -57
380 -87 490 -7 25 -20 74 -30 110 -71 262 -199 568 -352 840 -58 103 -249 378
-319 460 -12 14 -52 61 -90 105 -68 80 -249 265 -334 341 -127 113 -420 322
-544 388 -76 40 -109 69 -134 117 -143 276 -379 426 -610 389 -42 -7 -92 -18
-111 -26 -57 -24 -88 -18 -149 29 -54 41 -122 84 -187 119 -38 20 -172 67
-245 85 -169 41 -429 60 -630 44z m301 -101 c295 -28 495 -94 698 -228 l54
-36 -6 -78 -6 -78 67 -77 c189 -220 254 -360 268 -583 11 -162 -45 -406 -128
-559 -102 -187 -305 -388 -349 -344 -9 9 12 94 41 168 11 29 45 174 66 280 24
121 23 397 -1 505 -41 188 -111 351 -199 465 -92 119 -229 234 -263 221 -12
-5 -1 -21 49 -70 97 -95 154 -173 211 -291 57 -116 60 -124 112 -346 10 -46
15 -118 15 -243 0 -182 -11 -263 -38 -273 -22 -9 -285 266 -394 412 -105 141
-130 151 -78 28 19 -43 40 -88 48 -100 7 -12 11 -27 7 -33 -9 -15 -100 -12
-140 4 -82 34 -214 290 -249 480 -18 97 -33 88 -72 -39 -10 -33 -30 -87 -45
-120 -24 -54 -41 -102 -70 -202 -21 -70 -42 -236 -48 -372 -4 -93 -10 -146
-17 -148 -22 -7 -100 64 -172 157 -40 52 -77 105 -83 118 -9 24 -29 22 -29 -3
0 -8 11 -49 25 -91 14 -42 25 -80 25 -85 0 -24 -41 -3 -86 44 -90 93 -154 189
-186 277 -66 182 -43 519 48 704 19 39 24 60 17 67 -21 21 -112 -143 -155
-280 -34 -112 -50 -144 -104 -206 -119 -139 -230 -331 -280 -485 -45 -137 -57
-207 -60 -359 -1 -84 -5 -155 -8 -158 -16 -17 -118 133 -148 217 -42 118 -51
175 -45 302 3 67 8 134 12 148 6 24 6 24 -17 -5 -59 -75 -102 -342 -66 -420
19 -43 -4 -52 -40 -16 -121 121 -125 342 -12 606 33 78 91 195 123 250 16 28
37 64 46 80 86 156 267 352 456 494 220 164 547 288 770 292 39 0 95 4 125 9
82 11 196 11 311 0z m1173 -267 c169 -47 302 -186 401 -418 37 -86 77 -187 96
-245 34 -105 66 -165 147 -273 42 -56 93 -136 114 -177 93 -186 103 -375 26
-507 -17 -29 -45 -49 -55 -40 -2 3 -6 48 -9 102 -5 98 -10 116 -66 255 -46
113 -158 340 -169 340 -18 0 -14 -19 62 -249 22 -66 49 -215 49 -268 0 -114
-29 -198 -122 -356 -71 -121 -71 -213 2 -427 67 -199 66 -298 -6 -420 -59
-100 -175 -202 -201 -176 -3 3 7 34 24 68 54 112 65 176 60 333 -6 172 -26
292 -66 395 -3 8 -8 -86 -12 -210 -6 -206 -8 -231 -31 -291 -62 -166 -170
-282 -313 -335 -112 -42 -156 -55 -165 -49 -6 4 -10 52 -10 115 0 60 -4 111
-8 114 -9 5 -38 -29 -63 -74 -7 -14 -16 -68 -19 -120 -5 -86 -7 -95 -26 -98
-25 -4 -43 16 -87 98 -50 95 -61 152 -47 244 21 137 75 262 168 386 63 84 79
100 175 177 138 111 234 256 276 417 17 65 21 110 21 240 0 161 -9 241 -51
426 -17 74 -28 115 -69 255 -61 210 -95 290 -156 372 -13 17 -24 35 -24 39 0
8 -71 94 -137 166 -55 61 -56 89 -5 138 29 26 56 40 103 52 84 21 120 21 193
1z m-2587 -90 c3 -7 -28 -42 -68 -80 -119 -113 -222 -247 -344 -447 -116 -191
-166 -307 -190 -441 -34 -184 -10 -291 105 -466 33 -50 65 -109 71 -131 12
-45 5 -107 -16 -134 -12 -18 -16 -17 -70 11 -67 35 -131 104 -157 169 -9 25
-21 82 -24 126 -4 44 -10 80 -13 80 -17 0 -36 -51 -65 -172 -10 -44 -29 -33
-60 35 -41 87 -56 179 -45 280 14 130 50 212 173 402 70 107 96 154 171 320
54 116 112 199 207 291 94 92 150 127 240 154 67 20 80 20 85 3z m1173 -623
c0 -21 88 -190 113 -218 27 -30 20 -40 -40 -58 -67 -20 -83 -31 -83 -51 0 -13
12 -14 68 -8 92 9 139 -5 225 -69 142 -105 247 -159 387 -201 138 -41 140 -42
140 -90 0 -23 -7 -76 -15 -116 -8 -41 -22 -105 -30 -144 -23 -113 -25 -132
-12 -149 11 -15 18 -16 62 -5 28 7 88 32 135 56 85 43 114 51 125 33 7 -11
-20 -109 -43 -158 -11 -23 -12 -36 -5 -43 8 -8 24 1 56 31 56 51 80 95 97 180
7 36 17 73 22 83 14 28 73 49 114 41 26 -5 34 -3 34 9 0 37 -37 43 -122 22
-24 -6 -28 -4 -28 14 0 12 11 39 25 61 20 31 31 40 53 40 47 0 91 -63 111
-159 30 -143 -50 -298 -219 -425 -81 -61 -120 -76 -198 -76 l-68 0 -103 -120
c-217 -255 -482 -440 -771 -541 -119 -42 -238 -46 -335 -12 -323 114 -569 279
-677 453 -67 109 -124 264 -185 510 -31 127 -36 161 -36 270 -1 229 44 311
216 390 79 36 172 55 214 44 10 -3 30 -21 43 -41 40 -58 170 -184 232 -225 58
-39 87 -47 89 -25 1 6 2 19 3 27 2 26 37 23 70 -8 55 -51 78 -62 132 -62 61 0
64 5 64 120 0 168 72 583 107 622 15 17 33 16 33 -2z m-850 -153 c7 -29 21
-78 32 -111 23 -71 19 -86 -24 -86 -52 0 -139 -32 -191 -69 -26 -19 -47 -38
-47 -43 0 -11 -28 -10 -35 2 -13 22 54 141 163 293 72 99 82 101 102 14z
m1289 -217 c44 -14 74 -31 93 -52 49 -55 30 -70 -45 -33 -88 43 -132 78 -122
95 7 12 -2 13 74 -10z m-1865 -736 c11 -27 37 -79 57 -114 36 -64 37 -67 42
-205 11 -268 69 -413 235 -586 56 -58 102 -111 102 -118 0 -26 -81 -4 -148 40
-24 16 -47 29 -53 29 -5 0 -9 5 -9 10 0 6 -7 10 -15 10 -8 0 -15 -4 -15 -9 0
-16 87 -127 120 -153 52 -41 34 -52 -75 -45 -107 6 -152 25 -225 93 -50 47
-108 150 -122 219 -16 79 -28 161 -28 203 0 29 -4 42 -12 40 -16 -6 -47 -142
-48 -213 0 -60 31 -190 50 -209 14 -14 13 -56 -1 -56 -18 0 -132 123 -150 161
-51 106 -54 121 -54 239 1 93 5 127 23 177 27 77 83 185 146 282 50 76 98 168
111 211 9 32 25 52 38 47 5 -1 19 -25 31 -53z m1959 -920 c8 -76 7 -85 -16
-131 -27 -52 -72 -98 -150 -152 -45 -31 -53 -51 -21 -51 21 0 148 65 199 101
43 31 76 69 88 102 5 14 13 17 29 11 33 -10 138 -104 138 -123 0 -35 -30 -113
-63 -163 -42 -64 -132 -153 -169 -167 -43 -16 -68 -1 -175 106 -107 107 -196
179 -261 213 -22 12 -46 28 -52 35 -14 17 -5 35 16 35 20 0 153 89 284 189 62
48 113 79 125 78 17 -2 21 -13 28 -83z m2154 -41 c2 -6 -10 -14 -28 -18 -140
-31 -339 -194 -599 -490 -310 -353 -380 -456 -380 -558 0 -53 12 -71 78 -116
74 -51 218 -200 267 -276 21 -33 54 -94 73 -135 40 -87 51 -185 34 -290 -6
-36 -16 -96 -23 -135 -6 -38 -17 -99 -24 -135 -7 -36 -16 -82 -20 -102 -7 -46
-25 -57 -110 -65 l-64 -6 -17 37 c-20 41 -37 42 -42 3 -2 -14 -9 -30 -15 -35
-10 -8 -83 -34 -137 -49 -33 -9 16 -23 63 -17 45 6 47 6 47 -18 0 -40 -28 -57
-100 -60 -46 -2 -59 -6 -45 -11 107 -44 107 -45 79 -85 -13 -18 -22 -22 -45
-17 -15 4 -36 2 -46 -4 -16 -8 -15 -10 10 -16 55 -14 20 -85 -43 -85 -30 0
-180 74 -197 97 -7 9 -13 33 -13 54 0 31 10 48 66 110 104 116 124 171 82 224
l-22 28 -16 -21 c-16 -19 -29 -21 -163 -23 -130 -2 -149 0 -167 16 -19 17 -21
17 -40 0 -25 -22 -26 -72 -3 -105 10 -14 40 -45 68 -70 90 -80 114 -110 121
-145 23 -126 -270 -222 -366 -120 -28 30 -17 54 31 61 23 4 39 12 39 20 0 11
-17 14 -69 14 -62 0 -70 2 -85 25 -31 47 -17 65 49 65 19 0 36 4 39 9 7 11
-28 21 -76 21 -40 0 -68 21 -68 50 0 17 7 18 73 13 39 -3 83 0 97 5 24 9 23
10 -15 16 -22 4 -71 14 -109 22 -38 7 -85 14 -105 14 -20 0 -72 7 -116 15 -93
17 -181 19 -190 5 -3 -5 4 -11 17 -14 13 -2 50 -9 83 -16 33 -7 83 -15 110
-19 64 -9 75 -16 75 -51 0 -27 -29 -57 -43 -44 -3 3 -34 -1 -69 -10 -34 -8
-83 -19 -108 -24 -38 -8 -24 -10 83 -11 113 -1 129 -3 147 -21 11 -11 20 -31
20 -44 0 -22 -6 -26 -47 -31 -59 -8 -98 -22 -115 -43 -11 -13 -9 -14 22 -9 19
4 65 9 102 13 l67 7 63 -59 c77 -72 100 -85 160 -95 74 -12 160 5 253 50 46
23 91 41 100 41 8 0 46 -17 83 -37 37 -20 83 -42 102 -49 19 -7 36 -17 38 -22
6 -18 -69 -92 -117 -115 -42 -20 -61 -22 -206 -21 -142 0 -166 3 -215 23 -30
12 -68 33 -85 45 -19 15 -51 25 -90 30 -93 10 -202 50 -300 109 -198 120 -281
228 -349 452 -49 164 -49 450 1 595 20 59 72 167 97 205 27 39 124 153 156
183 94 88 149 145 153 162 7 26 -22 76 -108 189 -73 96 -317 351 -335 351 -20
0 -9 -22 56 -117 74 -108 100 -156 126 -228 31 -85 24 -92 -45 -45 -25 16 -48
30 -51 30 -9 0 -7 -28 2 -32 18 -8 82 -93 82 -110 0 -13 -12 -21 -45 -29 -25
-6 -45 -16 -45 -23 0 -6 18 -28 40 -49 22 -20 40 -41 40 -45 0 -20 -142 -231
-156 -231 -21 -1 -64 40 -87 82 -19 36 -22 58 -23 157 0 103 -3 120 -26 165
-35 69 -81 211 -134 415 -36 139 -47 176 -60 208 -8 18 -14 37 -14 43 0 6 -13
37 -30 71 -33 67 -38 109 -14 129 13 10 29 5 100 -32 178 -92 225 -133 453
-389 136 -153 429 -439 456 -446 12 -3 48 1 81 10 98 24 305 39 460 33 l142
-6 119 121 c65 66 123 125 128 132 103 116 338 367 462 492 158 159 210 199
328 251 54 24 145 28 152 6z m-3007 -267 c44 -72 140 -277 140 -298 -1 -17
-27 -43 -105 -100 -102 -76 -106 -78 -163 -78 -80 0 -143 45 -188 132 -30 59
-34 186 -7 242 31 66 161 134 260 135 37 1 44 -3 63 -33z m2729 -35 c15 -10
14 -19 -14 -116 -10 -33 -21 -76 -25 -95 -8 -39 -52 -211 -77 -305 -24 -93
-52 -174 -79 -231 -20 -43 -24 -66 -24 -148 0 -100 -9 -133 -49 -185 -25 -33
-49 -21 -89 43 -18 30 -48 73 -67 96 -19 23 -35 46 -35 51 0 5 11 19 25 31 14
12 25 28 25 35 0 7 -11 18 -25 23 -33 13 -32 38 5 88 17 23 30 46 30 52 0 13
-26 13 -67 -2 -18 -6 -36 -9 -40 -5 -18 18 38 166 100 263 58 92 358 414 385
414 4 0 13 -4 21 -9z m-1091 -67 c152 -37 258 -90 317 -157 31 -35 41 -55 34
-62 -7 -7 -12 -6 -17 1 -13 19 -182 115 -265 151 -45 19 -86 39 -91 44 -6 5
-22 9 -37 9 -28 0 -44 12 -32 24 9 9 17 8 91 -10z m-2318 -54 c0 -5 -12 -13
-27 -17 -36 -8 -116 -56 -173 -101 -78 -63 -169 -162 -308 -337 -137 -172
-334 -378 -517 -540 -247 -219 -417 -421 -477 -570 -43 -107 -53 -159 -53
-285 0 -127 5 -153 51 -243 16 -32 18 -57 6 -57 -13 0 -46 50 -82 125 -34 69
-34 72 -35 205 0 117 3 145 24 205 42 125 83 200 192 348 19 26 116 127 217
225 343 331 472 464 569 586 53 66 153 178 222 247 115 115 135 130 221 172
91 44 170 61 170 37z m-156 -625 c-14 -79 -33 -175 -60 -290 -34 -149 -60
-351 -69 -530 -3 -66 -9 -136 -12 -155 -6 -35 -6 -35 -13 -8 -5 15 -13 89 -19
165 -13 155 -2 357 25 478 27 120 88 312 129 410 26 60 35 24 19 -70z m-687
-761 c86 -38 107 -51 153 -100 26 -28 58 -70 70 -94 31 -62 51 -133 40 -144
-6 -6 -43 6 -97 32 -48 22 -108 48 -133 57 -65 24 -208 55 -257 55 -23 0 -44
4 -48 9 -10 18 40 25 160 24 97 -1 130 -5 173 -22 63 -25 72 -26 72 -6 0 19
-146 164 -178 176 -13 5 -20 13 -17 19 8 14 18 13 62 -6z m4123 -59 c0 -8 13
-33 29 -57 29 -44 173 -328 184 -363 3 -11 13 -40 23 -65 79 -210 112 -468 79
-624 -16 -75 -51 -156 -67 -156 -11 0 -9 23 13 157 11 71 11 99 -4 215 -27
207 -53 294 -182 608 -60 146 -107 289 -100 300 8 13 25 3 25 -15z m-2210
-172 c1 -94 22 -262 38 -303 6 -14 20 -50 32 -80 48 -118 179 -282 302 -376
55 -43 123 -80 258 -142 82 -38 152 -99 180 -157 35 -72 26 -83 -90 -121 -91
-29 -175 -81 -242 -151 l-38 -39 -252 1 c-178 1 -253 4 -255 12 -3 7 3 25 11
42 26 50 21 121 -12 167 -34 47 -49 60 -105 89 l-42 23 0 74 c0 83 -10 102
-83 157 -80 60 -215 148 -277 179 -124 64 -125 64 -365 72 -229 8 -270 14
-327 50 -34 20 -146 164 -158 201 -17 52 71 87 355 143 211 41 296 50 520 50
230 1 270 -5 270 -39 0 -27 25 -14 63 33 63 77 189 202 204 202 10 0 13 -21
13 -87z m1938 -326 c14 -17 -30 -93 -59 -102 -31 -10 -79 13 -79 39 0 39 27
65 73 69 23 2 45 4 48 5 4 1 11 -4 17 -11z m-3371 -134 c24 -26 42 -53 41 -61
-2 -8 -31 -23 -65 -33 -84 -26 -160 -96 -207 -190 -50 -100 -61 -164 -43 -246
12 -52 12 -66 2 -70 -33 -12 -140 78 -178 151 -29 57 -28 191 2 257 25 57 101
142 154 176 54 34 143 62 201 62 46 1 52 -2 93 -46z m3273 -17 c0 -17 -69 -76
-88 -76 -8 0 -12 3 -10 8 3 4 10 21 17 39 7 17 20 34 29 36 34 9 52 7 52 -7z
m-3158 -136 c151 -35 195 -40 377 -40 l191 0 75 -35 c87 -41 233 -128 311
-186 42 -31 54 -46 52 -62 -3 -19 -9 -22 -45 -21 -23 0 -59 8 -80 16 -241 100
-314 128 -334 128 -34 0 25 -34 264 -153 346 -172 399 -209 383 -273 -7 -26
-9 -27 -66 -21 -32 4 -73 13 -92 21 -39 17 -134 53 -238 91 -71 26 -196 77
-223 91 -33 16 -77 19 -77 4 0 -15 310 -161 460 -215 60 -21 104 -36 135 -46
49 -15 78 -43 71 -66 -7 -21 -70 -53 -105 -53 -30 0 -247 55 -321 81 -19 6
-51 17 -70 24 -19 7 -62 20 -95 30 -33 9 -78 23 -100 31 -52 18 -65 18 -65 -1
0 -8 5 -15 12 -15 6 0 19 -6 27 -14 14 -12 77 -38 221 -91 19 -7 60 -20 90
-29 30 -8 88 -25 128 -37 39 -11 72 -24 72 -29 0 -16 -30 -38 -76 -56 -44 -17
-51 -17 -143 0 -53 10 -125 24 -161 32 -168 39 -199 46 -255 61 -169 43 -254
77 -340 136 -58 40 -257 242 -271 276 -26 63 -13 196 27 273 40 77 138 158
191 158 15 0 47 -5 70 -10z m3349 -66 c57 -28 139 -99 139 -120 0 -17 -20 -10
-81 30 -48 32 -140 80 -171 90 -33 10 -18 26 22 26 24 0 62 -11 91 -26z
m-1107 -624 c162 -73 259 -281 212 -455 -28 -108 -94 -175 -197 -201 -77 -20
-89 -12 -70 49 23 70 25 220 5 275 -40 109 -112 186 -224 242 -25 12 -47 24
-49 26 -9 8 28 39 74 60 66 31 186 33 249 4z m-273 -158 c80 -51 135 -136 160
-245 22 -100 -14 -194 -107 -282 -75 -71 -376 -215 -564 -268 -66 -19 -224
-32 -274 -23 -20 4 -36 13 -36 21 0 7 47 37 105 67 154 78 155 78 155 89 0 14
-37 11 -68 -5 -15 -8 -89 -35 -163 -60 -156 -53 -242 -61 -274 -26 -9 10 -15
26 -12 34 9 22 79 70 160 109 80 39 178 87 208 102 10 5 19 15 19 22 0 15 -31
17 -45 4 -6 -5 -39 -21 -75 -36 -60 -25 -191 -86 -302 -140 -66 -33 -126 -40
-171 -21 -31 12 -37 20 -37 45 0 25 10 36 73 78 39 26 77 50 82 52 6 2 26 14
46 27 19 12 76 43 125 69 145 76 214 119 214 133 0 18 -17 15 -79 -14 -79 -37
-259 -127 -306 -154 -156 -89 -197 -100 -211 -58 -5 17 7 35 72 98 167 162
410 316 579 367 52 16 94 18 319 16 214 -2 262 0 279 12 33 23 78 18 128 -13z
m-1496 -152 c137 -15 249 -31 254 -36 2 -2 -39 -48 -92 -103 -97 -100 -125
-144 -136 -216 -9 -58 -38 -69 -181 -69 -105 -1 -119 1 -160 24 -34 19 -49 36
-64 73 l-20 47 23 72 c20 62 33 82 86 135 73 73 114 94 170 87 22 -3 76 -9
120 -14z m2795 -129 c-37 -53 -139 -137 -202 -168 -113 -54 -156 -64 -269 -61
-113 3 -139 19 -49 30 127 15 315 91 448 179 24 16 47 29 53 29 5 0 9 5 9 10
0 6 7 10 16 10 13 0 12 -5 -6 -29z m-1266 -504 c150 -88 305 -262 385 -431 26
-56 31 -78 31 -141 0 -77 -19 -135 -54 -164 -25 -21 -36 -3 -36 59 0 101 -94
289 -128 255 -3 -3 11 -45 31 -95 29 -71 37 -103 37 -152 0 -79 -27 -140 -72
-168 -41 -25 -64 -25 -103 -2 l-30 19 0 109 c-1 109 -1 110 -39 173 -50 82
-62 71 -46 -43 13 -96 6 -176 -19 -207 -16 -20 -18 -20 -66 -4 -97 33 -153
100 -210 255 -45 121 -98 211 -197 335 -26 33 -48 64 -48 70 0 5 37 19 83 29
83 20 183 60 292 116 73 38 108 35 189 -13z"/>
<path d="M4479 6817 c-28 -15 -45 -31 -47 -45 -4 -25 9 -28 38 -10 35 22 33 0
-4 -45 -43 -53 -70 -113 -55 -123 6 -3 17 3 26 15 26 38 66 70 96 77 42 9 53
-8 33 -49 -23 -49 -21 -153 4 -224 47 -133 152 -169 239 -82 53 54 74 125 70
237 l-4 87 24 -3 c52 -5 100 -83 101 -159 0 -23 4 -44 9 -47 14 -9 48 26 60
63 24 72 -32 157 -148 225 -102 59 -137 69 -243 69 -86 0 -98 2 -103 19 -8 25
-42 23 -96 -5z"/>
<path d="M3495 6770 c-94 -17 -170 -76 -211 -164 -29 -62 -29 -76 -4 -126 32
-63 47 -50 48 40 2 68 53 125 126 137 39 6 39 6 32 -23 -4 -16 -10 -61 -13
-100 -4 -63 -2 -79 26 -145 74 -177 178 -200 253 -55 28 54 28 164 -1 226 -21
47 -14 74 13 51 22 -18 39 -5 25 20 -20 38 -82 100 -118 118 -43 22 -121 31
-176 21z"/>
<path d="M3972 6058 c-17 -17 -15 -32 7 -52 17 -16 20 -16 35 -1 9 9 16 22 16
29 0 15 -20 36 -35 36 -6 0 -16 -5 -23 -12z"/>
<path d="M4090 5721 c-41 -3 -75 -10 -75 -16 0 -5 16 -18 35 -28 42 -22 133
-19 157 6 21 21 10 47 -19 45 -13 -1 -57 -4 -98 -7z"/>
<path d="M5965 4060 c-7 -11 -22 -179 -24 -257 -1 -31 32 -30 52 1 22 33 23
59 8 161 -14 93 -23 116 -36 95z"/>
<path d="M5280 3997 c0 -125 28 -217 67 -217 20 0 16 91 -7 179 -32 119 -60
137 -60 38z"/>
<path d="M5005 3750 c-16 -4 -47 -8 -67 -9 -45 -1 -55 -14 -30 -39 11 -11 22
-41 26 -70 13 -98 58 -168 133 -206 38 -19 192 -22 243 -5 35 13 49 3 50 -36
0 -36 44 -110 66 -113 17 -2 25 6 38 38 15 38 15 46 -2 123 -31 134 -96 238
-175 279 -78 39 -208 57 -282 38z m72 -72 c6 -7 11 -28 11 -47 1 -38 21 -64
63 -82 41 -16 96 9 111 51 12 36 22 38 42 8 65 -93 -111 -184 -217 -113 -20
14 -43 38 -51 53 -21 41 -37 108 -30 126 7 19 57 22 71 4z"/>
<path d="M6084 3745 c-57 -18 -83 -33 -112 -64 -45 -47 -69 -95 -85 -167 -15
-64 -15 -80 -2 -155 14 -77 30 -109 56 -109 15 0 29 30 35 76 11 100 3 93 95
87 67 -5 88 -3 118 12 84 44 119 94 137 200 6 39 15 78 19 88 17 41 -161 64
-261 32z m174 -113 c4 -66 -23 -114 -79 -142 -98 -51 -226 9 -197 92 6 15 12
28 15 28 2 0 19 -16 37 -35 35 -37 66 -44 109 -24 36 16 51 51 43 99 l-6 41
37 -3 38 -3 3 -53z"/>
</g>
</svg>
