<?xml version="1.0" standalone="no"?>
<!DOCTYPE svg PUBLIC "-//W3C//DTD SVG 20010904//EN"
 "http://www.w3.org/TR/2001/REC-SVG-20010904/DTD/svg10.dtd">
<svg version="1.0" xmlns="http://www.w3.org/2000/svg"
 width="900.000000pt" height="789.000000pt" viewBox="0 0 900.000000 789.000000"
 preserveAspectRatio="xMidYMid meet">
<metadata>
Created by potrace 1.10, written by Peter Selinger 2001-2011
</metadata>
<g transform="translate(0.000000,789.000000) scale(0.100000,-0.100000)"
fill="#000000" stroke="none">
<path d="M5643 7378 c-10 -13 -31 -107 -58 -258 -16 -86 -37 -167 -61 -230 -7
-19 -15 -46 -16 -60 -6 -48 -23 -24 -41 58 -27 119 -53 107 -77 -38 -18 -105
-49 -197 -111 -329 -69 -145 -90 -196 -128 -296 -16 -44 -36 -107 -44 -140
-45 -180 -61 -560 -32 -742 8 -50 12 -99 9 -107 -5 -13 -146 -116 -160 -116
-2 0 -45 -30 -94 -66 -84 -61 -190 -166 -190 -188 0 -5 -6 -17 -13 -25 -7 -9
-21 -42 -32 -74 -10 -32 -22 -60 -27 -63 -12 -8 -78 -152 -78 -172 0 -9 -7
-37 -16 -62 -22 -63 -22 -325 0 -395 21 -66 20 -98 -3 -126 l-19 -23 -53 26
c-30 15 -66 30 -82 34 -15 3 -30 10 -33 15 -3 5 -16 9 -29 9 -13 0 -50 7 -81
15 -68 18 -91 10 -68 -23 8 -12 24 -22 34 -22 11 0 34 -6 52 -14 18 -8 74 -31
123 -51 50 -21 96 -42 103 -48 8 -6 12 -26 10 -50 l-3 -39 -129 -4 c-128 -4
-162 -12 -138 -36 13 -13 88 -27 158 -27 103 -2 131 -27 141 -127 l5 -51 -38
-6 c-39 -7 -266 -19 -694 -37 -234 -11 -888 -23 -1825 -34 -504 -7 -550 -4
-697 34 -24 6 -70 18 -103 27 -87 21 -166 44 -195 55 -72 29 -224 68 -288 74
-68 7 -195 -21 -272 -60 -74 -37 -145 -102 -193 -176 -49 -74 -62 -105 -88
-210 -23 -91 -24 -128 -4 -205 35 -133 96 -213 206 -269 39 -20 85 -52 102
-72 60 -69 89 -95 131 -116 88 -47 136 -58 247 -58 99 0 108 -2 145 -27 111
-77 166 -93 323 -93 137 0 180 9 376 75 109 37 111 37 180 25 94 -17 463 -27
1490 -39 473 -6 988 -15 1145 -21 157 -5 385 -10 508 -10 122 0 300 -5 395
-11 94 -5 275 -13 401 -17 149 -5 231 -11 233 -18 2 -6 -37 -18 -99 -28 -172
-30 -283 -81 -379 -176 -125 -123 -186 -322 -147 -478 27 -109 130 -231 230
-274 27 -11 59 -32 71 -47 34 -40 116 -109 151 -127 56 -29 187 -56 241 -50
33 4 58 1 75 -9 61 -34 110 -52 182 -69 73 -17 80 -17 164 0 168 33 269 98
380 244 79 105 119 133 236 169 81 25 206 51 238 51 14 0 57 6 95 14 121 25
198 39 255 46 166 20 363 73 480 128 128 60 220 157 291 310 22 45 39 88 39
94 0 6 6 34 14 62 15 50 32 168 61 421 32 275 18 649 -32 840 -35 136 -102
295 -124 295 -20 0 -20 -33 0 -216 36 -328 28 -725 -25 -1164 -25 -204 -57
-292 -142 -383 -116 -124 -201 -154 -697 -251 -142 -28 -259 -46 -293 -46 -54
0 -239 -48 -317 -82 -48 -20 -111 -70 -133 -103 -10 -16 -36 -56 -57 -87 -92
-143 -202 -208 -351 -208 -99 0 -147 19 -190 75 -24 32 -26 43 -26 116 0 70 4
90 31 144 17 35 47 77 66 94 56 48 43 78 -24 57 -85 -26 -182 -173 -195 -295
-7 -76 -17 -91 -63 -91 -93 0 -173 39 -226 111 -27 37 -32 53 -35 115 -6 110
42 237 118 316 65 66 44 89 -43 48 -91 -43 -153 -129 -183 -252 -9 -40 -18
-79 -20 -85 -5 -20 -19 -16 -49 15 -80 79 -85 215 -12 356 31 60 113 137 182
170 85 41 155 55 317 62 143 7 225 22 343 64 33 12 74 25 90 30 17 5 77 26
135 46 58 20 123 40 145 45 22 4 58 12 80 17 64 16 213 40 295 49 101 10 390
10 465 0 33 -4 66 -4 73 1 21 14 3 41 -36 53 -210 63 -305 80 -484 86 -96 3
-167 0 -236 -11 -124 -20 -212 -21 -212 -3 0 16 91 107 107 107 16 0 37 40 26
51 -4 4 -26 4 -48 -1 -130 -30 -323 12 -488 108 -31 18 -55 37 -52 43 4 5 37
9 75 9 70 0 302 31 355 48 17 5 57 18 90 28 68 21 225 99 294 146 65 44 209
192 254 261 21 32 56 92 77 135 83 166 101 242 109 468 6 186 7 192 51 234 11
10 65 86 77 107 12 21 25 58 69 198 10 33 39 89 63 125 25 36 69 112 99 170
30 58 59 111 64 118 12 14 67 8 108 -13 92 -46 122 -63 181 -106 36 -27 88
-72 115 -101 44 -47 164 -202 164 -212 0 -2 17 -30 39 -62 42 -64 128 -231
156 -304 9 -25 23 -60 31 -78 8 -18 14 -39 14 -47 0 -8 6 -29 14 -47 8 -18 22
-60 32 -93 10 -33 21 -64 25 -69 28 -34 67 191 56 319 -6 65 -58 206 -109 295
-4 8 -11 22 -15 30 -20 45 -105 177 -168 260 -145 191 -303 310 -529 396 -26
11 -51 25 -54 33 -3 7 2 57 11 110 9 53 24 159 33 236 19 169 34 223 81 294
56 85 128 158 268 266 70 55 76 64 50 85 -12 10 -25 9 -67 -5 -29 -10 -66 -24
-81 -32 -15 -8 -35 -12 -43 -9 -18 7 97 147 269 326 145 152 171 185 163 206
-10 25 -77 9 -186 -46 -85 -43 -157 -84 -212 -121 -33 -21 -62 -39 -64 -39
-12 0 -287 -214 -493 -383 -109 -90 -474 -349 -518 -369 -49 -21 -403 -277
-432 -311 -16 -21 -54 -22 -89 -3 -91 47 -348 136 -394 136 -13 0 -45 7 -72
15 -27 8 -62 15 -78 15 -47 0 -84 26 -106 72 -37 83 -82 191 -82 199 0 5 -16
44 -36 86 -20 43 -54 114 -74 159 -21 44 -53 123 -72 175 -33 93 -33 96 -32
264 0 94 6 195 13 225 18 80 41 285 41 360 0 99 -27 306 -45 340 -16 32 -36
38 -52 18z m-239 -985 c3 -16 8 -64 11 -108 12 -173 87 -562 142 -741 18 -56
13 -81 -14 -90 -25 -8 -70 -28 -223 -97 -34 -16 -59 -22 -66 -16 -19 15 -39
208 -39 369 1 254 35 419 140 668 21 48 41 54 49 15z m2422 -680 c12 -133 10
-256 -4 -391 -17 -169 -44 -263 -116 -411 -65 -133 -67 -136 -119 -200 -53
-63 -59 -75 -83 -161 -34 -124 -132 -269 -222 -328 -13 -8 -30 -28 -38 -44
-14 -27 -13 -32 5 -66 62 -115 64 -122 58 -201 -22 -264 -132 -484 -322 -644
-38 -32 -81 -64 -95 -72 -64 -35 -172 -85 -182 -85 -7 0 -30 -6 -53 -14 -108
-37 -199 -49 -385 -49 -102 0 -249 6 -327 13 -184 16 -269 7 -513 -55 -111
-29 -218 -36 -315 -20 -144 23 -200 48 -271 121 -49 50 -93 156 -75 178 34 40
134 26 219 -33 82 -55 106 -70 122 -77 8 -3 23 -10 33 -15 55 -30 151 -50 225
-47 75 3 77 4 77 28 0 23 -5 26 -50 31 -204 24 -426 163 -470 294 -20 61 -13
107 19 129 13 8 57 27 96 40 103 36 140 67 140 115 0 26 -7 44 -22 59 -25 23
-139 82 -160 82 -7 0 -22 7 -32 15 -11 8 -29 15 -40 15 -26 0 -126 32 -126 40
0 4 17 27 38 51 48 55 126 159 135 179 4 8 11 22 16 30 45 77 57 215 23 280
-64 123 -158 214 -244 234 -41 9 -35 36 21 103 68 81 74 86 235 193 13 8 61
38 107 65 46 28 93 55 104 62 11 7 30 17 43 23 13 5 46 21 75 34 97 44 166 68
282 97 85 21 383 24 494 4 114 -19 203 -41 249 -61 18 -8 37 -14 43 -14 6 0
25 -6 42 -14 18 -7 45 -18 60 -25 43 -17 42 -35 -6 -87 -48 -52 -62 -89 -47
-128 20 -53 88 -73 178 -52 113 26 187 81 468 347 71 68 156 147 189 174 32
28 77 66 99 86 109 95 310 239 333 239 6 0 16 7 23 15 7 8 23 15 35 15 22 0
24 -5 31 -97z m-3073 -1070 c14 -16 14 -23 -4 -73 -24 -69 -25 -175 -1 -242 9
-27 36 -72 59 -99 l42 -49 -42 -63 c-78 -114 -110 -193 -111 -273 -1 -69 0
-72 39 -118 86 -102 85 -101 85 -208 0 -98 0 -99 -27 -109 -44 -17 -91 -15
-119 7 -67 50 -128 227 -122 354 3 65 9 86 47 160 49 96 50 115 12 245 -40
137 -34 240 21 385 30 77 47 100 77 100 15 0 35 -8 44 -17z m97 -76 c0 -12 -7
-31 -15 -41 -32 -43 -9 -166 39 -205 24 -20 20 -43 -6 -39 -13 2 -35 21 -52
48 -28 41 -30 51 -31 138 0 87 2 95 24 113 27 22 41 17 41 -14z m-4135 -1087
c73 -20 208 -63 260 -81 17 -6 46 -14 65 -19 19 -4 46 -12 60 -17 46 -19 174
-43 284 -53 239 -22 1603 -9 2276 21 129 6 350 15 490 19 140 5 284 12 321 16
64 6 66 6 97 -26 37 -37 72 -107 72 -144 0 -73 55 -159 235 -370 181 -212 182
-213 161 -234 -16 -16 -129 -17 -1519 -14 -1567 3 -1512 1 -1744 43 -52 10
-70 9 -120 -6 -32 -10 -67 -23 -78 -30 -11 -6 -29 -14 -40 -18 -11 -3 -45 -15
-75 -27 -86 -34 -231 -52 -310 -39 -89 15 -144 48 -172 104 -28 54 -30 87 -9
147 25 74 44 103 108 165 29 29 53 57 53 63 0 17 -59 11 -101 -11 -50 -25
-119 -93 -143 -140 -10 -18 -26 -67 -37 -108 -10 -41 -23 -79 -29 -85 -6 -6
-43 -10 -83 -10 -56 1 -84 7 -128 28 -98 47 -168 136 -169 214 0 44 29 170 48
207 27 54 63 93 113 125 50 33 61 53 34 64 -42 16 -136 -25 -194 -85 -54 -56
-85 -120 -107 -216 -11 -51 -23 -83 -30 -83 -37 0 -103 126 -103 199 -3 183
121 349 299 403 73 22 131 22 215 -2z"/>
<path d="M7428 5282 c-1 -5 -61 -57 -133 -117 -71 -60 -132 -111 -135 -115 -3
-3 -30 -25 -60 -50 -64 -52 -50 -40 -174 -153 -66 -62 -96 -96 -96 -111 0 -14
19 -41 51 -71 56 -53 92 -106 159 -230 58 -109 67 -114 126 -63 70 62 174 224
174 272 0 20 -7 27 -35 35 -20 5 -51 7 -69 4 -60 -9 -52 14 36 105 109 113
158 175 158 197 0 15 -7 17 -52 12 -29 -3 -65 -9 -81 -13 -24 -6 -26 -4 -20
12 4 11 19 35 35 54 62 78 146 198 153 219 5 17 2 21 -13 21 -11 0 -22 -4 -24
-8z"/>
<path d="M5074 4832 c-25 -18 -44 -86 -44 -157 0 -65 3 -76 21 -86 26 -14 32
-6 47 56 19 80 25 132 18 158 -6 26 -27 40 -42 29z"/>
<path d="M5830 4673 c-8 -4 -49 -32 -91 -64 -81 -61 -159 -150 -159 -180 0
-54 98 -18 193 70 105 99 141 206 57 174z"/>
<path d="M5880 4354 c-25 -7 -53 -14 -63 -14 -10 0 -60 -20 -110 -44 -73 -35
-108 -60 -166 -118 -40 -40 -85 -91 -100 -113 -14 -22 -45 -66 -68 -97 -40
-53 -55 -98 -33 -98 17 0 124 61 184 106 65 48 79 49 123 8 28 -26 48 -38 123
-74 68 -33 222 -34 306 -2 109 42 217 148 249 245 8 26 20 35 63 51 88 31 73
50 -83 99 -221 71 -324 83 -425 51z m318 -120 c40 -16 40 -33 1 -98 -78 -129
-217 -195 -346 -166 -112 24 -163 64 -163 126 0 34 6 48 36 78 19 20 40 34 45
31 5 -4 9 -24 9 -46 0 -51 31 -112 65 -127 86 -40 180 25 212 145 8 32 19 63
25 70 11 13 66 7 116 -13z"/>
<path d="M5525 3532 c-16 -4 -31 -15 -33 -24 -5 -26 56 -38 188 -38 104 0 160
-6 358 -41 67 -12 82 -8 66 18 -10 17 -56 34 -172 64 -82 21 -348 35 -407 21z"/>
<path d="M5462 3371 c-8 -4 -12 -16 -10 -25 4 -20 66 -48 263 -116 150 -52
145 -51 145 -30 0 11 -11 25 -24 32 -108 58 -222 111 -267 123 -30 8 -63 17
-74 20 -11 3 -26 1 -33 -4z"/>
</g>
</svg>
