<?xml version="1.0" standalone="no"?>
<!DOCTYPE svg PUBLIC "-//W3C//DTD SVG 20010904//EN"
 "http://www.w3.org/TR/2001/REC-SVG-20010904/DTD/svg10.dtd">
<svg version="1.0" xmlns="http://www.w3.org/2000/svg"
 width="900.000000pt" height="900.000000pt" viewBox="0 0 900.000000 900.000000"
 preserveAspectRatio="xMidYMid meet">
<metadata>
Created by potrace 1.10, written by Peter Selinger 2001-2011
</metadata>
<g transform="translate(0.000000,900.000000) scale(0.100000,-0.100000)"
fill="#000000" stroke="none">
<path d="M4467 8304 c-4 -4 -7 -62 -7 -128 0 -67 -5 -177 -10 -246 -20 -263
-23 -308 -17 -332 6 -23 13 -25 109 -36 57 -7 169 -12 250 -12 167 0 150 -9
163 91 9 71 -4 77 -171 86 l-139 8 -3 50 c-2 28 4 151 13 274 9 122 13 227 8
231 -11 10 -187 23 -196 14z"/>
<path d="M3875 8276 c-38 -6 -75 -14 -82 -19 -6 -4 -15 -29 -18 -55 -7 -53
-28 -164 -51 -262 -8 -36 -14 -75 -14 -88 0 -13 -6 -51 -14 -85 -16 -72 -35
-163 -46 -227 -10 -57 0 -71 43 -59 18 5 50 9 72 9 22 0 45 4 52 8 6 4 16 43
22 87 6 44 16 84 21 89 12 12 97 24 173 25 46 1 59 -2 63 -16 28 -84 50 -124
71 -129 26 -7 175 15 195 27 10 7 10 12 1 26 -7 10 -24 41 -39 68 -14 28 -54
104 -89 170 -35 66 -100 193 -145 283 -93 184 -73 171 -215 148z m97 -323 c25
-50 38 -87 32 -92 -5 -5 -31 -11 -59 -13 l-50 -3 -3 45 c-2 25 -1 73 3 108 8
79 19 73 77 -45z"/>
<path d="M3183 8116 c-35 -18 -65 -35 -69 -39 -3 -3 1 -18 9 -34 8 -15 23 -48
32 -73 10 -25 23 -58 30 -75 42 -97 65 -158 61 -163 -8 -7 -21 0 -161 92 -49
33 -116 79 -147 103 -31 24 -67 43 -79 43 -28 0 -169 -66 -169 -79 0 -5 6 -22
14 -38 8 -15 22 -47 30 -70 28 -74 48 -127 61 -158 13 -29 33 -82 61 -157 30
-82 47 -124 60 -156 8 -18 14 -40 14 -50 0 -9 9 -28 19 -41 17 -22 20 -23 57
-11 21 7 54 19 72 26 18 8 39 14 47 14 19 0 20 53 1 88 -8 15 -21 47 -31 72
-17 46 -30 78 -59 143 -35 82 -18 86 76 17 38 -27 71 -50 74 -50 3 0 23 -13
43 -29 76 -59 173 -121 191 -121 10 0 22 4 25 10 3 5 30 21 60 35 71 34 77 43
61 85 -13 36 -19 50 -68 158 -15 34 -28 66 -28 71 0 5 -8 24 -17 43 -24 47
-25 51 -86 194 -80 185 -79 184 -102 183 -11 -1 -48 -16 -82 -33z"/>
<path d="M5593 8100 c-49 -24 -105 -90 -121 -144 -8 -29 -8 -51 0 -89 13 -55
56 -104 161 -184 76 -57 87 -70 87 -103 0 -38 -29 -60 -79 -60 -54 0 -117 46
-129 93 -8 30 -12 33 -80 46 -84 16 -102 8 -102 -44 0 -32 29 -106 52 -135 20
-24 90 -75 123 -89 94 -41 215 -52 278 -26 50 21 104 71 128 116 25 51 25 137
0 187 -23 44 -89 109 -147 145 -60 37 -94 71 -94 95 0 24 35 52 65 52 38 -1
90 -35 106 -68 8 -19 22 -38 30 -43 23 -14 135 -11 148 5 30 36 -33 156 -107
203 -99 62 -238 81 -319 43z"/>
<path d="M6211 7859 c-18 -29 -31 -59 -29 -67 2 -9 33 -34 70 -56 36 -23 69
-44 73 -47 6 -7 -7 -42 -33 -81 -9 -15 -72 -118 -140 -230 l-123 -202 23 -19
c13 -10 32 -22 43 -28 11 -5 35 -19 54 -30 l35 -21 18 24 c11 13 23 32 29 43
5 11 18 34 29 50 11 17 24 39 30 50 6 11 19 34 30 50 11 17 24 39 30 50 6 11
19 34 30 50 11 17 24 39 30 50 6 11 19 34 30 50 11 17 24 40 30 53 17 40 36
41 95 2 68 -44 115 -57 115 -30 0 5 14 29 30 53 17 25 30 47 30 50 0 5 -118
77 -125 77 -2 0 -21 12 -42 26 -21 14 -47 30 -58 35 -11 5 -33 18 -50 29 -16
11 -37 23 -45 27 -8 3 -33 18 -55 32 -56 35 -103 61 -113 61 -5 0 -23 -23 -41
-51z"/>
<path d="M2305 7623 c-164 -93 -335 -214 -335 -238 0 -7 25 -49 56 -92 322
-453 359 -503 373 -503 13 0 141 100 141 110 0 10 -103 157 -135 193 -18 21
-12 52 12 61 9 4 71 -21 148 -59 73 -36 139 -65 148 -65 27 0 171 123 165 141
-2 6 -26 20 -53 31 -28 11 -63 26 -80 33 -16 7 -47 20 -68 29 -21 9 -44 16
-51 16 -7 0 -21 9 -30 19 -15 16 -16 23 -5 42 6 13 12 53 12 90 0 86 -34 147
-105 192 -37 23 -152 23 -193 0z m98 -181 c10 -9 17 -29 17 -53 0 -32 -7 -43
-51 -83 -28 -25 -54 -46 -58 -46 -18 0 -101 97 -101 117 0 12 87 76 115 84 25
8 55 1 78 -19z"/>
<path d="M6830 7381 c-152 -42 -257 -141 -310 -296 -46 -134 -8 -270 105 -373
133 -122 271 -143 440 -68 52 24 166 140 192 196 58 125 65 191 32 285 -47
133 -137 215 -288 259 -66 20 -89 19 -171 -3z m192 -181 c19 -11 45 -34 58
-52 21 -28 25 -44 25 -103 -1 -64 -4 -76 -35 -122 -43 -63 -110 -115 -170
-132 -63 -17 -114 2 -157 58 -29 37 -33 50 -33 104 0 78 27 135 89 188 88 76
162 96 223 59z"/>
<path d="M1638 7073 c-51 -60 -120 -136 -152 -170 -82 -85 -82 -86 -43 -118
17 -15 50 -44 72 -64 22 -20 105 -95 185 -166 204 -182 221 -198 239 -217 21
-24 43 -23 66 5 63 74 211 241 245 275 8 8 25 29 38 46 l23 31 -58 52 c-32 29
-61 53 -65 53 -9 0 -29 -20 -82 -84 -128 -152 -121 -149 -190 -89 -36 32 -45
56 -26 68 14 9 140 167 140 175 0 9 -91 90 -101 90 -7 0 -94 -99 -129 -147
-13 -18 -30 -35 -38 -38 -14 -5 -92 63 -92 82 0 5 14 24 31 43 69 75 149 171
149 178 0 12 -94 102 -107 102 -6 0 -53 -48 -105 -107z"/>
<path d="M7534 6747 c-28 -19 -57 -37 -65 -40 -8 -4 -26 -15 -40 -25 -15 -9
-59 -37 -98 -62 -40 -25 -84 -53 -99 -62 -15 -10 -36 -22 -47 -28 -11 -6 -54
-33 -95 -60 -41 -28 -85 -54 -98 -60 -29 -12 -23 -37 21 -95 66 -86 66 -86 96
-65 41 29 145 95 161 104 18 8 40 22 97 59 24 15 47 27 53 27 12 0 13 -27 1
-34 -4 -3 -25 -41 -45 -83 -21 -43 -41 -85 -46 -93 -41 -72 -110 -221 -110
-238 0 -28 90 -152 110 -152 9 0 21 5 27 11 11 11 36 26 78 49 11 6 34 19 50
30 17 11 39 24 50 30 11 6 32 18 47 28 14 9 81 51 148 92 66 41 133 83 148 92
15 10 36 22 47 27 50 22 50 35 -7 110 -29 39 -57 71 -61 71 -10 0 -253 -146
-278 -167 -19 -16 -39 -17 -39 -1 0 7 43 98 95 203 52 105 95 199 95 208 0 29
-102 157 -125 157 -11 0 -43 -15 -71 -33z"/>
<path d="M1264 6628 c-4 -6 -21 -39 -39 -72 -38 -73 -102 -189 -126 -231 -10
-16 -30 -52 -44 -80 -14 -27 -33 -61 -40 -75 -8 -14 -15 -32 -15 -40 0 -12 68
-59 113 -79 11 -4 31 23 64 86 15 29 32 54 39 57 6 2 128 -54 270 -125 l259
-130 19 26 c10 14 31 51 46 81 l28 55 -24 15 c-23 16 -211 113 -392 204 -46
23 -86 48 -89 57 -5 13 16 62 64 146 19 33 16 56 -9 67 -13 6 -36 19 -53 29
-35 23 -61 26 -71 9z"/>
<path d="M916 5968 c-8 -13 -19 -41 -25 -63 -9 -37 -15 -57 -46 -145 -7 -19
-21 -62 -30 -95 -10 -33 -24 -76 -31 -95 -32 -86 -28 -102 30 -119 17 -5 56
-19 86 -31 30 -12 66 -25 80 -30 14 -5 50 -18 80 -30 30 -12 66 -25 80 -30 14
-5 50 -18 80 -30 30 -12 69 -26 85 -30 17 -5 58 -19 92 -31 35 -13 66 -20 69
-16 9 9 132 368 145 425 17 68 19 67 -118 89 -28 4 -33 2 -33 -16 0 -11 -6
-35 -14 -53 -7 -18 -21 -60 -31 -93 -32 -110 -30 -108 -78 -101 -84 14 -102
44 -74 123 59 165 60 180 10 189 -21 4 -53 8 -72 8 -37 1 -38 -2 -89 -164 -19
-62 -22 -65 -49 -62 -15 2 -41 11 -58 21 -33 19 -35 38 -11 101 24 63 38 104
45 135 4 17 13 41 20 54 19 34 6 70 -27 76 -15 4 -42 13 -60 21 -41 18 -39 18
-56 -8z"/>
<path d="M8015 5954 c-22 -8 -51 -19 -65 -24 -14 -5 -50 -18 -80 -30 -30 -12
-69 -26 -87 -31 -18 -5 -35 -14 -38 -19 -4 -6 -15 -10 -27 -10 -11 0 -32 -6
-46 -14 -26 -13 -73 -32 -152 -61 -63 -23 -125 -49 -133 -55 -4 -3 9 -53 28
-111 20 -57 40 -118 44 -135 5 -18 12 -37 16 -44 4 -7 11 -26 15 -44 12 -47
48 -138 60 -150 6 -6 17 -6 32 1 13 6 45 21 71 33 37 17 47 26 41 39 -3 9 -11
30 -17 46 -14 41 -34 98 -51 143 -8 20 -18 51 -21 69 -6 30 -4 33 41 52 83 37
90 31 129 -104 36 -123 42 -128 109 -95 66 32 71 41 52 97 -10 27 -21 62 -25
78 -4 17 -13 40 -19 52 -28 52 -8 83 58 86 40 2 42 0 56 -38 9 -22 19 -53 24
-70 14 -51 31 -98 49 -135 14 -30 21 -35 46 -32 17 2 49 11 73 20 46 18 47 21
22 92 -7 19 -18 51 -25 70 -7 19 -18 51 -24 70 -7 19 -17 49 -21 65 -26 91
-70 200 -82 202 -7 1 -31 -4 -53 -13z"/>
<path d="M7395 3141 c-155 -28 -274 -203 -243 -358 18 -91 59 -140 136 -163
37 -11 54 -11 91 -1 44 12 68 25 213 118 90 58 128 61 152 14 14 -26 13 -32
-8 -72 -34 -62 -61 -79 -140 -87 l-68 -7 -15 -40 c-28 -74 -28 -92 1 -110 30
-20 119 -16 181 8 65 25 146 105 183 180 28 59 32 76 32 150 0 78 -2 86 -33
130 -60 85 -126 115 -206 95 -44 -11 -146 -73 -201 -122 -38 -34 -77 -56 -99
-56 -21 0 -51 35 -51 58 0 42 79 102 134 102 12 0 30 6 39 13 19 13 43 125 30
138 -12 12 -84 18 -128 10z"/>
<path d="M1619 3102 c-13 -10 -31 -22 -39 -25 -8 -4 -27 -15 -42 -25 -33 -21
-310 -192 -341 -210 -12 -7 -35 -22 -52 -32 -16 -11 -40 -24 -52 -30 -33 -14
-29 -48 13 -119 36 -60 58 -73 81 -50 11 11 36 26 78 49 11 6 34 19 50 30 17
11 39 24 50 30 11 6 32 18 47 28 15 9 89 55 165 101 162 100 182 113 183 124
0 12 -72 130 -85 139 -16 12 -31 9 -56 -10z"/>
<path d="M1784 2738 c-101 -78 -227 -180 -234 -188 -3 -3 -34 -28 -70 -55 -89
-67 -180 -146 -180 -156 0 -5 22 -32 50 -61 27 -29 50 -56 50 -60 0 -18 37 -5
70 23 19 16 79 63 132 104 53 41 99 79 103 85 11 18 25 11 25 -12 0 -12 -6
-40 -14 -63 -8 -22 -22 -67 -31 -100 -10 -33 -22 -71 -28 -85 -5 -14 -13 -38
-17 -55 -5 -16 -17 -53 -28 -81 -13 -36 -16 -56 -10 -68 14 -25 118 -126 130
-126 11 0 4 -6 341 274 130 108 237 199 237 202 0 3 -26 31 -58 64 l-58 58
-32 -15 c-18 -9 -51 -32 -75 -52 -58 -50 -192 -151 -200 -151 -11 0 -8 60 5
83 6 12 15 38 19 57 4 19 17 67 29 105 62 204 62 199 -12 273 l-64 62 -80 -62z"/>
<path d="M6787 2447 c-103 -100 -187 -186 -187 -190 0 -5 60 -66 133 -135 72
-70 193 -186 267 -259 75 -73 143 -133 152 -133 9 0 33 19 54 43 20 23 100
107 176 186 76 79 138 147 138 151 0 9 -69 72 -105 96 l-27 18 -107 -112 c-58
-62 -110 -112 -116 -112 -15 0 -95 74 -95 87 0 7 32 46 72 88 96 101 102 110
87 132 -7 10 -30 34 -52 53 l-39 34 -79 -84 c-43 -47 -79 -88 -79 -92 0 -5
-11 -8 -24 -8 -24 0 -96 58 -96 77 0 6 47 56 104 112 58 55 108 105 111 111 7
11 -75 120 -90 119 -5 0 -94 -82 -198 -182z"/>
<path d="M2346 2098 c-31 -46 -84 -121 -117 -168 -33 -47 -80 -114 -105 -150
-24 -36 -62 -90 -84 -120 -51 -71 -51 -90 3 -126 23 -16 44 -32 47 -35 15 -16
161 -119 195 -137 66 -34 123 -52 163 -52 43 0 147 31 164 48 7 7 17 12 23 12
7 0 33 21 60 48 127 124 172 277 124 417 -19 54 -134 169 -232 231 -43 27 -98
64 -122 82 -24 17 -48 32 -53 32 -5 0 -35 -37 -66 -82z m207 -214 c72 -56 92
-97 83 -171 -10 -87 -81 -173 -168 -204 -31 -10 -44 -10 -80 1 -56 19 -148 72
-148 86 0 6 34 58 75 115 41 57 93 130 116 162 22 31 46 57 52 57 7 0 38 -21
70 -46z"/>
<path d="M6370 2083 c-19 -14 -51 -42 -71 -61 l-37 -34 47 -67 c25 -37 65 -94
89 -127 23 -32 76 -106 117 -164 136 -192 187 -260 194 -260 5 0 19 9 32 21
13 12 43 35 67 52 48 35 51 48 19 91 -13 17 -44 60 -69 96 -52 76 -121 175
-192 278 -28 40 -55 81 -61 90 -26 45 -80 112 -89 112 -6 0 -27 -12 -46 -27z"/>
<path d="M5895 1763 c-22 -4 -50 -15 -170 -63 -185 -74 -225 -94 -225 -109 0
-7 16 -48 36 -90 20 -42 49 -103 64 -136 33 -72 82 -177 140 -300 23 -49 49
-107 58 -127 17 -39 29 -44 60 -29 31 15 87 39 105 45 9 3 20 12 23 20 5 13
-55 153 -102 238 -13 25 -13 28 7 42 28 19 33 17 181 -95 70 -54 126 -89 140
-89 34 0 192 84 196 103 2 10 -2 17 -8 17 -6 0 -37 19 -68 43 -31 23 -90 65
-130 92 -41 27 -76 53 -79 58 -3 5 6 21 19 35 59 64 74 158 38 236 -22 49 -69
98 -102 108 -26 7 -152 8 -183 1z m69 -194 c31 -37 33 -58 5 -92 -22 -29 -110
-77 -140 -77 -14 0 -28 18 -49 63 -17 35 -30 68 -30 74 0 5 17 17 38 25 114
47 142 48 176 7z"/>
<path d="M3099 1708 c-7 -13 -16 -36 -20 -53 -4 -16 -17 -55 -29 -85 -12 -30
-25 -68 -30 -85 -5 -16 -18 -55 -30 -85 -12 -30 -25 -69 -29 -85 -4 -17 -13
-40 -19 -52 -7 -12 -12 -57 -12 -100 1 -71 4 -82 33 -125 82 -120 244 -184
385 -154 98 21 135 59 194 196 8 19 22 51 30 70 9 19 23 55 33 80 10 25 23 59
30 75 7 17 21 50 30 75 10 25 23 57 31 72 31 59 14 84 -67 98 -30 4 -61 11
-70 15 -17 7 -36 -25 -72 -120 -25 -67 -77 -196 -111 -275 -47 -111 -103 -141
-190 -105 -44 19 -70 64 -63 114 8 55 18 89 77 241 12 30 25 69 30 85 5 17 18
55 29 85 12 30 21 59 21 65 0 5 -20 18 -43 28 -23 10 -55 24 -70 32 -39 20
-54 19 -68 -7z"/>
<path d="M5200 1524 c-14 -2 -60 -11 -102 -19 -159 -31 -234 -45 -273 -50 -22
-3 -67 -12 -100 -19 l-60 -13 3 -69 c2 -38 7 -73 11 -77 8 -8 129 4 193 19 23
5 28 2 32 -17 16 -82 38 -201 51 -271 9 -46 23 -114 31 -153 8 -38 14 -82 14
-96 0 -44 21 -53 93 -40 103 20 99 17 92 69 -3 26 -12 79 -20 117 -28 145 -36
192 -46 255 -5 36 -14 78 -19 94 -6 16 -10 41 -10 56 0 26 3 27 98 45 53 9
103 19 110 21 12 3 11 61 -4 132 -4 22 -24 26 -94 16z"/>
<path d="M4115 1484 c-114 -24 -160 -51 -203 -118 -35 -56 -37 -164 -5 -216
38 -62 66 -81 233 -159 56 -26 74 -41 83 -64 12 -31 -3 -64 -37 -82 -31 -17
-35 -17 -82 0 -58 22 -90 48 -98 81 -6 24 -9 25 -89 22 l-82 -3 -3 -44 c-4
-51 25 -102 88 -152 62 -50 128 -69 243 -69 108 0 133 8 195 65 54 48 72 93
72 180 0 103 -29 149 -135 212 -22 14 -33 18 -90 40 -106 40 -130 66 -105 112
9 17 20 21 65 21 52 0 56 -2 91 -44 36 -44 37 -44 70 -30 18 8 44 14 58 14 13
0 34 8 45 18 21 16 21 19 7 52 -32 77 -93 121 -206 151 -67 18 -80 20 -115 13z"/>
</g>
</svg>
