<svg xmlns="http://www.w3.org/2000/svg" width="1130" height="1130" viewBox="0 0 1130 1130" version="1.1"><path d="M 529 23.554 C 507.159 25.081, 498.691 26.233, 485.094 29.525 C 472.610 32.548, 452.934 39.836, 444.125 44.700 C 436.780 48.756, 418.518 60.693, 412.856 65.139 C 409.439 67.822, 408.630 68, 399.856 68.008 C 394.710 68.012, 387.575 68.474, 384 69.035 C 376.383 70.229, 361.690 76.950, 353.553 82.961 C 345.459 88.940, 332.232 102.334, 325.431 111.438 C 319.262 119.694, 316.133 122.331, 294.582 137.427 C 247.327 170.528, 196.556 224.395, 166.730 273.074 C 142.330 312.897, 121.363 361.705, 111.129 402.500 C 98.841 451.487, 96.530 471.009, 96.573 525.500 C 96.606 568.018, 97.545 579.509, 103.628 611.843 C 110.388 647.775, 117.689 672.356, 130.633 702.762 C 146.837 740.823, 154.952 755.491, 183.634 798.566 C 188.785 806.302, 193 813.169, 193 813.825 C 193 814.481, 190.525 817.710, 187.500 821 C 184.475 824.290, 182 827.611, 182 828.378 C 182 830.578, 188.323 839.447, 190.136 839.792 C 191.036 839.963, 194.411 837.920, 197.636 835.251 C 206.314 828.071, 222.249 816.180, 232.730 809.064 L 241.960 802.796 249.730 809.983 C 254.004 813.935, 259.389 818.285, 261.699 819.650 C 266.786 822.655, 280.793 827.487, 287.070 828.402 C 290.656 828.925, 293.240 830.374, 299.070 835.132 C 308.227 842.605, 312.803 845.329, 322.429 849.036 C 334.749 853.780, 338.043 855.870, 347.486 864.935 C 352.444 869.694, 357.993 874.633, 359.818 875.910 C 363.256 878.317, 375.076 883.597, 385.502 887.383 C 391.338 889.502, 401.013 895.385, 400.987 896.798 C 400.980 897.184, 398.242 900.650, 394.903 904.500 C 387.724 912.777, 384.030 920.067, 380.464 933 C 376.687 946.696, 376.091 948.003, 373.629 947.978 C 370.283 947.944, 363.512 944.501, 355.172 938.594 C 340.834 928.438, 336.056 921.722, 330.921 904.500 C 327.929 894.467, 326.268 893.238, 324.166 899.500 C 322.327 904.975, 323.135 923.088, 325.454 928.407 C 330.911 940.920, 340.388 947.440, 380.567 966.323 C 425.469 987.427, 459.193 998.609, 506.500 1008.081 C 514.750 1009.733, 523.150 1011.523, 525.166 1012.058 C 527.183 1012.594, 536.183 1014.111, 545.166 1015.429 L 561.500 1017.826 565.505 1022.239 C 575.232 1032.957, 584.755 1049.853, 588.053 1062.246 C 590.445 1071.233, 596.124 1080.243, 604.941 1089.039 C 611.992 1096.074, 615.315 1098.509, 623.802 1102.860 L 634.104 1108.141 655.302 1107.821 C 676.397 1107.502, 676.524 1107.486, 681.500 1104.698 C 688.903 1100.549, 698.443 1092.645, 702.988 1086.896 C 708.582 1079.819, 710.486 1072.902, 710.392 1060 C 710.280 1044.648, 707.591 1037.353, 693.652 1014.584 C 691.026 1010.295, 690.316 1008.324, 691.070 1007.416 C 692.367 1005.853, 702.352 1002.319, 720.500 996.999 C 728.200 994.742, 740.742 990.623, 748.370 987.847 C 784.496 974.699, 848 941.100, 848 935.133 C 848 934.607, 844.857 930.199, 841.015 925.338 C 837.174 920.477, 834.024 916.182, 834.015 915.793 C 834.007 915.404, 841.763 908.379, 851.250 900.181 C 927.816 834.021, 980.151 759.591, 1008.100 677.112 C 1019.388 643.799, 1026.268 616.701, 1030.724 588 C 1033.385 570.856, 1033.441 569.554, 1033.470 524 C 1033.500 478.142, 1033.461 477.237, 1030.692 458.500 C 1017.374 368.372, 980.487 286.692, 922.534 219 C 908.198 202.255, 879.503 173.619, 867 163.580 C 847.952 148.285, 817.224 126.748, 806.968 121.503 C 798.658 117.254, 792.375 111.919, 789.009 106.256 C 772.440 78.370, 756.995 64.299, 735.052 57.095 C 726.158 54.175, 711.257 54.200, 700.410 57.153 C 686 61.076, 684.600 60.940, 676 54.786 C 656.864 41.093, 643.653 34.860, 621.500 29.073 C 608.157 25.588, 600.005 24.377, 580.813 23.030 C 562.913 21.775, 553.005 21.875, 529 23.554 M 540.852 36.481 C 540.587 36.746, 533.650 37.390, 525.435 37.913 C 494.726 39.866, 467.480 48.380, 438.410 65.108 C 423.746 73.546, 407.221 86.888, 391.943 102.626 C 378.788 116.175, 369.372 128.745, 359.824 145.500 C 340.709 179.045, 332.413 201.300, 331.308 222 C 330.675 233.862, 331.760 240.727, 335.579 249 C 339.575 257.657, 349.543 266.579, 347.590 259.750 C 344.436 248.721, 344.900 235.530, 349.009 219.465 C 351.427 210.010, 356.825 199.492, 358.434 201.101 C 358.763 201.429, 358.542 208.296, 357.943 216.360 C 356.636 233.976, 357.700 245.034, 361.908 257.556 C 364.882 266.407, 372.204 279.566, 377.656 285.858 L 380.812 289.500 381.343 287 C 381.635 285.625, 382.109 276.850, 382.397 267.500 C 382.992 248.121, 384.643 238.084, 389.708 223.053 C 396.188 203.821, 410.585 178.176, 423.802 162.323 C 431.851 152.668, 434.846 147.278, 438.151 136.500 C 441.762 124.724, 452.790 101.486, 456.357 98.134 C 458.884 95.760, 461 95.944, 461 98.539 C 461 99.320, 459.249 104.356, 457.108 109.730 C 450.765 125.653, 448.754 136.606, 448.239 158.021 C 447.557 186.353, 450.619 198.497, 462.940 216.319 C 468.085 223.762, 482.829 239, 484.885 239 C 486.440 239, 486.376 238.605, 482.938 227.115 C 481.254 221.486, 480.017 215.895, 480.188 214.691 C 480.644 211.486, 483.163 212.016, 485.479 215.805 C 494.580 230.687, 514.295 252.038, 516.709 249.624 C 517.065 249.269, 517.732 243.695, 518.191 237.239 C 520.957 198.381, 523.484 183.841, 530.644 165.609 C 532.611 160.599, 536.171 151.005, 538.555 144.288 C 543.779 129.567, 544.679 127.789, 546.698 128.190 C 547.801 128.409, 549.232 132.327, 551.560 141.500 C 557.800 166.098, 570.084 190.096, 579.777 196.629 C 584.817 200.025, 599 201.019, 599 197.976 C 599 197.487, 596.750 192.184, 594 186.193 C 588.849 174.969, 587.921 171, 590.450 171 C 591.976 171, 592.802 171.947, 608.889 192.150 C 621.029 207.396, 651.115 238.459, 653.107 237.804 C 656.594 236.659, 657.376 230.267, 657.366 203 L 657.356 176.500 653.093 160.067 C 645.438 130.557, 635.474 112.360, 615.587 91.567 C 604.353 79.821, 605.578 76.242, 618.005 84.503 C 626.332 90.039, 640.342 104.587, 646.473 114.064 C 655.937 128.695, 664.212 148.654, 668.627 167.506 C 671.339 179.083, 671.359 224.409, 668.658 237 C 665.600 251.250, 661.046 269.005, 657.944 278.762 C 656.325 283.856, 655 288.933, 655 290.043 C 655 299.009, 675.178 283.003, 689.850 262.400 C 708.925 235.613, 719.099 196.466, 714.607 167.142 C 710.910 143.003, 704.399 129.538, 685.045 106 C 671.452 89.468, 672.157 90.959, 672.996 80.500 C 673.393 75.550, 673.534 71.170, 673.310 70.767 C 672.512 69.329, 658.713 60.876, 650.123 56.562 C 628.778 45.842, 605.512 39.578, 577.500 37.010 C 566.206 35.975, 541.712 35.621, 540.852 36.481 M 704.230 71.550 C 701.332 72.331, 697.732 73.613, 696.230 74.399 C 692.775 76.209, 687.410 81.867, 686.607 84.549 C 685.859 87.044, 689.350 92.487, 698.438 103 C 707.656 113.663, 717.779 129.089, 722.063 139 C 729.031 155.121, 741.029 197.122, 745.201 220 C 747.177 230.836, 747.482 235.828, 747.490 257.500 C 747.499 280.593, 747.326 283.102, 745.213 290.395 C 738.665 313.002, 729.663 325.370, 701.468 350.497 C 681.695 368.119, 666.871 396.679, 665.294 420.191 C 664.578 430.878, 666.905 439.162, 673.901 450.830 C 677.598 456.995, 679.029 458.561, 681.193 458.811 C 684.254 459.164, 684.112 459.652, 685.860 442.699 C 686.621 435.308, 687.486 431.846, 689.377 428.619 C 692.434 423.403, 694.491 421.591, 696.487 422.357 C 697.731 422.834, 698.003 425.295, 698.015 436.219 C 698.024 443.523, 698.402 450.085, 698.855 450.799 C 699.503 451.822, 701.863 451.348, 709.925 448.574 C 734.636 440.072, 746.447 429.849, 757.023 407.808 C 762.117 397.192, 762.817 392.439, 763.767 362 C 764.384 342.213, 764.735 338.500, 765.985 338.500 C 767.741 338.500, 770.245 346.938, 772.661 361 C 774.798 373.438, 775.117 409.399, 773.150 416 C 772.412 418.475, 770.022 424.708, 767.839 429.852 C 765.656 434.995, 764.103 439.437, 764.388 439.722 C 766.989 442.322, 779.939 431.175, 787.191 420.093 C 797.052 405.022, 798.444 390.655, 791.993 370.500 C 784.577 347.330, 782.833 339.135, 783.223 329.298 L 783.588 320.096 792.815 301.798 C 797.890 291.734, 802.708 280.818, 803.521 277.540 C 806.840 264.162, 804.120 243.857, 795.488 217.580 C 790.020 200.937, 788.941 195, 791.383 195 C 793.237 195, 806.501 221.344, 814.509 240.932 C 819.818 253.916, 821.549 261.312, 822.543 275.250 C 823.011 281.813, 823.632 285, 824.445 285 C 826.710 285, 829.914 280.467, 832.586 273.480 C 838.959 256.814, 836.008 232.679, 825.191 213 C 821.820 206.867, 819.117 202.757, 805.794 183.500 C 800.545 175.913, 794.826 164.295, 792.012 155.500 C 789.287 146.983, 780.604 126.044, 775.862 116.551 C 763.369 91.545, 748.668 77.427, 729.068 71.612 C 722.476 69.655, 711.370 69.628, 704.230 71.550 M 383.288 83.524 C 372.964 86.776, 364.671 92.314, 353.385 103.491 C 339.939 116.808, 334.297 125.058, 323.758 146.816 C 315.380 164.111, 312.191 169.774, 300.002 189 C 285.628 211.672, 282.500 221.056, 282.500 241.500 C 282.500 256.423, 283.963 263.108, 289.267 272.422 C 292.351 277.839, 293.684 277.930, 294.987 272.815 C 299.047 256.871, 301.842 250.472, 303.861 252.500 C 304.408 253.050, 305.336 257.775, 305.922 263 C 306.508 268.225, 307.452 274.154, 308.020 276.176 C 309.445 281.245, 316.352 291.322, 320.807 294.830 C 324.555 297.782, 334.168 303, 335.858 303 C 337.390 303, 340.001 295.249, 339.990 290.730 C 339.979 285.816, 336.979 278.910, 330.520 268.924 C 319.169 251.379, 315.039 239.677, 315.016 225 C 314.989 208.073, 318.505 194.033, 327.412 175.500 C 340.901 147.430, 361.544 117.485, 381.656 96.812 C 388.445 89.833, 394 83.645, 394 83.062 C 394 81.645, 388.502 81.882, 383.288 83.524 M 541.431 165.511 C 536.647 176.961, 530.180 215.773, 529.102 239.500 C 528.248 258.318, 527.927 259, 519.915 259 C 513.083 259, 510.138 257.746, 503.517 252.014 C 497.768 247.039, 495.356 246.841, 494.219 251.250 C 493.666 253.396, 492.691 254.602, 491.348 254.799 C 487.364 255.385, 474.524 245.353, 460.208 230.470 L 446.290 216 441.539 216 C 431.232 216, 413.457 223.119, 403.948 231.056 C 399.078 235.120, 394.722 242.774, 393.099 250.118 C 391.356 258.009, 390.798 273.307, 391.882 283.500 C 393.075 294.714, 399.901 322.830, 405.478 339.500 C 410.400 354.212, 418.747 371.279, 424.438 378.264 C 437.687 394.529, 456.086 407.823, 482.536 420.243 C 514.854 435.418, 531.002 436.504, 558.308 425.337 C 579.969 416.478, 598.919 405.282, 616.583 390.908 C 629.357 380.512, 634.519 375.417, 649.665 358.250 L 663.119 343 671.049 343 C 680.649 343, 686.409 341.028, 695.225 334.724 C 711.750 322.909, 722.889 307.318, 725.137 292.859 C 726.116 286.557, 726.036 284.258, 724.609 277.845 C 721.616 264.393, 714.386 256.552, 708.519 260.396 C 705.932 262.091, 702 268.768, 702 271.466 C 702 272.787, 703.203 272.919, 710.270 272.376 C 717.191 271.844, 718.758 272.004, 719.882 273.357 C 722.397 276.388, 720.521 278, 714.482 278 C 708.419 278, 703.661 279.897, 702.016 282.971 C 701.442 284.043, 700.258 288.426, 699.385 292.710 C 698.512 296.995, 696.689 302.750, 695.335 305.500 C 692.177 311.912, 683.353 321, 680.284 321 C 677.253 321, 677.342 319.210, 680.860 309.441 C 684.701 298.778, 685.357 295.074, 683.529 294.373 C 682.740 294.070, 678.360 295.482, 673.797 297.511 C 649.348 308.384, 646.405 309.262, 643.654 306.511 C 641.302 304.159, 641.566 300.681, 645.555 281.500 C 647.500 272.150, 649.359 260.837, 649.686 256.361 C 650.392 246.709, 652.021 248.114, 632.537 241.575 C 613.908 235.324, 604.924 230.848, 587.835 219.303 C 579.951 213.976, 571.925 209.049, 570 208.353 C 568.042 207.645, 561.811 207.068, 555.857 207.044 C 547.467 207.009, 545.095 206.690, 544.652 205.537 C 543.855 203.459, 548.344 200.246, 554.574 198.436 C 562.229 196.210, 562.813 195.043, 559.029 189.542 C 555.486 184.393, 547.839 169.844, 546.193 165.123 C 544.772 161.046, 543.244 161.171, 541.431 165.511 M 427.611 180.142 C 418.505 190.780, 403 216.503, 403 220.971 C 403 223.914, 404.549 223.492, 409.821 219.112 C 417.041 213.113, 428.841 208, 435.465 208 C 437.199 208, 439.455 207.388, 440.479 206.639 C 442.276 205.325, 442.228 204.884, 439.088 193.889 C 434.118 176.487, 433.939 176, 432.500 176 C 431.761 176, 429.561 177.864, 427.611 180.142 M 594 210.373 C 594 212.265, 600.886 217.085, 609.224 221.029 C 618.683 225.504, 620.404 224.808, 615.027 218.683 C 612.041 215.283, 603.310 210.782, 597.250 209.518 C 594.703 208.988, 594 209.172, 594 210.373 M 560.840 244.022 C 558.827 245.085, 556.224 247.171, 555.055 248.657 C 553.221 250.989, 553.124 251.553, 554.348 252.777 C 555.478 253.907, 556.215 253.956, 557.969 253.017 C 561.808 250.962, 561.463 252.800, 556.708 259.748 C 550.255 269.178, 548.718 274, 552.167 274 C 552.744 274, 555.610 271.568, 558.535 268.595 C 561.776 265.302, 565.093 262.919, 567.026 262.494 C 571.856 261.434, 572.604 262.950, 570.520 269.575 C 569.152 273.925, 568.857 277.255, 569.254 283.873 C 570.660 307.285, 585.141 320.303, 599.327 310.907 C 608.900 304.566, 612.374 295.954, 612.297 278.750 C 612.246 267.227, 612.288 267, 614.487 267 C 620.168 267, 625.615 275.157, 626.864 285.533 C 627.746 292.861, 628.072 293.429, 630.875 292.540 C 636.545 290.740, 639.195 279.032, 635.524 272 C 632.245 265.719, 622.697 257.582, 612.765 252.605 C 602.245 247.334, 596.441 246, 584.018 246 C 576.580 246, 575.046 245.708, 573.500 244 C 571.174 241.429, 565.730 241.439, 560.840 244.022 M 428.500 251.335 C 415.622 255.566, 403 270.292, 403 281.085 C 403 286.577, 406.650 293.194, 409.458 292.792 C 411.222 292.540, 411.586 291.538, 412.132 285.428 C 412.480 281.539, 413.486 276.962, 414.367 275.257 C 416.757 270.636, 424.346 266, 429.522 266 C 431.743 266, 431.888 266.277, 431.225 269.250 C 430.826 271.038, 430.500 277.450, 430.500 283.500 C 430.500 294.223, 430.599 294.709, 434.423 302.782 C 438.393 311.165, 444.359 318.027, 448.941 319.481 C 455.195 321.466, 462.862 316.004, 467.165 306.500 C 470.245 299.698, 470.246 287.073, 467.167 278.633 C 464.805 272.157, 465.069 270.432, 468.168 272.090 C 470.810 273.504, 472.460 271.962, 471.665 268.823 C 470.782 265.334, 460.655 255.496, 455.253 252.878 C 449.460 250.071, 434.905 249.231, 428.500 251.335 M 354.176 304.238 C 351.333 311.426, 343.556 326.038, 337.258 336.021 C 323.880 357.230, 318.373 371.158, 317.410 386.216 C 316.075 407.113, 320.413 419.895, 333.599 433.912 C 337.784 438.360, 341.836 442, 342.604 442 C 344.553 442, 344.344 438.600, 342.123 434.210 C 337.294 424.661, 335.708 406.800, 338.509 393.500 C 341.645 378.612, 344.467 376.689, 345.481 388.750 C 346.552 401.497, 348.911 413.977, 351.425 420.200 C 358.636 438.052, 370.446 449.240, 384.994 451.999 C 391.326 453.200, 404.680 453.326, 405.382 452.192 C 405.656 451.747, 403.139 448.485, 399.787 444.942 C 389.812 434.399, 385.024 426, 388.988 426 C 389.467 426, 392.703 427.893, 396.179 430.207 C 402.750 434.579, 412.222 438.935, 415.250 438.976 C 418.690 439.023, 416.853 435.989, 406.685 424.825 C 381.659 397.349, 376.708 385.088, 374.077 344.072 L 373.151 329.644 367.692 318.572 C 364.690 312.482, 361.455 305.813, 360.503 303.750 C 358.242 298.852, 356.245 299.006, 354.176 304.238 M 494.750 342.080 C 492.243 343.540, 492.592 347.268, 495.490 349.990 C 497.895 352.250, 498.046 352.269, 499.964 350.533 C 505.686 345.354, 501.309 338.260, 494.750 342.080 M 508.500 385.906 C 498.900 386.869, 497.560 388.715, 504.056 392.029 C 511.568 395.861, 525.055 394.551, 526.549 389.844 C 528.019 385.215, 524.044 384.348, 508.500 385.906 M 601.834 420.061 C 597.800 422.844, 588.650 429.353, 581.500 434.525 C 574.350 439.697, 565.688 445.362, 562.250 447.114 C 558.813 448.866, 556 450.612, 556 450.995 C 556 452.079, 558.906 454.291, 566.500 458.986 C 575.259 464.401, 581.349 469.463, 596.424 483.856 C 608.998 495.862, 613.167 498.990, 616.600 498.996 C 619.414 499.001, 625.472 494.492, 632.965 486.816 C 639.543 480.078, 647.542 465.811, 648.651 458.839 C 649.198 455.398, 648.887 454.847, 643.487 449.700 C 640.327 446.688, 636.029 443.261, 633.937 442.085 L 630.133 439.947 627.108 444.344 C 622.227 451.438, 615.031 457.138, 603.764 462.834 C 587.775 470.917, 582.922 468.852, 595.500 459.318 C 604.465 452.523, 610.145 446.348, 612.993 440.302 C 614.971 436.103, 615.178 434.496, 614.648 427.500 C 613.534 412.817, 612.881 412.438, 601.834 420.061 M 881.242 429.110 C 874.784 430.186, 861.389 436.799, 854 442.559 C 843.953 450.391, 816.480 478.282, 786.061 511.532 C 777.020 521.414, 762.907 536.319, 754.700 544.653 L 739.777 559.806 720.138 559.269 C 698.924 558.690, 682.742 559.794, 664.278 563.082 C 654.061 564.901, 652.790 564.943, 650.095 563.549 C 645.464 561.154, 608.696 524.678, 587.604 501.555 C 563.912 475.580, 554.643 467.735, 536.717 458.482 C 525.056 452.464, 523.044 451.718, 521.631 452.891 C 519.106 454.986, 519.678 460.159, 523.377 468.702 C 528.571 480.696, 532.353 492.470, 538.898 517.015 C 544.636 538.534, 548.796 551.386, 554.270 564.500 C 556.400 569.603, 556.877 572.731, 557.456 585.418 C 558.044 598.303, 558.459 600.973, 560.504 605.008 C 562.908 609.752, 569.417 616.361, 571.124 615.792 C 572.534 615.322, 584.522 598.292, 587.983 591.841 L 591.020 586.183 585.905 580.586 C 583.092 577.508, 581.009 574.430, 581.277 573.745 C 581.545 573.060, 584.068 571.694, 586.882 570.709 C 589.697 569.724, 592 568.413, 592 567.796 C 592 566.145, 586.430 557.753, 583.519 555.018 C 581.045 552.694, 580.082 549, 581.950 549 C 582.472 549, 585.510 550.574, 588.700 552.497 C 591.890 554.421, 594.894 555.996, 595.375 555.997 C 598.751 556.007, 588.860 535.068, 577.434 518.015 C 569.406 506.033, 567.779 502, 570.974 502 C 571.544 502, 576.349 506.387, 581.652 511.750 C 609.901 540.317, 628 563.528, 628 571.189 C 628 573.834, 625.891 576.439, 613.662 588.895 C 605.776 596.928, 596.625 606.924, 593.327 611.108 C 583.929 623.030, 575.913 640.727, 572.848 656.320 C 571.258 664.405, 571.259 696.400, 572.850 706 C 576.234 726.428, 585.068 746.358, 595.996 758.218 C 611.477 775.019, 636.479 788.839, 657 791.937 C 661.125 792.560, 666.300 794.020, 668.500 795.181 C 686.662 804.764, 687.669 805, 710.434 805 C 732.637 805, 735.910 804.079, 744.956 795.287 C 749.055 791.303, 751.063 788.664, 750.456 788.060 C 748.397 786.008, 724.747 775, 722.399 775 C 721.029 775, 716.604 776.547, 712.566 778.437 C 700.584 784.047, 691.546 786.439, 682.500 786.394 C 671.966 786.341, 667.622 784.332, 656.935 774.574 L 648.500 766.871 640.500 767.468 C 636.100 767.796, 630.085 768.343, 627.134 768.684 C 621.970 769.279, 621.809 769.226, 622.855 767.272 C 624.185 764.785, 629.761 762.474, 636.700 761.532 C 643.413 760.621, 644.559 759.273, 642.601 754.587 C 641.777 752.614, 640.967 750.930, 640.801 750.845 C 640.635 750.760, 633.859 750.422, 625.742 750.095 C 617.112 749.747, 610.964 749.088, 610.936 748.509 C 610.878 747.314, 627.997 743.109, 633.179 743.045 C 637.462 742.993, 640 740.884, 640 737.378 C 640 733.994, 636.586 732.734, 620 729.996 C 612.575 728.770, 605.631 727.310, 604.570 726.752 C 602.688 725.762, 602.687 725.702, 604.511 724.368 C 605.540 723.616, 607.984 722.999, 609.941 722.997 C 620.108 722.989, 673.104 730.771, 674.864 732.530 C 675.140 732.807, 674.806 733.588, 674.121 734.267 C 673.267 735.112, 669.595 735.442, 662.438 735.315 C 652.855 735.145, 652 735.282, 652 736.993 C 652 740.157, 654.582 741.671, 661.143 742.357 C 664.609 742.719, 668.099 743.671, 668.900 744.471 C 670.605 746.176, 670.368 746.293, 662.500 747.643 C 656.726 748.633, 655.566 751.004, 658.861 755.081 C 660.571 757.196, 661.865 757.563, 669.149 758 C 675.900 758.405, 677.541 758.818, 677.799 760.175 C 678.036 761.419, 676.880 762.199, 673.309 763.205 C 667.245 764.912, 666.489 767.551, 670.979 771.329 C 676.604 776.062, 683.260 776.970, 693.913 774.459 C 705.121 771.817, 714.051 765.628, 715.609 759.423 C 716.808 754.644, 714.825 751.501, 703.042 739.509 C 696.552 732.904, 690.738 726.517, 690.121 725.316 C 688.394 721.950, 688.786 717.542, 691.073 714.635 C 693.389 711.690, 696.126 711.242, 698 713.500 C 699.025 714.735, 702.543 715, 717.948 715 C 736.605 715, 736.657 714.994, 739 712.500 C 740.292 711.125, 741.704 710, 742.138 710 C 742.573 710, 744.069 711.679, 745.464 713.732 C 750.480 721.114, 748.174 727.421, 734.592 743.471 C 730.416 748.405, 726.932 753.355, 726.849 754.471 C 726.519 758.910, 727.256 762.590, 728.826 764.342 C 731.184 766.973, 749.985 776, 753.108 776 C 759.383 776, 763.999 767.791, 758.500 766.411 C 757.125 766.066, 756 765.177, 756 764.437 C 756 762.993, 762.213 761.396, 763.863 762.415 C 764.409 762.753, 766.088 761.968, 767.595 760.672 C 771.305 757.480, 770.304 755.466, 763.512 752.463 C 760.481 751.122, 758 749.666, 758 749.227 C 758 748.788, 761.679 747.937, 766.176 747.335 C 774.814 746.178, 777.365 744.537, 776.788 740.507 C 776.531 738.715, 775.857 738.530, 770.500 738.783 C 764.351 739.073, 760.671 737.867, 762.508 736.165 C 763.054 735.659, 765.975 734.482, 769 733.548 C 779.414 730.332, 780.118 729.890, 782.071 725.335 C 783.093 722.951, 784.325 721, 784.809 721 C 785.954 721, 789 724.371, 789 725.638 C 789 726.177, 789.564 727.390, 790.254 728.333 C 791.381 729.874, 792.320 729.935, 799.477 728.940 C 803.860 728.330, 808.210 727.423, 809.143 726.923 C 811.548 725.636, 812.418 722.332, 817.018 697 C 821.955 669.817, 822.807 658.355, 820.646 648.217 C 818.812 639.611, 811.626 624.446, 805.246 615.718 C 798.898 607.032, 782.964 590.902, 773.804 583.886 C 769.571 580.645, 765.409 576.994, 764.554 575.774 C 762.394 572.690, 762.559 563.181, 764.878 557.078 C 768.610 547.256, 781.192 530.404, 806.219 501.704 C 842.729 459.836, 867.830 438.518, 888.250 432.035 C 890.313 431.381, 892 430.482, 892 430.039 C 892 429.313, 888.234 427.876, 887 428.131 C 886.725 428.187, 884.134 428.628, 881.242 429.110 M 483.690 463.446 C 473.052 467.200, 464.968 473.537, 462.927 479.722 C 461.226 484.874, 461.523 500.578, 463.421 505.857 C 467.624 517.551, 477.126 524.992, 488.252 525.300 C 495.448 525.500, 497.555 524.472, 510.500 514.447 C 522.217 505.373, 522.579 504.874, 521.075 499.858 C 519.521 494.668, 508.267 470.931, 504.667 465.250 C 502.007 461.051, 501.906 461, 496.237 461.021 C 492.784 461.034, 487.789 461.999, 483.690 463.446 M 839.011 482.750 C 821.299 500.753, 809.247 515.046, 803.382 525 C 798.643 533.043, 793.151 546.297, 792.246 551.872 C 791.703 555.216, 791.756 555.277, 794.595 554.626 C 801.693 552.999, 804.764 552.809, 805.471 553.953 C 805.879 554.614, 804.614 557.705, 802.601 560.968 C 798.365 567.830, 798.118 570.190, 801.447 571.972 C 802.793 572.692, 804.141 573.926, 804.443 574.713 C 805.163 576.589, 803.461 579.683, 800.977 581.012 C 798.111 582.546, 798.500 584.249, 803.128 590.438 C 805.399 593.474, 809.111 598.751, 811.378 602.165 C 818.125 612.325, 820.368 612.444, 825.282 602.899 C 827.747 598.110, 828.160 595.904, 828.912 583.498 C 829.690 570.659, 830.052 568.828, 833.283 561.388 C 837.536 551.595, 846.309 520.130, 857.287 475.293 C 858.342 470.987, 857.257 468, 854.639 468 C 854.024 468, 846.992 474.637, 839.011 482.750 M 705.694 476.639 C 704.604 477.730, 706.012 479, 708.309 478.999 C 710.796 478.997, 716.820 481.669, 735.475 491.050 C 747.300 496.997, 752.152 499.824, 758.750 504.611 C 760.878 506.156, 761 506.135, 761 504.237 C 761 503.057, 758.329 499.731, 754.525 496.172 C 746.652 488.807, 737.431 484.229, 720.869 479.462 C 708.388 475.870, 706.765 475.568, 705.694 476.639 M 404.500 485.884 C 384.426 493.158, 374.090 502.152, 338.839 543.023 C 327.316 556.383, 307.553 577.055, 281.978 602.500 C 260.418 623.950, 240.868 643.750, 238.534 646.500 C 227.983 658.932, 217.803 676.696, 211.887 693 C 209.714 698.990, 209.527 701.033, 209.514 719.053 L 209.500 738.606 213.869 747.053 C 216.272 751.699, 219.416 757.073, 220.856 758.994 C 224.674 764.089, 224.825 760.728, 221.158 752.309 C 219.527 748.564, 217.701 743.700, 217.101 741.500 C 215.452 735.449, 215.737 712.190, 217.569 703.320 C 222.565 679.135, 237.632 657.494, 272.166 624.905 C 313.031 586.342, 333.195 565.095, 359.962 532.395 C 371.545 518.245, 382.113 507.071, 389.645 501.012 C 397.744 494.497, 409.095 487.516, 413.310 486.458 C 414.790 486.087, 416 485.382, 416 484.892 C 416 483.419, 409.833 483.951, 404.500 485.884 M 394.272 558.199 C 391.155 564.988, 382.262 592.820, 379.478 604.500 C 376.636 616.420, 375.334 626.316, 374.479 642.500 C 373.840 654.574, 375.359 685.026, 376.874 690.538 L 377.688 693.500 378.305 690.500 C 378.644 688.850, 379.184 682.325, 379.506 676 C 380.915 648.279, 384.271 623.009, 389.997 597 C 395.401 572.453, 397.198 561.977, 396.786 557.429 L 396.430 553.500 394.272 558.199 M 752.158 600.310 C 750.970 601.741, 749.765 610.819, 748.588 627.196 C 747.801 638.149, 750.592 640.540, 756.511 633.982 C 758.149 632.167, 758.486 630.430, 758.420 624.139 C 758.327 615.127, 756.357 602.871, 754.622 600.498 C 753.541 599.020, 753.247 598.997, 752.158 600.310 M 663.416 603.596 C 662.665 607.600, 663.573 619.909, 665.169 627.351 C 665.789 630.243, 667.381 633.474, 669.110 635.351 C 671.968 638.453, 672.035 638.470, 673.592 636.500 C 677.407 631.675, 670.401 600, 665.520 600 C 664.671 600, 663.817 601.460, 663.416 603.596 M 625 640.640 C 619.775 641.463, 615.053 642.575, 614.507 643.112 C 613.851 643.755, 614.122 645.148, 615.305 647.209 C 616.291 648.926, 617.744 653.406, 618.535 657.164 C 621.125 669.477, 625.803 677.037, 633.708 681.683 C 638.085 684.256, 639.510 684.531, 650.150 684.852 C 656.557 685.046, 663.832 684.771, 666.316 684.241 C 668.800 683.712, 671.255 683.553, 671.771 683.889 C 672.287 684.225, 673.268 686.854, 673.950 689.732 C 675.581 696.608, 680.320 703.237, 683.302 702.813 C 686.809 702.314, 690.204 694.628, 689.403 689 C 687.579 676.180, 679.867 658.648, 672.846 651.360 C 663.739 641.907, 644.424 637.579, 625 640.640 M 770.389 640.488 C 762.148 642.281, 757.214 644.959, 752.268 650.326 C 741.192 662.342, 737.549 679.904, 742.583 697.020 C 746.219 709.382, 751.683 708.893, 753.979 696 C 754.615 692.425, 755.339 688.487, 755.587 687.250 C 756.021 685.086, 756.449 684.999, 766.769 684.978 C 778.474 684.954, 782.616 683.744, 788.770 678.549 C 793.959 674.169, 796.805 668.181, 799.526 655.919 L 802.060 644.500 800.019 642.830 C 795.486 639.124, 781.679 638.032, 770.389 640.488 M 630.101 649.917 C 629.053 650.580, 628.868 652.023, 629.365 655.651 C 630.274 662.283, 633.750 668.803, 638.306 672.419 C 646.027 678.548, 662.618 676.507, 666.527 668.947 C 668.304 665.512, 668.364 663.893, 666.839 660.547 C 665.294 657.156, 663.397 657.332, 661.477 661.044 C 655.739 672.140, 640.408 668.918, 638.427 656.200 C 637.452 649.934, 634.085 647.394, 630.101 649.917 M 781 655.066 C 781 662.159, 780.012 664.425, 776.020 666.490 C 770.905 669.135, 766.749 668.439, 761.435 664.048 C 758.805 661.875, 756.281 660.326, 755.827 660.607 C 754.658 661.329, 754.799 667.756, 756.033 670.062 C 758.796 675.224, 770.341 677.556, 777.768 674.452 C 785.723 671.128, 789 665.937, 789 656.657 C 789 649.794, 788.421 649, 783.418 649 C 781.126 649, 781 649.317, 781 655.066 M 301 662.812 C 301 663.259, 302.242 664.542, 303.761 665.665 C 309.327 669.780, 323.151 683.392, 324.590 686.173 C 325.929 688.763, 325.910 689.097, 324.388 689.682 C 323.462 690.037, 321.309 689.753, 319.603 689.051 C 311.813 685.846, 306.143 685, 292.532 685.014 C 278.578 685.027, 274 685.522, 274 687.015 C 274 687.445, 277.262 688.113, 281.250 688.500 C 293.582 689.696, 313.813 695.426, 326.988 701.454 C 333.654 704.504, 339.817 707, 340.682 707 C 343.043 707, 341.661 700.036, 337.585 691.393 C 332.503 680.615, 323.118 671.183, 312.369 666.051 C 304.026 662.068, 301 661.206, 301 662.812 M 838 670.377 C 838 673.650, 844.524 692.308, 853.865 715.754 C 868.084 751.440, 871.262 762.799, 874.510 789.549 C 876.119 802.794, 876.118 804.253, 874.508 815.049 C 873.569 821.347, 872.561 828.188, 872.268 830.250 C 871.164 838.038, 874.791 833.232, 879.249 821 C 881.866 813.820, 882.828 788.987, 881.006 775.625 C 879.303 763.136, 874.925 745.697, 870.158 732.418 C 866.300 721.670, 854.102 696.242, 846.452 683 C 844.387 679.425, 841.855 674.813, 840.825 672.750 C 838.856 668.806, 838 668.086, 838 670.377 M 543.403 691.750 C 538.418 696.563, 531.913 703.350, 528.946 706.834 C 522.023 714.967, 520.368 715.901, 518.837 712.541 C 518.099 710.921, 516.386 709.646, 514.091 709.009 C 509.596 707.760, 466.018 707.750, 452.217 708.994 C 428.512 711.132, 384.592 720.705, 376.361 725.529 C 370.458 728.988, 370.545 731.619, 376.860 740.593 C 390.421 759.863, 394.103 761.880, 417.993 763.124 C 464.114 765.526, 466.994 766.030, 482.510 774.420 C 494.343 780.818, 517.532 796.480, 522.443 801.390 C 527.201 806.149, 528 808.767, 528 819.608 L 528 826.966 533.250 829.587 C 546.594 836.247, 552.920 847.773, 549.668 859.500 C 548.905 862.250, 547.966 865.232, 547.581 866.127 C 547.075 867.302, 547.522 867.913, 549.190 868.330 C 550.461 868.647, 565.101 868.976, 581.724 869.061 L 611.947 869.215 619.437 862.314 C 628.011 854.414, 636.882 849.157, 648.649 845.004 C 658.122 841.660, 660.813 840.165, 661.553 837.832 C 662.488 834.886, 657.782 826.676, 651.740 820.714 C 646.941 815.979, 643.208 813.637, 631.188 807.820 C 605.588 795.431, 591.432 784.413, 577.877 766.326 C 562.099 745.274, 556.646 729.534, 555.420 701.500 C 554.826 687.912, 554.233 683, 553.188 683 C 552.791 683, 548.387 686.938, 543.403 691.750 M 793.060 736.752 C 785.908 740.386, 787.209 748, 794.981 748 C 799.897 748, 805 742.431, 805 737.066 C 805 735.302, 804.379 735, 800.750 735.002 C 798.413 735.002, 794.952 735.790, 793.060 736.752 M 352.347 748.065 C 340.359 750.137, 330.204 755.650, 322.382 764.331 C 312.386 775.426, 309.544 783.125, 310.179 797.394 C 310.523 805.112, 311.029 807.314, 313.500 811.839 C 317.815 819.742, 332.309 832.024, 334.608 829.725 C 334.986 829.347, 334.727 825.074, 334.033 820.230 C 332.452 809.203, 333.566 802.845, 339.105 791.263 C 345.928 776.997, 354.588 769.285, 371.320 762.576 L 375.139 761.044 373.343 758.004 C 370.263 752.789, 364.770 748.187, 361 747.662 C 359.075 747.393, 355.181 747.575, 352.347 748.065 M 785.740 755.085 C 783.934 756.137, 780.592 762.925, 781.456 763.789 C 782.644 764.977, 792 757.468, 792 755.326 C 792 753.765, 788.255 753.621, 785.740 755.085 M 370.208 773.453 C 365.380 775.632, 355.141 785.800, 352.467 791.071 C 347.291 801.273, 345.279 818.946, 348.434 826.495 C 350.161 830.630, 373.053 854.352, 381.482 860.741 C 389.848 867.084, 401.144 872.178, 417.524 876.993 C 440.776 883.829, 483.214 892.989, 491.667 892.996 C 498.001 893.002, 509.045 887.501, 507.552 885.084 C 507.195 884.507, 502.988 882.881, 498.202 881.471 C 462.986 871.096, 437 860.721, 437 857.036 C 437 854.465, 440.607 854.263, 446.953 856.480 C 470.793 864.806, 500.877 873.763, 514.215 876.506 C 522.432 878.196, 523.183 878.202, 527.343 876.613 C 539.668 871.906, 536.789 867.061, 518 860.884 C 499.566 854.824, 455.214 835.314, 450.807 831.325 C 445.561 826.578, 453.496 826.894, 465.301 831.903 C 470.360 834.050, 480.575 838.129, 488 840.969 C 495.425 843.808, 506.059 847.894, 511.630 850.048 C 524.072 854.859, 535.087 857.003, 537.419 855.067 C 541.182 851.944, 537.881 845.766, 529.292 839.857 C 526.830 838.163, 509.444 828.928, 490.657 819.336 C 471.871 809.743, 455.858 801.260, 455.072 800.484 C 453.837 799.263, 453.867 798.988, 455.301 798.438 C 457.298 797.672, 464.061 799.966, 482 807.495 C 499.347 814.775, 503.258 816, 509.159 816 C 513.300 816, 514 815.717, 514 814.040 C 514 812.963, 512.763 810.889, 511.250 809.431 C 505.416 803.810, 478.900 787.659, 465.332 781.462 L 458.164 778.189 430.332 777.728 C 406.037 777.326, 401.293 776.983, 393 775.028 C 380.297 772.033, 374.277 771.617, 370.208 773.453 M 802.587 778.860 C 802.190 779.501, 804.864 781.407, 809.211 783.580 C 813.220 785.585, 820.162 789.424, 824.639 792.112 C 832.729 796.970, 835 797.840, 835 796.080 C 835 794.154, 823.241 784.639, 817.500 781.919 C 810.655 778.677, 803.595 777.228, 802.587 778.860 M 651.871 860.017 C 644.247 861.306, 634 866.514, 634 869.100 C 634 869.535, 637.263 871.600, 641.250 873.689 C 651.183 878.893, 661.607 889.294, 666.092 898.475 C 669.353 905.150, 669.515 906.014, 669.836 918.475 C 670.079 927.880, 669.730 933.400, 668.580 938.336 C 667.705 942.096, 667.243 945.584, 667.553 946.086 C 669.373 949.031, 684.288 944.259, 690.582 938.719 C 697.997 932.192, 703.022 919.829, 702.985 908.201 C 702.947 896.105, 696.497 880.671, 687.725 871.686 C 681.308 865.114, 674.390 861.431, 665.862 860.047 C 658.816 858.904, 658.464 858.903, 651.871 860.017 M 624 880.468 C 621.339 881.517, 613.784 881.868, 592.500 881.932 C 550.043 882.060, 543.476 883.289, 521.500 895.226 C 502.318 905.645, 485.434 917.957, 471.348 931.798 C 462.561 940.432, 460.889 943.318, 463.287 945.715 C 465.540 947.969, 469.150 946.747, 483.587 938.844 C 504.686 927.294, 534 913, 536.589 913 C 538.028 913, 539 913.584, 539 914.449 C 539 917.115, 533.815 920.415, 504.001 936.722 C 484.680 947.289, 472.645 955.087, 470.424 958.476 C 467.899 962.329, 469.703 965.570, 475.206 967.068 C 481.975 968.910, 489.015 967.034, 505.664 958.951 C 513.824 954.989, 524.550 949.972, 529.500 947.801 C 534.450 945.630, 540.345 942.941, 542.600 941.825 C 548.116 939.094, 552.531 940.128, 550.234 943.613 C 549.830 944.225, 540.500 949.258, 529.500 954.797 C 508.702 965.271, 501 970.228, 501 973.141 C 501 975.886, 505.820 979, 510.067 979 C 515.758 979, 534.793 973.760, 549.825 968.056 C 564.587 962.455, 567 962.018, 567 964.947 C 567 966.449, 563.588 968.640, 552.089 974.520 C 543.888 978.714, 536.433 982.969, 535.524 983.974 C 533.959 985.703, 534.060 985.865, 537.385 986.962 C 542.100 988.518, 562.731 986.824, 573.500 983.996 C 592.408 979.031, 631.099 961.233, 642.596 952.212 C 653.334 943.785, 660 931.781, 660 920.870 C 660 913.524, 655.612 901.052, 650.662 894.327 C 641.654 882.091, 632.264 877.210, 624 880.468 M 424.230 900.996 C 419.966 901.987, 414.131 906.083, 408.673 911.919 C 402.199 918.840, 399.335 923.720, 397.378 931.168 C 395.832 937.051, 395.789 938.330, 397.012 942.036 C 398.949 947.906, 401.205 950.425, 407.200 953.412 C 411.967 955.788, 413.421 955.998, 424.946 955.976 C 444.470 955.939, 448.027 954.484, 449.388 945.976 C 450.528 938.844, 454.520 932.683, 466.196 920.033 C 472.413 913.297, 477.632 907.438, 477.793 907.014 C 478.133 906.118, 468.265 904.606, 448.500 902.526 C 440.800 901.715, 432.925 900.868, 431 900.644 C 429.075 900.419, 426.029 900.578, 424.230 900.996 M 806.645 915.766 C 805.495 917.626, 784.077 929.584, 773.500 934.272 C 762.991 938.929, 742.581 945, 737.432 945 C 732.522 945, 735.182 946.825, 741.092 947.511 C 755.409 949.172, 771.870 945.366, 784.612 937.449 C 791.943 932.894, 805.252 921.267, 807.111 917.793 C 808.147 915.857, 807.725 914.019, 806.645 915.766 M 613.751 984.949 C 601.569 990.616, 590.244 994.853, 577.750 998.416 C 574.587 999.318, 572 1000.492, 572 1001.024 C 572 1001.557, 576.190 1007.544, 581.312 1014.328 C 590.757 1026.841, 597.836 1039.216, 602.288 1051 C 609.214 1069.334, 615.890 1078.773, 625.219 1083.422 C 628.064 1084.840, 631.902 1086, 633.747 1086 C 636.672 1086, 637.307 1085.520, 638.705 1082.250 C 640.569 1077.888, 640.907 1067.525, 639.605 1054.661 L 638.711 1045.823 641.065 1046.161 C 642.777 1046.408, 644.520 1048.408, 647.459 1053.500 L 651.500 1060.500 651.824 1074.734 L 652.147 1088.969 654.978 1090.984 C 658.477 1093.476, 664.668 1093.617, 668.027 1091.281 C 678.030 1084.326, 679.760 1069.326, 672.699 1050.794 C 668.685 1040.262, 668.166 1037, 670.500 1037 C 672.625 1037, 675.179 1039.815, 678.735 1046.078 C 682.682 1053.030, 684.907 1060.512, 685.937 1070.296 C 686.388 1074.583, 686.973 1078.306, 687.236 1078.569 C 687.499 1078.832, 688.444 1078.767, 689.337 1078.424 C 694.351 1076.500, 697.999 1061.587, 696.127 1050.660 C 692.486 1029.409, 664.253 994.845, 640.364 982.393 C 631.304 977.670, 628.902 977.901, 613.751 984.949" stroke="none" fill="#040404" fill-rule="evenodd"/><path d="M 531.500 37.676 C 511.214 38.500, 492.436 42.334, 472.500 49.723 C 460.601 54.133, 446.885 60.307, 444 62.552 C 443.175 63.194, 439.844 65.155, 436.599 66.909 C 433.353 68.663, 429.528 71.004, 428.099 72.110 C 426.669 73.217, 421.675 77.094, 417 80.725 C 406.493 88.887, 382.858 112.415, 377.046 120.500 C 374.673 123.800, 372.230 126.950, 371.616 127.500 C 370.154 128.810, 361 143.807, 361 144.892 C 361 145.353, 360.176 146.803, 359.170 148.115 C 356.757 151.259, 348.114 168.202, 343.159 179.500 C 332.595 203.590, 328.831 224.074, 332.413 237.995 C 334.778 247.187, 338.817 254.930, 343.365 258.990 L 347.275 262.480 346.620 258.490 C 344.961 248.374, 344.908 242.639, 346.373 231.356 C 348.462 215.257, 353.960 201.017, 358.418 200.158 C 360.102 199.834, 360.217 200.270, 359.611 204.649 C 359.241 207.317, 358.672 215.800, 358.346 223.500 C 357.725 238.176, 359.064 248.872, 362.790 259 C 364.920 264.789, 371.557 276.899, 374.061 279.564 C 375.127 280.700, 376 282.084, 376 282.640 C 376 283.196, 377.059 284.646, 378.354 285.863 L 380.707 288.074 381.354 281.890 C 381.709 278.489, 382.004 272.060, 382.009 267.603 C 382.020 257.396, 384.440 236.922, 386.335 231 C 391.766 214.032, 402.069 190.848, 405.410 188.075 C 406.284 187.349, 407 186.312, 407 185.769 C 407 184.658, 415.760 171.339, 419.833 166.257 C 421.300 164.427, 424.075 161.033, 426 158.715 C 429.960 153.946, 430.956 152.429, 434.491 145.783 C 435.871 143.189, 437 140.162, 437 139.056 C 437 137.104, 440.628 126.580, 443.397 120.500 C 446.335 114.049, 449.137 108.310, 451.411 104.084 C 454.848 97.700, 460.056 94.088, 461.263 97.250 C 461.837 98.754, 459.130 107.394, 455.665 115.114 C 449.040 129.875, 446.222 168.197, 450.379 187 C 453.766 202.323, 462.795 217.684, 476.425 231.314 C 486.062 240.951, 486.254 240.768, 481.987 226 C 478.827 215.061, 478.640 213.543, 480.288 212.176 C 482.615 210.245, 484.242 211.611, 488.395 218.983 C 490.537 222.786, 492.876 226.122, 493.593 226.397 C 494.309 226.672, 495.587 228.235, 496.433 229.870 C 498.321 233.521, 513.753 249, 515.505 249 C 517.125 249, 517.676 244.824, 519.003 222.500 C 519.591 212.600, 520.514 201.350, 521.054 197.500 C 522.294 188.663, 527.135 171.901, 531.451 161.500 C 533.277 157.100, 536.786 147.892, 539.250 141.037 C 541.713 134.182, 544.491 128.107, 545.423 127.537 C 547.766 126.103, 549.576 128.747, 550.375 134.768 C 551.871 146.043, 563.424 175.269, 569.676 183.594 C 570.954 185.296, 572 187.117, 572 187.641 C 572 189.374, 579.435 195.875, 583.218 197.451 C 586.896 198.984, 597.070 199.596, 598.307 198.360 C 598.659 198.008, 598.309 196.545, 597.529 195.110 C 593.212 187.167, 588 174.854, 588 172.598 C 588 166.595, 593.378 170.710, 603.509 184.464 C 605.115 186.645, 607.120 189.222, 607.964 190.192 C 608.809 191.162, 611.300 194.199, 613.500 196.941 C 619.708 204.680, 651.352 237.009, 652.715 237.004 C 653.383 237.002, 654.436 236.054, 655.055 234.898 C 656.643 231.930, 657.455 192.860, 656.195 180 C 654.972 167.513, 648.093 141.827, 644.010 134.500 C 642.477 131.750, 640.898 128.425, 640.500 127.111 C 638.737 121.287, 627.117 104.760, 618.276 95.500 C 606.899 83.585, 604.761 80, 609.033 80 C 613.209 80, 621.028 85.179, 630.369 94.132 C 635.666 99.209, 640 103.957, 640 104.682 C 640 105.407, 640.460 106, 641.022 106 C 643.557 106, 663 141.226, 663 145.817 C 663 146.451, 664.309 150.914, 665.910 155.735 C 669.585 166.806, 669.817 168.224, 671.014 186.956 C 672.416 208.887, 670.835 231.642, 666.806 247.500 C 665.129 254.100, 663.356 261.525, 662.864 264 C 662.373 266.475, 660.403 273.046, 658.486 278.602 C 656.569 284.158, 655 289.397, 655 290.245 C 655 295.651, 665.938 289.031, 677.194 276.813 C 685.491 267.808, 687.840 264.760, 693.628 255.500 C 695.690 252.200, 697.680 249.275, 698.048 249 C 699.831 247.671, 706.607 228.921, 710.070 215.735 C 716.348 191.830, 717.126 179.515, 713.466 162 C 711.355 151.903, 707.264 140.304, 703.267 133.083 C 698.668 124.775, 690.065 112, 689.070 112 C 688.655 112, 687.467 110.425, 686.430 108.500 C 685.393 106.575, 684.248 105, 683.885 105 C 683.522 105, 680.635 101.794, 677.469 97.876 L 671.713 90.752 672.314 80.890 C 672.994 69.733, 674.096 71.634, 662.500 63.970 C 659.200 61.789, 656.188 60.004, 655.807 60.002 C 655.426 60.001, 653.415 58.987, 651.337 57.750 C 637.282 49.377, 605.334 40.077, 583.500 38.002 C 574.357 37.133, 548.808 36.973, 531.500 37.676 M 705.500 71.929 C 702.200 72.912, 698.287 74.209, 696.805 74.812 C 693.058 76.337, 687.060 83.041, 687.027 85.741 C 687.001 87.882, 690.195 92.603, 696.563 99.835 C 704.774 109.161, 707.197 112.326, 713.529 122 C 717.308 127.775, 721.387 135.200, 722.591 138.500 C 723.796 141.800, 725.956 147.304, 727.391 150.730 C 728.826 154.157, 730 157.582, 730 158.341 C 730 159.101, 731.145 163.272, 732.545 167.611 C 737.700 183.585, 744.909 213.865, 746.566 226.500 C 749.111 245.907, 748.937 276.637, 746.213 288.500 C 743.957 298.328, 738.167 311.109, 731.717 320.500 C 726.952 327.438, 713.726 340.920, 703.236 349.535 C 696.728 354.879, 687.289 365.840, 684.173 371.672 C 683.535 372.867, 682.416 374.442, 681.687 375.172 C 679.278 377.585, 671.161 394.830, 669.427 401.222 C 667.075 409.889, 665.079 420.812, 665.082 425 C 665.085 428.920, 669.604 442.716, 672.567 447.850 C 678.187 457.590, 681.743 460.843, 683.557 457.907 C 683.929 457.306, 684.676 451.344, 685.217 444.657 C 686.135 433.318, 686.431 432.147, 689.611 427.250 C 692.144 423.349, 693.630 422, 695.394 422 C 698.547 422, 698.970 423.916, 698.986 438.281 C 698.997 447.392, 699.314 450.183, 700.386 450.595 C 701.149 450.887, 705.311 449.750, 709.636 448.068 C 713.961 446.386, 718.084 445.007, 718.799 445.005 C 719.513 445.002, 723.898 442.712, 728.544 439.916 C 740.403 432.779, 748.395 423.772, 755.506 409.530 L 761.036 398.456 762.074 378.978 C 762.645 368.265, 763.356 354.438, 763.655 348.250 C 764.120 338.607, 764.437 337, 765.873 337 C 767.170 337, 768.161 339.433, 770.250 347.750 C 773.751 361.687, 774.912 370.108, 775.639 386.838 C 776.509 406.862, 774.063 419.513, 766.454 434.331 C 763.892 439.320, 764.492 440.304, 768.750 438.099 C 773.203 435.792, 782.372 426.500, 787.102 419.500 C 791.438 413.082, 795.903 399.938, 795.958 393.429 C 796.005 387.768, 790.744 366.499, 786.452 355 C 783.862 348.063, 783.646 346.374, 783.576 332.500 C 783.501 317.713, 783.541 317.429, 786.393 312.500 C 787.984 309.750, 790.184 305.703, 791.283 303.508 C 792.382 301.312, 794.341 297.836, 795.637 295.783 C 796.933 293.730, 799.620 287.202, 801.609 281.275 C 804.973 271.255, 805.192 269.870, 804.734 261.500 C 804.147 250.753, 799.997 231.999, 795.402 219.328 C 791.559 208.731, 788.963 198.259, 789.702 196.333 C 790.413 194.482, 792.412 194.668, 794.159 196.750 C 796.192 199.170, 813 233.934, 813 235.716 C 813 236.285, 814.611 240.285, 816.580 244.606 C 820.169 252.483, 822.909 266.740, 822.996 278 C 823.071 287.658, 826.570 285.751, 832.172 273 C 835.311 265.856, 835.465 264.931, 835.427 253.500 C 835.390 242.485, 835.091 240.592, 831.777 230.437 C 829.792 224.352, 826.728 216.930, 824.967 213.945 C 823.207 210.959, 821.357 207.612, 820.856 206.508 C 820.355 205.404, 817.496 201.125, 814.503 197 C 800.510 177.717, 795.348 168.460, 791.570 155.875 C 790.807 153.331, 788.791 148.081, 787.091 144.207 C 785.391 140.334, 784 136.618, 784 135.949 C 784 135.280, 782.487 131.756, 780.638 128.117 C 778.789 124.477, 776.944 120.375, 776.538 119 C 776.132 117.625, 774.792 114.925, 773.560 113 C 772.328 111.075, 769.786 106.877, 767.910 103.671 C 764.193 97.317, 753.282 85.116, 748.500 81.966 C 740.028 76.385, 737.882 75.291, 730.500 72.792 C 721.094 69.609, 714.103 69.367, 705.500 71.929 M 386.901 82.933 C 384.921 83.320, 379.296 85.630, 374.401 88.068 C 366.786 91.860, 363.821 94.161, 353.880 104 C 347.489 110.325, 340.417 118.200, 338.163 121.500 C 335.910 124.800, 329.125 137.472, 323.085 149.659 C 317.045 161.846, 311.624 172.115, 311.037 172.477 C 310.450 172.840, 309.289 174.568, 308.457 176.318 C 307.625 178.068, 304.504 183.325, 301.522 188 C 287.056 210.674, 282.609 223.206, 282.539 241.500 C 282.488 254.666, 286.092 267.915, 291.537 274.575 L 293.928 277.500 293.964 274.889 C 294.044 269.074, 301.017 251, 303.180 251 C 304.457 251, 306 254.724, 306 257.803 C 306 264.615, 309.198 278.663, 311.734 282.990 C 316.678 291.427, 329.892 302, 335.492 302 C 337.915 302, 339.202 297.165, 338.818 289.500 C 338.521 283.559, 337.978 281.792, 335.234 277.820 C 333.455 275.246, 332 272.852, 332 272.500 C 332 272.148, 330.682 269.945, 329.071 267.604 C 323.494 259.497, 318.006 248.153, 316.368 241.342 C 313.288 228.541, 315.117 203.186, 320 191 C 321.213 187.975, 322.803 183.925, 323.534 182 C 326.053 175.368, 334.546 159.786, 343.429 145.500 C 345.139 142.750, 346.979 139.786, 347.519 138.914 C 352.045 131.599, 358.357 122.675, 359.999 121.269 C 361.100 120.326, 362 119.074, 362 118.486 C 362 117.898, 363.462 115.802, 365.250 113.829 C 367.038 111.857, 369.685 108.802, 371.133 107.042 C 372.580 105.281, 378.093 99.421, 383.383 94.019 C 388.672 88.617, 393 83.702, 393 83.098 C 393 81.899, 392.292 81.880, 386.901 82.933 M 542.535 164.250 C 542.314 164.938, 541.036 168.875, 539.695 173 C 538.355 177.125, 536.756 183.650, 536.142 187.500 C 530.307 224.085, 529 234.653, 529 245.252 C 529 257.689, 527.602 259.974, 520 259.963 C 514.259 259.954, 507.854 257.042, 502.284 251.908 C 499.873 249.685, 497.360 248.044, 496.700 248.260 C 496.040 248.477, 495.359 250.080, 495.187 251.824 C 494.671 257.047, 491.066 257.146, 483.956 252.132 C 480.734 249.859, 477.808 248, 477.454 248 C 476.221 248, 454.778 226.470, 451.949 222.392 C 447.682 216.240, 444.858 215.437, 434.346 217.387 C 424.998 219.122, 412.217 224.916, 406.215 230.140 C 404.409 231.713, 402.521 233, 402.020 233 C 400.402 233, 394.021 247.320, 392.884 253.500 C 392.205 257.198, 391.989 265.831, 392.322 276 C 392.770 289.681, 393.304 294.037, 395.451 301.500 C 396.875 306.450, 398.478 312.681, 399.013 315.348 C 400.299 321.759, 408.391 346.811, 411.643 354.450 C 415.009 362.357, 417.902 367.933, 420.168 370.885 C 421.176 372.197, 422 373.671, 422 374.162 C 422 375.181, 426.152 379.837, 433.742 387.327 C 441.474 394.959, 448.288 400.443, 455.387 404.749 C 456.975 405.712, 460.357 407.850, 462.903 409.500 C 473.327 416.255, 500.084 428.048, 510.430 430.448 C 524.446 433.698, 543.416 431.607, 556.586 425.361 C 560.483 423.512, 564.198 422, 564.842 422 C 565.804 422, 578.345 415.469, 591.770 407.976 C 597.025 405.044, 609.517 396.231, 611.405 394.125 C 612.453 392.956, 613.815 392, 614.432 392 C 615.050 392, 616.694 390.763, 618.086 389.250 C 619.478 387.738, 623.003 384.475, 625.918 382 C 628.834 379.525, 633.308 375.260, 635.860 372.522 C 646.762 360.828, 648.660 358.747, 651.646 355.218 C 653.377 353.173, 656.410 349.650, 658.387 347.389 L 661.981 343.278 670.741 342.753 C 680.750 342.153, 687.479 339.845, 694.693 334.538 C 700.396 330.342, 714.602 316.453, 716.304 313.408 C 724.380 298.963, 726.107 291.353, 724.088 279.105 C 721.628 264.188, 713.228 255.758, 707.291 262.250 C 705.334 264.391, 702 270.220, 702 271.503 C 702 271.834, 705.738 271.801, 710.307 271.430 C 717.370 270.857, 718.867 271.010, 720.307 272.450 C 723.940 276.083, 721.298 279.338, 715.362 278.541 C 710.484 277.887, 705.218 279.768, 702.876 283 C 701.880 284.375, 700.596 288.510, 700.023 292.189 C 698.653 300.987, 693.181 312.770, 689.140 315.624 C 688.238 316.261, 686.239 317.957, 684.698 319.391 C 677.675 325.931, 675.974 320.388, 681 307.337 C 684.013 299.512, 684.695 295.548, 683.190 294.617 C 682.745 294.342, 678.357 295.945, 673.440 298.179 C 668.523 300.413, 662.250 303.265, 659.500 304.517 C 647.215 310.110, 641.761 309.612, 641.196 302.845 C 641.028 300.842, 642.477 292.400, 644.415 284.085 C 646.471 275.266, 648.218 264.651, 648.609 258.610 L 649.278 248.253 641.389 245.241 C 637.050 243.585, 630.866 241.476, 627.646 240.556 C 624.426 239.636, 619.058 237.560, 615.718 235.942 C 612.378 234.324, 609.111 233, 608.458 233 C 607.804 233, 606.197 232.168, 604.885 231.151 C 603.573 230.135, 600.141 227.995, 597.258 226.397 C 594.376 224.799, 590.776 222.482, 589.258 221.248 C 583.379 216.464, 572.671 210.051, 567.936 208.479 C 564.366 207.293, 560.398 206.925, 553.768 207.166 C 545.505 207.466, 544.522 207.313, 544.192 205.676 C 543.607 202.772, 546.517 200.477, 554.020 197.923 C 557.859 196.616, 561 195.241, 561 194.867 C 561 194.494, 558.796 190.433, 556.101 185.844 C 553.407 181.255, 549.714 174.238, 547.895 170.250 C 544.670 163.179, 543.354 161.706, 542.535 164.250 M 426.379 182.750 C 423.782 186.463, 419.934 191.792, 417.829 194.592 C 415.723 197.393, 414 199.958, 414 200.292 C 414 200.626, 412.695 202.835, 411.099 205.200 C 408.466 209.104, 403 220.061, 403 221.436 C 403 222.932, 405.691 221.585, 411.253 217.305 C 417.464 212.526, 427.308 208.527, 435.838 207.319 C 438.286 206.972, 440.424 206.060, 440.744 205.225 C 441.056 204.411, 440.383 200.765, 439.249 197.123 C 438.114 193.480, 436.900 188.824, 436.552 186.775 C 435.733 181.960, 433.236 176, 432.037 176 C 431.522 176, 428.976 179.037, 426.379 182.750 M 595 210.969 C 595 211.983, 604.593 219, 605.978 219 C 606.514 219, 608.425 219.898, 610.226 220.996 C 616.462 224.798, 619.229 222.977, 614.250 218.348 C 609.160 213.615, 595 208.188, 595 210.969 M 562.336 242.455 C 557.536 244.543, 553 249.018, 553 251.665 C 553 253.593, 553.523 254, 556 254 C 557.650 254, 559 254.369, 559 254.819 C 559 255.270, 557.182 258.075, 554.960 261.053 C 550.794 266.637, 549.576 269.566, 550.161 272.588 C 550.784 275.801, 553.084 275.242, 557.091 270.902 C 562.248 265.315, 565.822 263.015, 569.357 263.007 C 571.518 263.002, 572.070 263.375, 571.624 264.537 C 567.278 275.863, 567.170 284.774, 571.226 297.347 C 572.984 302.795, 574.510 305.375, 577.949 308.717 C 585.669 316.216, 593.096 316.786, 601.167 310.498 C 609.572 303.950, 613.329 293.097, 612.813 276.859 C 612.525 267.783, 612.649 266.996, 614.368 266.998 C 617.218 267.001, 623.640 274.038, 624.885 278.523 C 625.492 280.710, 625.991 284.326, 625.994 286.559 C 626.006 295.152, 631.024 296.228, 635.497 288.596 C 638.455 283.548, 638.774 277.434, 636.346 272.318 C 632.692 264.616, 616.077 251.844, 605.201 248.376 C 602.615 247.551, 594.901 246.452, 588.058 245.932 C 577.835 245.157, 575.238 244.633, 573.494 242.994 C 571.041 240.690, 566.858 240.487, 562.336 242.455 M 429.468 250.397 C 419.002 253.676, 409.025 262.618, 404.667 272.625 C 401.430 280.060, 401.347 283.302, 404.266 288.404 C 409.169 296.974, 412.054 295.682, 413.128 284.436 C 413.525 280.279, 414.555 275.802, 415.417 274.486 C 417.188 271.783, 424.080 267.486, 428.319 266.443 C 431.127 265.751, 431.135 265.763, 430.405 269.624 C 430.002 271.756, 429.633 278.262, 429.586 284.082 C 429.500 294.658, 429.503 294.669, 433.813 303.082 C 438.309 311.855, 444.501 318.766, 448.943 319.968 C 456.068 321.897, 464.607 315.451, 468.110 305.500 C 469.864 300.520, 470.129 298.055, 469.670 291 C 469.366 286.325, 468.436 280.700, 467.602 278.500 C 466.769 276.300, 466.068 273.709, 466.044 272.742 C 466.007 271.273, 466.308 271.175, 467.868 272.149 C 470.325 273.684, 473 272.581, 473 270.034 C 473 268.918, 471.425 266.335, 469.500 264.294 C 467.575 262.253, 466 260.251, 466 259.845 C 466 258.443, 454.982 251.799, 450.339 250.402 C 444.661 248.693, 434.915 248.690, 429.468 250.397 M 355.035 302.934 C 354.466 303.998, 353.986 305.461, 353.969 306.184 C 353.952 306.908, 352.899 309.525, 351.629 312 C 346.682 321.644, 341.787 330.517, 341.150 330.997 C 338.805 332.762, 326.249 355.959, 322.732 365.023 C 318.287 376.479, 318 378.084, 318 391.490 C 318 405.538, 318.767 409.434, 323.455 419.206 C 326.039 424.592, 341.034 442, 343.090 442 C 344.620 442, 344.107 438.910, 342.017 435.527 C 339.985 432.240, 336 414.418, 336 408.619 C 336 404.065, 339.705 384.419, 341.032 381.940 C 341.639 380.807, 342.892 380.024, 343.817 380.201 C 345.215 380.467, 345.610 382.295, 346.150 391.011 C 347.764 417.042, 357.023 436.436, 372.655 446.526 C 379.627 451.026, 383.698 451.988, 395.809 451.994 L 406.118 452 401.191 447.250 C 395.556 441.817, 386 429.346, 386 427.424 C 386 425.458, 390.149 424.495, 391.424 426.165 C 393.511 428.899, 408.555 436.905, 412.915 437.602 L 417.329 438.308 415.664 435.904 C 414.199 433.789, 409.207 428.245, 395.750 413.788 C 393.688 411.572, 392 409.208, 392 408.534 C 392 407.861, 391.171 406.559, 390.157 405.642 C 387.438 403.181, 379.880 387.371, 378.138 380.500 C 376.726 374.933, 375.137 362.171, 373.634 344.328 L 372.355 329.157 367.210 318.828 C 364.381 313.148, 361.399 306.813, 360.584 304.750 C 358.966 300.656, 356.659 299.901, 355.035 302.934 M 494 342 C 491.185 344.815, 491.510 347.410, 495.050 350.388 C 497.616 352.548, 498.404 352.764, 500.021 351.755 C 501.077 351.095, 502.458 349.308, 503.090 347.784 C 505.550 341.843, 498.588 337.412, 494 342 M 510 384.973 C 497.237 386.325, 495.661 388.582, 504.618 392.683 C 509.329 394.840, 511.235 395.175, 516.422 394.758 C 524.325 394.124, 527 392.508, 527 388.366 C 527 383.766, 525.055 383.378, 510 384.973 M 602.954 419.894 C 598.854 422.586, 594.643 425.736, 593.595 426.894 C 592.547 428.052, 591.222 429, 590.650 429 C 590.078 429, 588.460 430.056, 587.055 431.346 C 583.540 434.573, 569.595 444, 568.336 444 C 567.772 444, 566.511 444.883, 565.534 445.962 C 564.557 447.042, 562.238 448.427, 560.379 449.040 C 558.521 449.653, 557 450.528, 557 450.984 C 557 451.918, 566.309 458.808, 568.849 459.753 C 571.681 460.808, 584.102 471.048, 593.500 480.077 C 598.450 484.833, 604.878 490.811, 607.783 493.362 C 616.012 500.586, 619.137 499.840, 631.043 487.809 C 637.602 481.181, 640.149 477.693, 643.633 470.573 C 649.456 458.669, 649.408 456.111, 643.250 450.084 C 638.380 445.317, 632.145 441, 630.132 441 C 629.509 441, 629 441.675, 629 442.500 C 629 443.325, 628.621 444, 628.157 444 C 627.694 444, 626.467 445.575, 625.430 447.500 C 624.393 449.425, 623.310 451.001, 623.023 451.001 C 622.735 451.002, 620.475 452.802, 618 455 C 615.525 457.198, 612.946 458.998, 612.269 458.999 C 611.593 458.999, 608.668 460.508, 605.769 462.352 C 599.932 466.064, 590.610 469.495, 589.022 468.514 C 586.503 466.957, 589.657 461.142, 593.708 459.877 C 594.372 459.670, 598.013 456.723, 601.799 453.329 C 610.824 445.238, 614.561 438.159, 614.353 429.553 C 614.196 423.089, 612.424 415, 611.165 415 C 610.748 415, 607.053 417.202, 602.954 419.894 M 878.500 429.943 C 873.552 431.160, 861.378 437.730, 854.798 442.734 C 848.559 447.478, 819.635 476.138, 804 493.066 C 799.325 498.128, 792.688 505.126, 789.250 508.616 C 785.813 512.107, 783 515.185, 783 515.457 C 783 516.023, 774.505 525.048, 754.500 545.735 L 740.500 560.213 722.500 559.523 C 702.703 558.764, 684.905 559.936, 668.500 563.079 C 650.925 566.445, 651.735 566.685, 638.212 554.104 C 624.452 541.303, 604.452 520.957, 590.456 505.520 C 561.875 473.999, 554.637 467.919, 532.037 456.452 C 525.331 453.049, 523.178 452.369, 521.669 453.177 C 519.028 454.591, 519.921 460.525, 523.925 468.162 C 525.616 471.389, 527 474.664, 527 475.439 C 527 476.214, 528.383 480.302, 530.073 484.523 C 531.763 488.744, 533.744 494.965, 534.475 498.348 C 538.409 516.548, 548.651 549.986, 553.665 561 C 556.950 568.214, 557.110 569.132, 557.866 585.100 C 558.577 600.140, 558.870 602.021, 560.984 605.100 C 564.254 609.865, 569.185 615, 570.491 615 C 572.092 615, 584.678 597.402, 588.898 589.260 C 590.287 586.582, 588.940 584.085, 583.513 579.281 C 579.679 575.886, 579.016 573.276, 581.750 572.334 C 582.712 572.002, 585.468 570.892, 587.873 569.867 C 592.154 568.043, 592.212 567.956, 590.613 565.752 C 589.715 564.513, 588.585 562.600, 588.102 561.500 C 587.620 560.400, 585.599 558.027, 583.612 556.226 C 576.308 549.605, 580.585 546.448, 589.339 552 C 591.941 553.650, 594.279 555, 594.535 555 C 595.977 555, 594.547 549.613, 591.497 543.557 C 589.574 539.739, 588 536.210, 588 535.716 C 588 535.222, 586.200 532.252, 584 529.116 C 581.800 525.979, 580 522.940, 580 522.362 C 580 521.783, 579.054 520.454, 577.897 519.407 C 576.741 518.361, 573.975 514.442, 571.751 510.698 C 568.676 505.522, 567.987 503.613, 568.872 502.728 C 570.834 500.766, 575.767 504.315, 585.500 514.690 C 590.450 519.967, 596.300 526.179, 598.500 528.496 C 601.923 532.101, 605.696 536.330, 611.442 543 C 612.153 543.825, 615.389 548.100, 618.633 552.500 C 625.146 561.334, 629 568.552, 629 571.917 C 629 573.394, 624.307 578.937, 614.701 588.808 C 600.862 603.028, 587 619.030, 587 620.788 C 587 621.259, 585.545 624.312, 583.767 627.572 C 580.256 634.009, 577.892 639.902, 574.768 650 C 572.225 658.221, 571.096 691.392, 572.932 703.946 C 575.187 719.370, 584.178 742.515, 592 753.032 C 598.060 761.179, 613.043 773.669, 621.724 777.808 C 623.526 778.667, 625 779.669, 625 780.033 C 625 780.398, 626.688 781.392, 628.750 782.243 C 630.813 783.094, 635.200 784.935, 638.500 786.335 C 645.119 789.143, 650.043 790.390, 660.396 791.879 C 665.287 792.582, 668.485 793.713, 671.396 795.767 C 673.653 797.361, 678.650 799.971, 682.500 801.567 C 689.443 804.446, 689.666 804.470, 710 804.485 L 730.500 804.500 737.017 800.831 C 740.602 798.813, 745.058 795.267, 746.920 792.950 L 750.305 788.738 747.902 786.891 C 746.581 785.876, 745.022 785.034, 744.437 785.022 C 743.852 785.010, 739.352 782.938, 734.437 780.418 C 729.108 777.685, 724.139 775.828, 722.128 775.818 C 720.259 775.808, 715.580 777.367, 711.628 779.316 C 700.472 784.818, 693.771 786.500, 683 786.500 C 671.020 786.500, 667.284 784.860, 656.305 774.780 L 648.287 767.418 640.893 767.774 C 636.827 767.969, 631.250 768.515, 628.500 768.987 C 622.270 770.057, 620.790 768.917, 623.989 765.512 C 626.606 762.726, 631.598 761.014, 637.128 761.006 C 641.291 760.999, 643.456 759.011, 642.517 756.054 C 641.193 751.881, 639.220 751, 631.179 750.993 C 617.764 750.980, 609.869 749.917, 610.206 748.168 C 610.409 747.116, 612.701 746.242, 617.501 745.388 C 621.350 744.703, 626.072 743.661, 627.993 743.071 C 629.915 742.482, 632.962 742, 634.765 742 C 637.281 742, 638.305 741.425, 639.168 739.530 C 641.415 734.599, 637.875 732.958, 619.709 730.509 C 605.752 728.627, 602.727 727.664, 603.188 725.247 C 603.916 721.434, 629.126 722.959, 658.056 728.566 C 664.961 729.905, 671.572 731, 672.747 731 C 675.473 731, 676.518 732.671, 674.964 734.544 C 674.041 735.655, 671.181 736, 662.878 736 C 656.895 736, 652 736.380, 652 736.845 C 652 738.657, 655.936 741.110, 659.626 741.597 C 669.463 742.895, 670 743.068, 670 744.938 C 670 747.109, 668.108 748, 663.500 748 C 656.559 748, 655.242 750.151, 659.545 754.455 C 661.762 756.671, 662.956 757.002, 668.795 757.015 C 672.483 757.024, 676.107 757.415, 676.848 757.885 C 679.293 759.434, 677.675 762.387, 673.784 763.479 C 671.748 764.050, 669.577 765.023, 668.959 765.641 C 666.262 768.338, 673.816 774.185, 681.652 775.465 C 688.656 776.608, 704.409 771.560, 710.206 766.314 C 713.776 763.083, 716.234 758.069, 715.562 755.390 C 715.210 753.989, 709.119 746.851, 702.026 739.527 C 687.028 724.042, 685.931 721.725, 690.398 714.975 C 693.334 710.538, 695.757 709.969, 698.554 713.060 C 700.328 715.020, 701.303 715.104, 718.791 714.810 L 737.164 714.500 739.165 711.750 C 740.266 710.237, 741.574 709, 742.071 709 C 743.907 709, 748.273 717.419, 748.273 720.960 C 748.273 726.745, 743.175 735.405, 734.674 744.065 C 727 751.883, 725.127 758.349, 729.080 763.375 C 730.871 765.651, 742.434 771.933, 750.425 774.971 C 754.805 776.637, 761 773.235, 761 769.164 C 761 768.631, 759.650 767.725, 758 767.150 C 756.350 766.575, 755 765.394, 755 764.527 C 755 762.547, 759.669 760.700, 762.731 761.469 C 766.271 762.357, 769.177 760.347, 768.810 757.263 C 768.558 755.150, 767.614 754.363, 763.793 753.080 C 754.221 749.867, 754.875 747.558, 765.614 746.650 C 774.029 745.939, 776 744.946, 776 741.421 C 776 739.218, 775.595 739.071, 768.761 738.794 C 763.167 738.567, 761.454 738.147, 761.225 736.947 C 761.005 735.789, 763.294 734.643, 770.215 732.447 C 779.220 729.589, 779.560 729.371, 781.491 725.212 C 784.067 719.665, 786.703 719.826, 789.500 725.701 C 790.778 728.385, 792.042 729.768, 793 729.533 C 793.825 729.330, 797.005 728.880, 800.066 728.533 C 803.127 728.186, 807.018 727.059, 808.711 726.029 C 811.469 724.352, 811.909 723.393, 812.926 716.828 C 813.551 712.798, 815.637 701.175, 817.563 691 C 820.356 676.243, 821.058 670.103, 821.032 660.651 C 821.001 649.144, 820.882 648.507, 816.916 638.651 C 808.774 618.412, 794.090 600.444, 770.668 582.059 C 763.032 576.066, 762 574.215, 762 566.512 C 762 562.171, 762.811 559.572, 766.269 552.827 C 768.617 548.247, 771.286 543.600, 772.200 542.500 C 773.114 541.400, 776.256 537.287, 779.181 533.359 C 784.910 525.667, 789.641 519.781, 794.669 514.088 C 796.412 512.115, 803.123 504.425, 809.582 497 C 824.241 480.148, 832.860 471.198, 845.063 460.154 C 858.147 448.314, 862.061 445, 862.959 445 C 863.380 445, 865.451 443.628, 867.562 441.951 C 871.566 438.768, 883.793 432.592, 888.354 431.447 C 889.809 431.082, 891 430.382, 891 429.892 C 891 428.845, 882.826 428.878, 878.500 429.943 M 487 462.932 C 473.256 467.491, 466.166 472.973, 463.454 481.137 C 459.946 491.701, 462.779 506.883, 469.949 515.936 C 476.570 524.295, 490.992 527.670, 498 522.500 C 499.864 521.125, 501.809 520, 502.323 520 C 502.837 520, 504.937 518.538, 506.989 516.750 C 509.041 514.962, 513.080 511.522, 515.965 509.104 C 521.050 504.843, 521.190 504.587, 520.568 500.700 C 519.899 496.518, 505.208 465.993, 502.338 462.821 C 500.210 460.469, 494.295 460.512, 487 462.932 M 845.938 476.344 C 829.586 492.489, 809.131 515.932, 804.784 523.509 C 798.120 535.125, 791.260 551.994, 792.431 553.888 C 792.766 554.430, 795.031 554.167, 797.883 553.255 C 800.566 552.397, 803.490 551.974, 804.381 552.316 C 807.011 553.325, 806.245 557.392, 802.500 562.296 C 798.280 567.823, 798.153 569.415, 801.750 571.704 C 803.263 572.666, 804.782 573.852, 805.127 574.338 C 806.253 575.922, 804.893 578.703, 801.916 580.904 C 800.312 582.090, 799 583.481, 799 583.997 C 799 584.512, 800.575 586.508, 802.500 588.433 C 804.425 590.358, 806 592.623, 806 593.467 C 806 594.310, 806.431 595, 806.958 595 C 807.485 595, 809.133 597.138, 810.621 599.750 C 813.725 605.199, 817.884 610.017, 819.437 609.963 C 820.856 609.915, 825.887 601.878, 827.069 597.773 C 827.587 595.973, 828.307 588.650, 828.669 581.500 C 829.275 569.521, 829.588 567.953, 832.663 561.528 C 834.498 557.694, 836 554, 836 553.321 C 836 552.641, 837.575 547.229, 839.500 541.293 C 841.425 535.357, 843.487 527.820, 844.081 524.544 C 844.676 521.268, 846.240 515.177, 847.557 511.008 C 848.874 506.839, 850.637 499.849, 851.474 495.475 C 852.310 491.100, 854.164 484.013, 855.591 479.726 C 859.987 466.528, 856.955 465.466, 845.938 476.344 M 706.494 477.010 C 706.213 477.465, 707.449 478.151, 709.241 478.534 C 711.034 478.917, 713.625 479.801, 715 480.499 C 716.375 481.196, 721.550 483.649, 726.500 485.951 C 737.250 490.948, 742.966 493.885, 745 495.455 C 745.825 496.092, 747.821 497.179, 749.436 497.870 C 751.051 498.561, 754.109 500.502, 756.232 502.184 C 760.987 505.950, 762.158 505.207, 758.671 500.636 C 753.200 493.463, 737.454 484.364, 724.636 480.970 C 720.711 479.931, 715.139 478.428, 712.253 477.631 C 709.367 476.834, 706.775 476.555, 706.494 477.010 M 406 486.112 C 402.975 487.235, 399.150 488.646, 397.500 489.250 C 386.764 493.175, 369.275 508.704, 349.073 532.250 C 344.472 537.612, 340.323 542, 339.854 542 C 339.384 542, 339 542.570, 339 543.267 C 339 543.965, 337.087 546.618, 334.750 549.164 C 332.413 551.710, 327.350 557.272, 323.500 561.523 C 319.650 565.775, 307.311 578.309, 296.080 589.377 C 271.778 613.326, 242.333 642.816, 239.412 646.131 C 238.264 647.434, 235.617 650.975, 233.530 654 C 231.443 657.025, 229.078 660.256, 228.275 661.181 C 226.063 663.728, 219.652 675.870, 215.962 684.500 C 210.185 698.012, 210.500 696.020, 210.500 719.074 L 210.500 740.648 214.048 746.574 C 216 749.833, 218.163 753.625, 218.854 755 C 222.841 762.926, 225.547 762.721, 221.734 754.782 C 216.616 744.126, 216.500 743.433, 216.500 723.500 C 216.500 708.203, 216.861 703.136, 218.350 697.500 C 220.518 689.295, 227.040 674.966, 230.605 670.575 C 231.978 668.884, 235.891 663.680, 239.301 659.012 C 246.058 649.760, 271.479 623.714, 290.500 606.554 C 302.193 596.005, 327.582 569.997, 336.874 559.049 C 339.418 556.051, 342.738 552.383, 344.250 550.898 C 345.762 549.413, 347 547.866, 347 547.461 C 347 547.055, 348.805 544.648, 351.010 542.112 C 353.216 539.575, 355.578 536.808, 356.260 535.963 C 377.257 509.936, 391.389 496.709, 406.732 488.723 C 409.609 487.225, 412.620 486, 413.423 486 C 414.225 486, 415.160 485.550, 415.500 485 C 416.502 483.378, 411.926 483.914, 406 486.112 M 395.268 557.078 C 390.678 566.101, 378.753 606.502, 376.844 619.500 C 375.515 628.548, 375.433 677.038, 376.730 686.500 C 377.479 691.955, 377.663 690.864, 378.759 674.500 C 380.695 645.593, 384.294 619.711, 389.883 594.500 C 394.459 573.858, 397.171 559.263, 396.846 557.033 L 396.500 554.657 395.268 557.078 M 663.667 599.667 C 662.615 600.719, 662.938 622.018, 664.081 626.980 C 665.334 632.418, 669.383 638, 672.076 638 C 675.289 638, 676.249 633.740, 674.957 625.219 C 672.367 608.133, 667.106 596.227, 663.667 599.667 M 751.132 600.753 C 749.815 603.214, 747.789 624.290, 748.177 631.500 C 748.480 637.130, 748.661 637.519, 751.116 637.804 C 754.370 638.181, 758.625 633.515, 759.557 628.547 C 760.249 624.857, 757.500 605.192, 755.757 601.365 C 754.483 598.570, 752.445 598.300, 751.132 600.753 M 622.500 640.540 C 617.550 641.248, 613.388 641.867, 613.250 641.914 C 612.482 642.178, 613.160 647, 613.965 647 C 615.622 647, 617.144 650.949, 618.106 657.747 C 619.202 665.482, 622.948 672.926, 628.451 678.299 C 635.005 684.698, 636.440 685.104, 652.457 685.094 C 660.353 685.089, 667.936 684.803, 669.308 684.459 C 671.604 683.883, 671.879 684.192, 672.765 688.346 C 674.787 697.825, 681.821 706.053, 685.378 703.101 C 687.764 701.121, 690 695.434, 690 691.347 C 690 679.894, 680.080 656.790, 672.188 649.860 C 661.524 640.497, 644.762 637.353, 622.500 640.540 M 768 640.310 C 754.474 643.458, 745.748 653.471, 740.879 671.432 C 738.628 679.737, 738.580 682.355, 740.514 691.483 C 743.057 703.491, 746.165 708.157, 750.350 706.250 C 752.224 705.396, 752.874 703.870, 753.928 697.853 C 756.295 684.332, 754.831 685.574, 769.080 685 C 781.124 684.515, 781.643 684.401, 786.222 681.222 C 793.631 676.077, 796.892 670.446, 799.595 658.129 C 802.687 644.042, 802.658 642.623, 799.250 641.061 C 795.287 639.245, 774.702 638.750, 768 640.310 M 782 655.277 C 782 661.581, 781.885 661.871, 777.997 665.384 C 772.247 670.578, 767.788 670.442, 761.356 664.875 C 756.810 660.941, 756.548 660.846, 755.671 662.812 C 754.163 666.190, 755.763 669.815, 760 672.619 C 765.964 676.566, 771.636 676.843, 778.219 673.509 C 785.697 669.723, 788.346 665.569, 788.838 656.859 C 789.197 650.504, 789.076 650, 787.195 650 C 786.078 650, 784.452 649.727, 783.582 649.393 C 782.240 648.878, 782 649.769, 782 655.277 M 629.739 651.250 C 629.147 652.807, 631.491 662.126, 633.585 666.537 C 635.876 671.366, 642.131 675.111, 648.937 675.728 C 653.708 676.161, 655.416 675.823, 659.869 673.566 C 666.703 670.103, 668.913 665.767, 666.238 661.067 C 664.132 657.366, 663.407 657.244, 662.601 660.455 C 661.887 663.299, 656.725 667.539, 652.776 668.524 C 646.570 670.073, 638 662.829, 638 656.033 C 638 652.278, 636.140 650, 633.072 650 C 631.500 650, 630 650.563, 629.739 651.250 M 306.070 666.709 C 308.507 668.750, 314.017 673.935, 318.316 678.234 C 324.122 684.038, 326.051 686.619, 325.816 688.264 C 325.388 691.261, 322.703 691.568, 318.064 689.150 C 312.625 686.315, 304.346 685, 291.941 685 C 279.943 685, 274.066 685.792, 276.169 687.126 C 276.901 687.590, 279.075 687.988, 281 688.010 C 282.925 688.033, 288.325 688.946, 293 690.040 C 297.675 691.134, 303.913 692.504, 306.862 693.086 C 309.812 693.667, 315.475 695.686, 319.448 697.571 C 323.421 699.457, 326.963 701, 327.320 701 C 327.676 701, 330.752 702.348, 334.154 703.997 C 337.556 705.645, 340.553 706.781, 340.812 706.521 C 341.071 706.262, 340.694 703.226, 339.972 699.775 C 338.427 692.380, 332.648 682.540, 326.036 676.044 C 321.015 671.112, 307.191 663, 303.806 663 C 301.991 663, 302.359 663.602, 306.070 666.709 M 839.128 673.750 C 839.659 675.813, 840.503 678.400, 841.002 679.500 C 841.501 680.600, 842.562 683.750, 843.360 686.500 C 844.157 689.250, 846.201 694.875, 847.902 699 C 849.602 703.125, 850.995 706.806, 850.997 707.180 C 850.998 707.554, 852.305 710.704, 853.899 714.180 C 855.494 717.656, 857.485 722.525, 858.324 725 C 859.967 729.850, 862.268 735.621, 864.562 740.651 C 865.353 742.384, 866 744.717, 866 745.836 C 866 746.955, 866.505 749.137, 867.121 750.685 C 870.016 757.952, 873.103 772.910, 874.663 787.225 C 876.290 802.158, 876.288 803.685, 874.611 817.564 C 873.640 825.602, 873.039 832.373, 873.276 832.609 C 874.193 833.526, 879.970 817.915, 880.951 811.871 C 882.281 803.678, 882.284 788.756, 880.958 777.974 C 879.579 766.751, 873.558 742.575, 869.918 733.643 C 868.317 729.714, 867.007 726.050, 867.008 725.500 C 867.010 723.828, 844.884 680.528, 841.718 676.007 C 840.773 674.659, 840 672.755, 840 671.777 C 840 670.800, 839.586 670, 839.081 670 C 838.530 670, 838.549 671.503, 839.128 673.750 M 542.832 693.250 C 537.690 698.337, 531.056 705.313, 528.091 708.750 C 522.339 715.419, 519.524 716.508, 518.052 712.636 C 517.558 711.336, 516.331 709.898, 515.327 709.440 C 512.330 708.074, 471.793 707.737, 457.150 708.957 C 449.674 709.580, 437.919 711.169, 431.028 712.488 C 424.138 713.808, 416.250 715.190, 413.500 715.560 C 410.750 715.930, 401.975 718.031, 394 720.228 C 380.045 724.073, 373.630 726.952, 372.497 729.880 C 371.067 733.574, 387.391 754.992, 394.500 758.751 C 399.351 761.316, 404.046 761.894, 432.596 763.441 C 457.845 764.809, 460.333 765.115, 469.096 767.930 C 474.268 769.592, 480.164 772.088, 482.197 773.476 C 484.230 774.864, 486.293 776, 486.781 776 C 487.269 776, 490.238 777.800, 493.379 780 C 496.519 782.200, 499.406 784.010, 499.794 784.022 C 500.182 784.034, 501.625 784.953, 503 786.063 C 504.375 787.174, 507.975 789.703, 511 791.684 C 518.498 796.595, 524.866 801.901, 526.275 804.413 C 526.919 805.561, 527.683 810.999, 527.973 816.498 L 528.500 826.496 533.804 829.171 C 539.806 832.198, 546.351 838.045, 548.725 842.500 C 550.780 846.358, 551.017 859.273, 549.115 863.782 C 548.354 865.587, 547.990 867.323, 548.306 867.639 C 548.622 867.956, 562.971 868.445, 580.191 868.726 L 611.500 869.238 619 862.047 C 627.125 854.256, 639.423 847.020, 648.825 844.499 C 656.081 842.553, 661.002 839.385, 660.991 836.668 C 660.980 834.199, 656.128 825.368, 653.351 822.764 C 647.319 817.106, 643.827 814.794, 634.204 810.086 C 617.288 801.810, 608 796.671, 602.883 792.758 C 598.246 789.211, 582.003 773.272, 579.401 769.715 C 572.201 759.872, 565.894 749.452, 562.605 741.968 C 558.412 732.425, 555.566 716.442, 554.376 695.750 C 554.004 689.288, 553.358 684, 552.941 684 C 552.523 684, 547.974 688.163, 542.832 693.250 M 798.500 735.930 C 792.935 736.875, 790.133 738.622, 789.382 741.614 C 788.642 744.561, 790.225 746.556, 794.043 747.491 C 797.095 748.237, 801.263 745.326, 803.592 740.821 C 805.083 737.939, 804.915 734.863, 803.281 735.125 C 802.852 735.194, 800.700 735.556, 798.500 735.930 M 351.500 748.675 C 341.633 750.858, 330.679 756.561, 325 762.472 C 318.455 769.285, 316.330 772.179, 313.660 777.926 C 310.881 783.905, 310.599 785.451, 310.552 795 C 310.504 804.792, 310.694 805.837, 313.379 810.500 C 316.838 816.509, 322.011 822.149, 327.680 826.092 C 331.100 828.471, 335.003 829.888, 334.999 828.750 C 334.999 828.612, 334.296 825.133, 333.437 821.017 C 331.471 811.593, 332.170 806.087, 336.738 795.020 C 342.916 780.048, 350.886 771.478, 364.750 764.894 C 369.837 762.478, 374 760.205, 374 759.842 C 374 759.479, 371.621 756.666, 368.713 753.591 C 363.618 748.203, 363.246 748.004, 358.463 748.116 C 355.733 748.180, 352.600 748.431, 351.500 748.675 M 787.465 754.952 C 784.957 755.968, 783.459 757.806, 782.738 760.750 C 782.006 763.740, 782.828 763.591, 787.272 759.927 C 792.328 755.760, 792.437 752.936, 787.465 754.952 M 370.424 774.383 C 363.642 777.541, 355.486 785.871, 352.335 792.858 C 347.468 803.649, 345.721 816.054, 347.966 823.883 C 349.458 829.085, 365.736 846.812, 380.321 859.120 C 385.525 863.511, 405.247 874, 408.299 874 C 408.949 874, 415.559 875.747, 422.990 877.883 C 437.678 882.104, 463.497 888.159, 474.250 889.904 C 477.962 890.507, 483.813 891.518, 487.250 892.150 C 492.942 893.198, 493.919 893.109, 498.195 891.150 C 500.777 889.968, 503.172 889, 503.517 889 C 504.802 889, 507.105 885.979, 506.530 885.048 C 506.201 884.516, 503.360 883.341, 500.216 882.437 C 497.072 881.533, 490 879.403, 484.500 877.704 C 479 876.006, 472.700 874.084, 470.500 873.434 C 462.960 871.208, 446.500 864.449, 441.750 861.630 C 438.689 859.813, 437 858.121, 437 856.874 C 437 853.792, 439.790 853.521, 446.374 855.961 C 449.743 857.209, 454.312 858.596, 456.527 859.044 C 458.742 859.491, 462.567 860.597, 465.027 861.503 C 486.506 869.408, 514.794 877.022, 522.623 877.005 C 525.149 876.999, 533.649 873.376, 534.548 871.922 C 536.497 868.768, 527.827 864.066, 510.500 858.880 C 506.650 857.727, 501.700 855.894, 499.500 854.805 C 497.300 853.716, 493.074 851.967, 490.109 850.918 C 487.144 849.869, 484.219 848.619, 483.609 848.140 C 482.999 847.661, 479.449 846.064, 475.719 844.590 C 471.990 843.117, 466.682 840.582, 463.925 838.956 C 461.168 837.330, 458.324 836, 457.606 836 C 455.407 836, 447.875 830.012, 448.599 828.840 C 449.857 826.805, 460.142 828.619, 468 832.262 C 476.824 836.353, 496.364 844, 497.992 844 C 498.614 844, 501.683 845.161, 504.812 846.581 C 515.650 851.498, 517.899 852.246, 528.493 854.463 C 535.945 856.022, 538 855.442, 538 851.782 C 538 846.941, 530.608 840.373, 517.500 833.567 C 505.481 827.325, 492.681 820.835, 482 815.566 C 459.419 804.427, 452.615 800.432, 453.576 798.877 C 454.671 797.105, 463.857 799.017, 471.542 802.615 C 475.517 804.477, 479.317 806, 479.987 806 C 480.657 806, 484.906 807.734, 489.430 809.854 C 497.621 813.693, 509.902 816.797, 511.933 815.542 C 514.740 813.807, 512.703 810.833, 504.896 805.273 C 500.439 802.098, 495.151 798.548, 493.146 797.385 C 491.141 796.222, 486.350 793.419, 482.500 791.157 C 476.283 787.503, 472.780 785.727, 461.500 780.508 C 459.289 779.485, 451.794 778.993, 433 778.638 C 408.002 778.165, 397.902 777.144, 383 773.583 C 375.020 771.676, 376.431 771.586, 370.424 774.383 M 803.657 778.945 C 802.230 779.446, 802.772 780.031, 806.289 781.788 C 808.726 783.004, 811.130 784, 811.632 784 C 812.135 784, 814.937 785.575, 817.860 787.500 C 820.783 789.425, 823.473 791.002, 823.837 791.004 C 824.202 791.007, 826.525 792.355, 829 794 C 831.475 795.645, 833.950 796.972, 834.500 796.948 C 836.105 796.878, 820.657 783.003, 818.973 783.001 C 818.132 783.001, 816.503 782.340, 815.352 781.534 C 812.623 779.622, 805.942 778.143, 803.657 778.945 M 648.500 861.037 C 644.219 862.419, 634.667 867.498, 634.305 868.585 C 634.022 869.434, 641.568 874.009, 643.239 874.003 C 644.577 873.998, 655.692 882.885, 658.859 886.492 C 660.566 888.436, 662.709 891.483, 663.621 893.263 C 664.533 895.044, 665.566 896.725, 665.917 897 C 666.268 897.275, 667.297 899.300, 668.205 901.500 C 670.513 907.098, 671.127 917.604, 669.899 930.500 C 668.221 948.136, 668.033 946.536, 671.748 946.246 C 673.535 946.107, 677.925 944.821, 681.503 943.388 C 688.863 940.442, 694.846 934.624, 698.962 926.412 C 701.195 921.959, 701.428 920.279, 701.462 908.425 L 701.500 895.350 697.129 886.529 C 691.788 875.750, 684.956 868.429, 676 863.887 C 670.286 860.990, 668.411 860.560, 660.500 860.330 C 655.550 860.186, 650.150 860.505, 648.500 861.037 M 623.500 881.244 C 621.721 881.880, 606.049 882.572, 585 882.944 L 549.500 883.571 538.697 887.754 C 532.756 890.055, 526.733 892.852, 525.312 893.969 C 523.892 895.086, 522.279 896, 521.727 896 C 520.185 896, 506.373 904.483, 498 910.571 C 493.875 913.571, 488.925 917.095, 487 918.402 C 482.821 921.240, 468.788 934.733, 464.813 939.735 C 461.826 943.494, 462.299 946, 465.998 946 C 468.092 946, 479.437 940.672, 490.500 934.492 C 494.900 932.034, 504.575 927.062, 512 923.443 C 519.425 919.825, 527.586 915.770, 530.135 914.432 C 536.978 910.842, 541.026 911.414, 539.530 915.759 C 538.942 917.465, 526.220 926, 524.263 926 C 523.717 926, 522.197 926.839, 520.885 927.864 C 519.573 928.889, 515.125 931.522, 511 933.715 C 492.349 943.632, 489.589 945.178, 487.234 947.030 C 485.857 948.114, 484.311 949, 483.798 949 C 482.717 949, 476.734 953.267, 472.750 956.880 C 465.155 963.768, 475.192 969.517, 488.500 965.902 C 490.700 965.305, 499.787 961.257, 508.692 956.908 C 517.598 952.559, 525.229 949, 525.649 949 C 526.069 949, 529.807 947.355, 533.956 945.344 C 538.105 943.334, 542.959 940.983, 544.741 940.121 C 547.733 938.675, 548.117 938.689, 549.725 940.296 C 551.069 941.641, 551.219 942.432, 550.381 943.769 C 549.784 944.721, 540.037 950.225, 528.719 956 C 517.402 961.775, 506.551 967.806, 504.605 969.403 C 501.117 972.265, 501.090 972.345, 502.702 975.073 C 505.575 979.936, 512.147 979.811, 528.500 974.583 C 532.900 973.176, 537.107 972.020, 537.849 972.013 C 538.591 972.006, 540.616 971.353, 542.349 970.562 C 557.608 963.601, 566.466 961.445, 567.606 964.415 C 568.457 966.633, 567.089 967.574, 551.500 975.490 C 536.762 982.974, 534.528 984.428, 535.459 985.933 C 536.436 987.514, 556.529 987.256, 565.162 985.551 C 577.048 983.204, 598.274 975.489, 612 968.527 C 615.575 966.714, 619.625 964.900, 621 964.497 C 622.375 964.094, 624.175 963.205, 625 962.522 C 625.825 961.839, 629.003 959.929, 632.062 958.277 C 638.705 954.690, 647.150 948.410, 648.391 946.134 C 648.881 945.235, 650.534 943.243, 652.064 941.707 C 657.976 935.770, 660.951 918.606, 657.500 910.346 C 656.675 908.371, 656 905.977, 656 905.026 C 656 902.592, 647.841 890.447, 644.392 887.748 C 642.813 886.511, 640.758 884.742, 639.826 883.815 C 638.008 882.008, 631.776 879.960, 628.500 880.092 C 627.400 880.136, 625.150 880.655, 623.500 881.244 M 419.868 903.506 C 417.281 904.853, 412.092 909.357, 408.112 913.709 C 401.776 920.638, 400.714 922.392, 398.519 929.562 C 396.063 937.582, 396.060 937.649, 397.878 942.438 C 400.185 948.515, 405.881 953.477, 412.377 955.067 C 419.315 956.765, 441.061 955.845, 444.311 953.716 C 446.016 952.598, 447.565 949.631, 449.479 943.810 C 452.913 933.367, 454.986 930.535, 472.296 912.647 C 474.933 909.921, 476.722 907.322, 476.272 906.872 C 475.821 906.421, 471.188 905.590, 465.976 905.026 C 460.764 904.462, 450.425 903.321, 443 902.491 C 425.922 900.583, 425.439 900.604, 419.868 903.506 M 801.523 919.565 C 799.885 920.419, 798.293 921.525, 797.985 922.024 C 797.286 923.155, 777.426 934, 776.054 934 C 775.502 934, 772.057 935.371, 768.399 937.046 C 764.740 938.722, 756.516 941.273, 750.124 942.715 C 743.731 944.158, 738.073 945.712, 737.550 946.169 C 737.028 946.626, 741.858 947, 748.285 947 C 758.615 947, 761.045 946.647, 769.235 943.953 C 774.331 942.277, 780.783 939.352, 783.573 937.453 C 786.363 935.554, 788.930 934, 789.278 934 C 789.625 934, 790.942 932.974, 792.205 931.720 C 793.467 930.466, 795.400 928.762, 796.500 927.932 C 799.729 925.497, 806.492 917.999, 805.453 918.006 C 804.929 918.010, 803.160 918.711, 801.523 919.565 M 620.500 982.454 C 609.709 987.750, 595.372 994, 594.015 994 C 593.052 994, 580.601 997.896, 573.216 1000.509 C 572.379 1000.805, 574.122 1003.779, 578.216 1009.040 C 581.672 1013.481, 585.415 1018.634, 586.534 1020.490 C 587.652 1022.346, 589.285 1024.682, 590.162 1025.682 C 592.406 1028.240, 600.443 1043.710, 602.001 1048.471 C 604.532 1056.204, 610.547 1068.562, 614 1073.126 C 618.470 1079.033, 627.216 1084.725, 632.500 1085.166 C 636.193 1085.474, 636.640 1085.231, 638.322 1082 C 639.902 1078.964, 640.075 1076.778, 639.628 1065.500 C 639.345 1058.350, 638.841 1051.600, 638.509 1050.500 C 638.176 1049.400, 638.534 1047.641, 639.304 1046.592 C 640.678 1044.719, 640.751 1044.719, 643.212 1046.575 C 644.591 1047.616, 647.206 1051.399, 649.022 1054.983 C 652.171 1061.197, 652.345 1062.128, 652.767 1075 C 653.249 1089.713, 653.848 1091.368, 659.100 1092.522 C 671.830 1095.318, 681.056 1075.771, 674.924 1059 C 669.363 1043.793, 668.029 1038.543, 669.381 1037.190 C 673.061 1033.511, 684.167 1051.713, 685.435 1063.500 C 685.790 1066.800, 686.338 1071.412, 686.653 1073.750 C 688.200 1085.205, 696 1071.313, 696 1057.106 C 696 1049.808, 693.368 1040.629, 689.519 1034.500 C 687.792 1031.750, 686.119 1028.807, 685.801 1027.960 C 684.479 1024.432, 672.054 1008.935, 664.560 1001.468 C 656.760 993.695, 642.437 983.334, 635.464 980.420 C 630.485 978.340, 628.268 978.641, 620.500 982.454" stroke="none" fill="#fcfcfc" fill-rule="evenodd"/></svg>