<?xml version="1.0" standalone="no"?>
<!DOCTYPE svg PUBLIC "-//W3C//DTD SVG 20010904//EN"
 "http://www.w3.org/TR/2001/REC-SVG-20010904/DTD/svg10.dtd">
<svg version="1.0" xmlns="http://www.w3.org/2000/svg"
 width="900.000000pt" height="789.000000pt" viewBox="0 0 900.000000 789.000000"
 preserveAspectRatio="xMidYMid meet">
<metadata>
Created by potrace 1.10, written by Peter Selinger 2001-2011
</metadata>
<g transform="translate(0.000000,789.000000) scale(0.100000,-0.100000)"
fill="#000000" stroke="none">
<path d="M3285 7360 c-18 -34 -45 -241 -45 -340 0 -75 23 -280 41 -360 7 -30
13 -131 13 -225 1 -168 1 -171 -32 -264 -19 -52 -51 -131 -72 -175 -20 -45
-54 -116 -74 -159 -20 -42 -36 -81 -36 -86 0 -8 -45 -116 -82 -199 -22 -46
-59 -72 -106 -72 -16 0 -51 -7 -78 -15 -27 -8 -59 -15 -72 -15 -46 0 -303 -89
-394 -136 -35 -19 -73 -18 -89 3 -29 34 -383 290 -432 311 -44 20 -409 279
-518 369 -206 169 -481 383 -493 383 -2 0 -31 18 -64 39 -55 37 -127 78 -212
121 -109 55 -176 71 -186 46 -8 -21 18 -54 163 -206 172 -179 287 -319 269
-326 -8 -3 -28 1 -43 9 -15 8 -52 22 -81 32 -42 14 -55 15 -67 5 -26 -21 -20
-30 50 -85 140 -108 212 -181 268 -266 47 -71 62 -125 81 -294 9 -77 24 -183
33 -236 9 -53 14 -103 11 -110 -3 -8 -28 -22 -54 -33 -226 -86 -384 -205 -529
-396 -39 -52 -93 -131 -119 -175 -26 -44 -51 -87 -56 -95 -6 -8 -13 -22 -16
-30 -3 -8 -10 -23 -15 -33 -34 -64 -81 -201 -86 -252 -11 -128 28 -353 56
-319 4 5 15 36 25 69 10 33 24 75 32 93 8 18 14 39 14 47 0 8 6 29 14 47 8 18
22 53 31 78 28 73 114 240 156 304 22 32 39 60 39 62 0 10 120 165 164 212 27
29 79 74 115 101 59 43 89 60 181 106 41 21 96 27 108 13 5 -7 34 -60 64 -118
30 -58 74 -134 99 -170 24 -36 53 -92 63 -125 44 -140 57 -177 69 -198 14 -26
67 -98 82 -112 37 -35 40 -49 46 -229 8 -226 26 -302 109 -468 21 -43 56 -103
77 -135 45 -69 189 -217 254 -261 69 -47 226 -125 294 -146 33 -10 74 -23 90
-28 53 -17 285 -48 355 -48 38 0 71 -4 75 -9 9 -16 -104 -77 -232 -125 -58
-22 -205 -40 -265 -32 -29 3 -62 7 -72 9 -28 3 -31 -19 -5 -40 60 -48 119
-107 119 -119 0 -19 -86 -18 -212 2 -69 11 -140 14 -236 11 -179 -6 -274 -23
-484 -86 -39 -12 -57 -39 -36 -53 7 -5 40 -5 73 -1 75 10 364 10 465 0 82 -9
231 -33 295 -49 22 -5 58 -13 80 -17 22 -5 87 -25 145 -45 58 -20 119 -41 135
-46 17 -5 57 -18 90 -30 118 -42 200 -57 343 -64 162 -7 232 -21 317 -62 213
-103 306 -392 170 -526 -30 -31 -44 -35 -49 -15 -2 6 -11 45 -20 85 -30 123
-92 209 -183 252 -87 41 -108 18 -43 -48 76 -79 124 -206 118 -316 -3 -62 -8
-78 -35 -115 -53 -72 -133 -111 -226 -111 -46 0 -56 15 -63 91 -13 122 -110
269 -195 295 -67 21 -80 -9 -24 -57 19 -17 49 -59 66 -94 27 -54 31 -74 31
-144 0 -73 -2 -84 -26 -116 -43 -56 -91 -75 -190 -75 -84 0 -103 5 -194 49
-46 22 -113 89 -157 159 -21 31 -47 71 -57 87 -24 35 -100 95 -122 95 -8 0
-17 4 -20 9 -12 18 -250 81 -308 81 -43 0 -253 36 -443 76 -38 9 -101 22 -140
30 -216 45 -313 91 -407 191 -85 91 -117 179 -142 383 -53 439 -61 836 -25
1164 20 183 20 216 0 216 -22 0 -89 -159 -124 -295 -50 -191 -64 -565 -32
-840 29 -253 46 -371 61 -421 8 -28 14 -56 14 -62 0 -6 17 -49 39 -94 71 -153
163 -250 291 -310 117 -55 314 -108 480 -128 57 -7 134 -21 255 -46 39 -8 81
-14 95 -14 32 0 157 -26 238 -51 117 -36 157 -64 236 -169 111 -146 212 -211
380 -244 84 -17 91 -17 164 0 43 9 107 32 143 51 56 28 72 32 112 27 51 -7
164 16 233 47 42 19 121 83 161 130 12 15 44 36 71 47 100 43 203 165 230 274
25 100 8 225 -48 343 -42 90 -139 187 -230 231 -98 47 -139 64 -158 64 -44 0
-192 34 -189 44 2 7 85 13 238 18 129 4 306 12 394 17 88 6 264 11 390 11 127
0 358 5 515 10 157 6 672 15 1145 21 1049 13 1400 22 1486 39 66 13 68 13 180
-25 204 -67 243 -75 380 -75 157 0 212 16 323 92 37 26 46 28 145 28 174 0
261 40 378 174 17 20 63 52 102 72 110 56 171 136 206 269 20 77 19 114 -4
205 -26 105 -39 136 -88 210 -48 74 -119 139 -193 176 -77 39 -204 67 -272 60
-64 -6 -216 -45 -288 -74 -29 -11 -107 -33 -197 -56 -278 -70 -245 -68 -791
-61 -985 13 -1603 25 -1832 35 -428 18 -655 30 -694 37 l-38 6 5 51 c10 100
38 125 141 127 70 0 145 14 158 27 24 24 -10 32 -138 36 l-129 4 -3 39 c-2 24
2 44 10 50 7 6 54 27 103 48 50 20 105 43 123 51 18 8 41 14 51 14 10 0 26 9
37 21 15 17 16 22 4 29 -15 9 -40 6 -94 -11 -16 -5 -42 -9 -57 -9 -15 0 -30
-4 -33 -9 -3 -5 -18 -12 -33 -15 -16 -4 -52 -19 -82 -34 l-53 -26 -19 23 c-23
28 -24 65 -3 122 22 62 22 335 0 399 -9 25 -16 53 -16 62 0 20 -66 164 -78
172 -5 3 -17 31 -27 63 -11 32 -25 65 -32 74 -7 8 -13 20 -13 25 0 22 -106
127 -190 188 -49 36 -92 66 -94 66 -16 0 -156 105 -161 120 -3 10 -1 37 5 61
7 24 14 134 17 244 8 290 -18 490 -88 680 -38 100 -59 151 -128 296 -62 132
-93 224 -111 329 -24 144 -50 157 -77 39 -18 -80 -36 -106 -41 -59 -1 14 -9
41 -16 60 -25 65 -46 145 -62 235 -25 143 -46 239 -57 253 -16 20 -36 14 -52
-18z m340 -982 c105 -249 139 -414 140 -668 0 -161 -20 -354 -39 -369 -7 -6
-32 0 -66 16 -153 69 -198 89 -223 97 -27 9 -32 34 -14 90 8 28 22 78 30 111
14 56 22 95 61 288 25 120 45 258 51 342 11 147 26 172 60 93z m-2405 -583 c7
-8 17 -15 23 -15 23 0 224 -144 333 -239 22 -20 67 -58 99 -86 33 -27 118
-106 189 -174 200 -190 294 -269 360 -305 153 -83 292 -62 290 44 -1 31 -11
49 -48 92 -25 29 -45 57 -43 63 2 5 14 15 28 22 47 23 97 43 108 43 6 0 25 6
43 14 46 20 135 42 249 61 111 20 409 17 494 -4 116 -29 185 -53 282 -97 29
-13 62 -29 75 -34 13 -6 32 -16 43 -23 11 -7 58 -34 104 -62 46 -27 94 -57
107 -65 161 -107 167 -112 235 -193 56 -67 62 -94 22 -103 -87 -20 -181 -111
-245 -234 -23 -43 -25 -174 -4 -222 8 -18 17 -40 20 -48 12 -31 94 -146 158
-219 21 -24 38 -47 38 -51 0 -8 -100 -40 -126 -40 -11 0 -29 -7 -40 -15 -10
-8 -25 -15 -32 -15 -21 0 -135 -59 -159 -82 -16 -15 -23 -33 -23 -59 0 -48 37
-79 140 -115 94 -33 118 -49 125 -88 28 -148 -223 -344 -480 -375 -45 -5 -50
-8 -50 -31 0 -24 2 -25 77 -28 74 -3 170 17 225 47 10 5 25 12 33 15 16 7 40
22 122 77 85 59 185 73 219 33 18 -22 -26 -128 -75 -178 -71 -73 -127 -98
-271 -121 -97 -16 -204 -9 -315 20 -244 62 -329 71 -513 55 -78 -7 -225 -13
-327 -13 -186 0 -277 12 -385 49 -23 8 -46 14 -53 14 -10 0 -118 50 -182 85
-49 27 -165 131 -217 195 -120 147 -198 361 -198 545 0 66 4 86 22 115 48 74
55 97 39 129 -8 15 -25 35 -38 43 -90 59 -188 204 -222 328 -24 86 -30 98 -83
161 -52 64 -54 67 -119 200 -72 148 -99 242 -116 411 -14 135 -16 258 -4 391
7 92 9 97 31 97 12 0 28 -7 35 -15z m3097 -1167 c25 -44 48 -108 68 -196 20
-83 16 -147 -16 -257 -38 -130 -37 -150 12 -245 38 -74 44 -95 47 -160 6 -127
-55 -304 -122 -354 -28 -22 -75 -24 -118 -7 -28 10 -28 11 -28 109 0 107 -1
106 85 208 39 46 40 49 39 118 -1 60 -7 83 -38 146 -43 88 -52 103 -89 152
l-27 36 42 50 c24 28 51 73 61 100 23 67 22 173 -2 242 -18 50 -18 57 -4 73
27 29 68 22 90 -15z m-124 -99 c21 -103 -24 -239 -81 -247 -26 -4 -30 19 -6
39 48 39 71 162 39 205 -15 20 -20 56 -8 67 15 15 48 -22 56 -64z m4281 -1046
c178 -48 308 -220 305 -404 0 -73 -66 -199 -103 -199 -7 0 -19 32 -30 83 -22
96 -53 160 -107 216 -58 60 -152 101 -194 85 -27 -11 -16 -31 34 -64 50 -32
86 -71 113 -125 19 -37 48 -163 48 -207 -1 -78 -71 -167 -169 -214 -44 -21
-72 -27 -128 -28 -40 0 -77 4 -83 10 -6 6 -19 44 -29 85 -11 41 -27 90 -37
108 -24 47 -93 115 -143 140 -42 22 -101 28 -101 11 0 -6 24 -34 53 -63 64
-62 89 -103 111 -176 16 -56 14 -85 -12 -136 -28 -56 -83 -89 -172 -104 -79
-13 -224 5 -310 39 -30 12 -64 24 -75 27 -11 4 -29 12 -40 18 -11 7 -46 20
-78 30 -50 15 -68 16 -120 6 -232 -42 -177 -40 -1744 -43 -1390 -3 -1503 -2
-1519 14 -21 21 -20 22 161 234 180 211 235 297 235 370 0 37 35 107 72 144
31 32 33 32 97 26 37 -4 181 -11 321 -16 140 -4 361 -13 490 -19 673 -30 2037
-43 2276 -21 110 10 238 34 284 53 14 5 41 13 60 17 19 5 49 13 65 19 17 6 66
22 110 36 220 70 260 76 359 48z"/>
<path d="M1515 5269 c7 -21 95 -146 155 -221 37 -45 40 -73 8 -63 -13 4 -47 9
-75 12 -46 5 -53 3 -53 -12 0 -22 49 -84 158 -197 88 -91 96 -114 36 -105 -18
3 -49 1 -69 -4 -28 -8 -35 -15 -35 -35 0 -48 104 -210 174 -272 59 -51 68 -46
126 63 67 124 103 177 159 230 32 30 51 57 51 71 0 15 -30 49 -96 111 -124
113 -110 101 -174 153 -30 25 -57 47 -60 50 -3 4 -63 55 -135 115 -71 60 -131
112 -133 117 -2 4 -13 8 -24 8 -15 0 -18 -4 -13 -21z"/>
<path d="M3874 4823 c-13 -14 -15 -28 -10 -77 7 -65 28 -151 38 -161 3 -4 16
-2 27 5 18 9 21 20 21 83 0 73 -23 152 -47 161 -7 3 -20 -2 -29 -11z"/>
<path d="M3104 4666 c-18 -46 118 -203 212 -246 48 -22 84 -19 84 7 0 30 -80
122 -159 182 -86 66 -127 83 -137 57z"/>
<path d="M2840 4353 c-102 -27 -275 -85 -287 -95 -24 -20 -13 -36 40 -54 42
-16 54 -25 62 -51 32 -97 140 -203 249 -245 84 -32 238 -31 306 2 75 36 95 48
123 74 44 41 58 40 123 -8 60 -45 167 -106 184 -106 22 0 7 45 -33 98 -23 31
-54 75 -68 97 -15 22 -60 73 -100 113 -58 58 -93 83 -166 118 -50 24 -100 44
-110 44 -10 0 -40 7 -67 15 -62 19 -184 18 -256 -2z m58 -105 c6 -7 17 -39 25
-71 32 -120 126 -185 212 -145 34 15 65 76 65 127 0 22 4 42 9 46 5 3 26 -11
45 -31 30 -30 36 -44 36 -78 0 -62 -51 -102 -162 -126 -129 -29 -261 34 -346
163 -56 85 -43 101 99 126 4 1 11 -5 17 -11z"/>
<path d="M3165 3533 c-95 -9 -274 -62 -290 -87 -15 -25 0 -29 67 -17 198 35
254 41 358 41 132 0 190 12 190 39 0 14 -11 20 -46 25 -47 6 -206 6 -279 -1z"/>
<path d="M3450 3365 c-19 -7 -43 -14 -54 -14 -10 -1 -65 -25 -123 -53 -151
-76 -153 -77 -153 -98 0 -21 -5 -22 145 30 197 68 259 96 263 116 4 16 -14 34
-33 33 -5 0 -26 -7 -45 -14z"/>
</g>
</svg>
